<?xml version="1.0" encoding="utf-8"?>
<svg version="1.1" xmlns:xlink="http://www.w3.org/1999/xlink" width="52px" height="52px" viewBox="618 539.5  52 52" xmlns="http://www.w3.org/2000/svg">
  <path d="M 644 539.5  C 658.56 539.5  670 550.94  670 565.5  C 670 580.06  658.56 591.5  644 591.5  C 629.44 591.5  618 580.06  618 565.5  C 618 550.94  629.44 539.5  644 539.5  Z " fill-rule="nonzero" fill="#000000" stroke="none" fill-opacity="0" />
  <path d="M 644 540  C 658.28 540  669.5 551.22  669.5 565.5  C 669.5 579.78  658.28 591  644 591  C 629.72 591  618.5 579.78  618.5 565.5  C 618.5 551.22  629.72 540  644 540  Z " stroke-width="1" stroke="#797979" fill="none" />
  <path d="M 644 578.5  C 636.72 578.5  631 572.78  631 565.5  C 631 558.22  636.72 552.5  644 552.5  C 651.28 552.5  657 558.22  657 565.5  C 657 572.78  651.28 578.5  644 578.5  " fill-rule="nonzero" fill="#797979" stroke="none" />
</svg>