<?xml version="1.0" encoding="utf-8"?>
<svg version="1.1" xmlns:xlink="http://www.w3.org/1999/xlink" width="52px" height="52px" viewBox="618 945.5  52 52" xmlns="http://www.w3.org/2000/svg">
  <path d="M 644 945.5  C 658.56 945.5  670 956.94  670 971.5  C 670 986.06  658.56 997.5  644 997.5  C 629.44 997.5  618 986.06  618 971.5  C 618 956.94  629.44 945.5  644 945.5  Z " fill-rule="nonzero" fill="#ffffff" stroke="none" />
  <path d="M 644 946  C 658.28 946  669.5 957.22  669.5 971.5  C 669.5 985.78  658.28 997  644 997  C 629.72 997  618.5 985.78  618.5 971.5  C 618.5 957.22  629.72 946  644 946  Z " stroke-width="1" stroke="#797979" fill="none" />
  <path d="M 644 984.5  C 636.72 984.5  631 978.78  631 971.5  C 631 964.22  636.72 958.5  644 958.5  C 651.28 958.5  657 964.22  657 971.5  C 657 978.78  651.28 984.5  644 984.5  " fill-rule="nonzero" fill="#797979" stroke="none" />
</svg>