<?xml version="1.0" encoding="utf-8"?>
<svg version="1.1" xmlns:xlink="http://www.w3.org/1999/xlink" width="52px" height="52px" viewBox="618 1079.5  52 52" xmlns="http://www.w3.org/2000/svg">
  <path d="M 644 1079.5  C 658.56 1079.5  670 1090.94  670 1105.5  C 670 1120.06  658.56 1131.5  644 1131.5  C 629.44 1131.5  618 1120.06  618 1105.5  C 618 1090.94  629.44 1079.5  644 1079.5  Z " fill-rule="nonzero" fill="#f0f0f0" stroke="none" />
  <path d="M 644 1080  C 658.28 1080  669.5 1091.22  669.5 1105.5  C 669.5 1119.78  658.28 1131  644 1131  C 629.72 1131  618.5 1119.78  618.5 1105.5  C 618.5 1091.22  629.72 1080  644 1080  Z " stroke-width="1" stroke="#797979" fill="none" />
  <path d="M 644 1118.5  C 636.72 1118.5  631 1112.78  631 1105.5  C 631 1098.22  636.72 1092.5  644 1092.5  C 651.28 1092.5  657 1098.22  657 1105.5  C 657 1112.78  651.28 1118.5  644 1118.5  " fill-rule="nonzero" fill="#797979" stroke="none" />
</svg>