<?xml version="1.0" encoding="utf-8"?>
<svg version="1.1" xmlns:xlink="http://www.w3.org/1999/xlink" width="378px" height="398px" xmlns="http://www.w3.org/2000/svg">
  <g>
    <path d="M 0 0  L 378 0  L 378 398  L 0 398  L 0 0  " fill-rule="nonzero" fill="#cccccc" stroke="none" />
    <path d="M 26 26  L 352 26  L 352 372  L 26 372  L 26 26  " fill-rule="nonzero" fill="#ffffff" stroke="none" />
    <path d="M 224.91 116.4  C 209.034 116.4  196.56 103.926  196.56 88.05  C 196.56 72.174  209.034 59.7  224.91 59.7  C 240.786 59.7  253.26 72.174  253.26 88.05  C 253.26 103.926  240.786 116.4  224.91 116.4  " fill-rule="nonzero" fill="#cccccc" stroke="none" />
    <path d="M 36 363  L 36 183.15  L 112.75 101.4  L 220.2 166.8  L 281.6 150.45  L 343 166.8  L 343 363  L 36 363  " fill-rule="nonzero" fill="#169bd5" stroke="none" />
  </g>
</svg>