<?xml version="1.0" encoding="utf-8"?>
<svg version="1.1" xmlns:xlink="http://www.w3.org/1999/xlink" width="62px" height="62px" xmlns="http://www.w3.org/2000/svg">
  <g transform="matrix(1 0 0 1 -1020 -314 )">
    <path d="M 38.0234375 38.0234375  C 41.2898637820513 34.7570112179487  42.9230769230769 30.8261217948718  42.9230769230769 26.2307692307692  C 42.9230769230769 21.6354166666667  41.2898637820513 17.7045272435897  38.0234375 14.4381009615385  C 34.7570112179487 11.1716746794872  30.8261217948718 9.53846153846154  26.2307692307692 9.53846153846154  C 21.6354166666667 9.53846153846154  17.7045272435897 11.1716746794872  14.4381009615385 14.4381009615385  C 11.1716746794872 17.7045272435897  9.53846153846154 21.6354166666667  9.53846153846154 26.2307692307692  C 9.53846153846154 30.8261217948718  11.1716746794872 34.7570112179487  14.4381009615385 38.0234375  C 17.7045272435897 41.2898637820513  21.6354166666667 42.9230769230769  26.2307692307692 42.9230769230769  C 30.8261217948718 42.9230769230769  34.7570112179487 41.2898637820513  38.0234375 38.0234375  Z M 60.6213942307692 53.8774038461538  C 61.5404647435897 54.7964743589744  62 55.9142628205128  62 57.2307692307692  C 62 58.5224358974359  61.5280448717949 59.6402243589744  60.5841346153846 60.5841346153846  C 59.6402243589744 61.5280448717949  58.5224358974359 62  57.2307692307692 62  C 55.8894230769231 62  54.7716346153846 61.5280448717949  53.8774038461538 60.5841346153846  L 41.0973557692308 47.8413461538462  C 36.6510416666667 50.9214743589744  31.6955128205128 52.4615384615385  26.2307692307692 52.4615384615385  C 22.6786858974359 52.4615384615385  19.2818509615385 51.7722355769231  16.0402644230769 50.3936298076923  C 12.7986778846154 49.0150240384615  10.0042067307692 47.1520432692308  7.65685096153846 44.8046875  C 5.30949519230769 42.4573317307692  3.44651442307692 39.6628605769231  2.06790865384615 36.4212740384615  C 0.689302884615385 33.1796875  0 29.7828525641026  0 26.2307692307692  C 0 22.6786858974359  0.689302884615385 19.2818509615385  2.06790865384615 16.0402644230769  C 3.44651442307692 12.7986778846154  5.30949519230769 10.0042067307692  7.65685096153846 7.65685096153846  C 10.0042067307692 5.3094951923077  12.7986778846154 3.44651442307692  16.0402644230769 2.06790865384616  C 19.2818509615385 0.689302884615383  22.6786858974359 0  26.2307692307692 0  C 29.7828525641026 0  33.1796875 0.689302884615383  36.4212740384615 2.06790865384616  C 39.6628605769231 3.44651442307692  42.4573317307692 5.3094951923077  44.8046875 7.65685096153846  C 47.1520432692308 10.0042067307692  49.0150240384615 12.7986778846154  50.3936298076923 16.0402644230769  C 51.7722355769231 19.2818509615385  52.4615384615385 22.6786858974359  52.4615384615385 26.2307692307692  C 52.4615384615385 31.6955128205128  50.9214743589744 36.6510416666667  47.8413461538462 41.0973557692308  L 60.6213942307692 53.8774038461538  Z " fill-rule="nonzero" fill="#555555" stroke="none" transform="matrix(1 0 0 1 1020 314 )" />
  </g>
</svg>