<?xml version="1.0" encoding="utf-8"?>
<svg version="1.1" xmlns:xlink="http://www.w3.org/1999/xlink" width="62px" height="61px" xmlns="http://www.w3.org/2000/svg">
  <g transform="matrix(1 0 0 1 -937 -181 )">
    <path d="M 22.4302884615385 51.5553977272727  C 23.3741987179487 52.6529356060606  23.8461538461538 53.9526515151515  23.8461538461538 55.4545454545455  C 23.8461538461538 56.9564393939394  23.3741987179487 58.2561553030303  22.4302884615385 59.3536931818182  C 21.4863782051282 60.4512310606061  20.3685897435897 61  19.0769230769231 61  C 17.7852564102564 61  16.667467948718 60.4512310606061  15.7235576923077 59.3536931818182  C 14.7796474358974 58.2561553030303  14.3076923076923 56.9564393939394  14.3076923076923 55.4545454545455  C 14.3076923076923 53.9526515151515  14.7796474358974 52.6529356060606  15.7235576923077 51.5553977272727  C 16.667467948718 50.4578598484849  17.7852564102564 49.9090909090909  19.0769230769231 49.9090909090909  C 20.3685897435897 49.9090909090909  21.4863782051282 50.4578598484849  22.4302884615385 51.5553977272727  Z M 55.8149038461538 51.5553977272727  C 56.7588141025641 52.6529356060606  57.2307692307692 53.9526515151515  57.2307692307692 55.4545454545455  C 57.2307692307692 56.9564393939394  56.7588141025641 58.2561553030303  55.8149038461538 59.3536931818182  C 54.8709935897436 60.4512310606061  53.7532051282051 61  52.4615384615385 61  C 51.1698717948718 61  50.0520833333333 60.4512310606061  49.1081730769231 59.3536931818182  C 48.1642628205128 58.2561553030303  47.6923076923077 56.9564393939394  47.6923076923077 55.4545454545455  C 47.6923076923077 53.9526515151515  48.1642628205128 52.6529356060606  49.1081730769231 51.5553977272727  C 50.0520833333333 50.4578598484849  51.1698717948718 49.9090909090909  52.4615384615385 49.9090909090909  C 53.7532051282051 49.9090909090909  54.8709935897436 50.4578598484849  55.8149038461538 51.5553977272727  Z M 61.2920673076923 6.36860795454545  C 61.7640224358974 6.91737689393939  62 7.56723484848484  62 8.31818181818182  L 62 30.5  C 62 31.1931818181818  61.7950721153846 31.8069365530303  61.3852163461538 32.3412642045455  C 60.9753605769231 32.8755918560606  60.4723557692308 33.1860795454545  59.8762019230769 33.2727272727273  L 20.9771634615385 38.5582386363636  C 21.3000801282051 40.2911931818182  21.4615384615385 41.3020833333333  21.4615384615385 41.5909090909091  C 21.4615384615385 42.0530303030303  21.1634615384615 42.9772727272727  20.5673076923077 44  L 54.8461538461538 44  C 55.4919871794872 44.3636363636364  56.0508814102564 44.6380208333333  56.5228365384615 45.1867897727273  C 56.9947916666667 45.7355587121212  57.2307692307692 46.3854166666667  57.2307692307692 47.1363636363636  C 57.2307692307692 47.8873106060606  56.9947916666667 48.5371685606061  56.5228365384615 49.0859375  C 56.0508814102564 49.6347064393939  55.4919871794872 49.9090909090909  54.8461538461538 50  L 16.6923076923077 50  C 16.0464743589744 49.9090909090909  15.4875801282051 49.6347064393939  15.015625 49.0859375  C 14.5436698717949 48.5371685606061  14.3076923076923 47.8873106060606  14.3076923076923 47.1363636363636  C 14.3076923076923 46.8186553030303  14.4070512820513 46.3637547348485  14.6057692307692 45.7716619318182  C 14.8044871794872 45.1795691287879  15.0032051282051 44.6596827651515  15.2019230769231 44.2120028409091  C 15.400641025641 43.7643229166667  15.6676682692308 43.1866714015152  16.0030048076923 42.4790482954545  C 16.3383413461538 41.7714251893939  16.5308493589744 41.3454071969697  16.5805288461538 41.2009943181818  L 9.98557692307692 5.54545454545455  L 2.38461538461538 5.54545454545455  C 1.73878205128205 5.54545454545455  1.17988782051282 5.27107007575757  0.707932692307692 4.72230113636363  C 0.235977564102564 4.17353219696969  0 3.52367424242424  0 2.77272727272727  C 0 2.0217803030303  0.235977564102564 1.37192234848484  0.707932692307692 0.823153409090912  C 1.17988782051282 0.274384469696964  1.73878205128205 0  2.38461538461538 0  L 11.9230769230769 0  C 12.3205128205128 0  12.6744791666667 0.0938683712121171  12.9849759615385 0.281605113636365  C 13.2954727564103 0.469341856060606  13.5376602564103 0.693181818181818  13.7115384615385 0.953125  C 13.8854166666667 1.21306818181818  14.046875 1.56687973484848  14.1959134615385 2.01455965909091  C 14.3449519230769 2.46223958333333  14.4443108974359 2.83771306818182  14.4939903846154 3.14098011363637  C 14.5436698717949 3.44424715909091  14.6119791666667 3.87026515151515  14.6989182692308 4.41903409090909  C 14.7858573717949 4.96780303030302  14.8417467948718 5.34327651515151  14.8665865384615 6  L 59.6153846153846 6  C 60.261217948718 5.54545454545455  60.8201121794872 5.81983901515151  61.2920673076923 6.36860795454545  Z " fill-rule="nonzero" fill="#434343" stroke="none" transform="matrix(1 0 0 1 937 181 )" />
  </g>
</svg>