<?xml version="1.0" encoding="utf-8"?>
<svg version="1.1" xmlns:xlink="http://www.w3.org/1999/xlink" width="48px" height="45px" xmlns="http://www.w3.org/2000/svg">
  <g transform="matrix(1 0 0 1 -201 -2151 )">
    <path d="M 47.4910714285714 14.934375  C 47.8303571428571 15.290625  48 15.7125  48 16.2  C 48 16.6875  47.8303571428571 17.109375  47.4910714285714 17.465625  L 33.7767857142857 31.865625  C 33.4375 32.221875  33.0357142857143 32.4  32.5714285714286 32.4  C 32.1071428571429 32.4  31.7053571428571 32.221875  31.3660714285714 31.865625  C 31.0267857142857 31.509375  30.8571428571429 31.0875  30.8571428571429 30.6  L 30.8571428571429 23.4  L 24.8571428571429 23.4  C 23.1071428571429 23.4  21.5401785714286 23.45625  20.15625 23.56875  C 18.7723214285714 23.68125  17.3973214285714 23.8828125  16.03125 24.1734375  C 14.6651785714286 24.4640625  13.4776785714286 24.8625  12.46875 25.36875  C 11.4598214285714 25.875  10.5178571428571 26.5265625  9.64285714285714 27.3234375  C 8.76785714285714 28.1203125  8.05357142857143 29.0671875  7.5 30.1640625  C 6.94642857142857 31.2609375  6.51339285714286 32.559375  6.20089285714286 34.059375  C 5.88839285714286 35.559375  5.73214285714286 37.25625  5.73214285714286 39.15  C 5.73214285714286 40.18125  5.77678571428572 41.334375  5.86607142857143 42.609375  C 5.86607142857143 42.721875  5.88839285714286 42.9421875  5.93303571428571 43.2703125  C 5.97767857142857 43.5984375  6 43.846875  6 44.015625  C 6 44.296875  5.92410714285714 44.53125  5.77232142857143 44.71875  C 5.62053571428572 44.90625  5.41071428571429 45  5.14285714285714 45  C 4.85714285714286 45  4.60714285714286 44.840625  4.39285714285714 44.521875  C 4.26785714285714 44.353125  4.15178571428571 44.146875  4.04464285714286 43.903125  C 3.9375 43.659375  3.81696428571429 43.378125  3.68303571428571 43.059375  C 3.54910714285714 42.740625  3.45535714285714 42.515625  3.40178571428571 42.384375  C 1.13392857142857 37.040625  0 32.8125  0 29.7  C 0 25.96875  0.473214285714286 22.846875  1.41964285714286 20.334375  C 4.3125 12.778125  12.125 9  24.8571428571429 9  L 30.8571428571429 9  L 30.8571428571429 1.8  C 30.8571428571429 1.3125  31.0267857142857 0.890624999999994  31.3660714285714 0.534374999999999  C 31.7053571428571 0.178124999999998  32.1071428571429 0  32.5714285714286 0  C 33.0357142857143 0  33.4375 0.178124999999998  33.7767857142857 0.534374999999999  L 47.4910714285714 14.934375  Z " fill-rule="nonzero" fill="#434343" stroke="none" transform="matrix(1 0 0 1 201 2151 )" />
  </g>
</svg>