<?xml version="1.0" encoding="utf-8"?>
<svg version="1.1" xmlns:xlink="http://www.w3.org/1999/xlink" width="101px" height="101px" xmlns="http://www.w3.org/2000/svg">
  <defs>
    <path d="M 0 0  L 1024 0  L 1024 1024  L 0 1024  Z " fill-rule="evenodd" fill="black" id="path79" />
    <clipPath id="clip80">
      <use xlink:href="#path79" />
    </clipPath>
    <filter x="-50.00%" y="-50.00%" width="200.00%" height="200.00%" filterUnits="objectBoundingBox" id="filter81">
      <feColorMatrix type="matrix" values="1 0 0 0 0  0 1 0 0 0  0 0 1 0 0  0 0 0 1 0  " in="SourceGraphic" />
    </filter>
  </defs>
  <g transform="matrix(1 0 0 1 -262 -1577 )">
    <g transform="matrix(0.0986328125 0 0 0.0986328125 262 1577 )" clip-path="url(#clip80)" filter="url(#filter81)">
      <path d="M508 704c79.5 0 144-64.5 144-144s-64.5-144-144-144-144 64.5-144 144 64.5 144 144 144z m0-224c44.2 0 80 35.8 80 80s-35.8 80-80 80-80-35.8-80-80 35.8-80 80-80z" p-id="9031" fill="#595959"></path>
      <path d="M832 256h-28.1l-35.7-120.9c-4-13.7-16.5-23.1-30.7-23.1h-451c-14.3 0-26.8 9.4-30.7 23.1L220.1 256H192c-17.7 0-32 14.3-32 32v28c0 4.4 3.6 8 8 8h45.8l47.7 558.7c1.4 16.6 15.3 29.3 31.9 29.3h429.2c16.6 0 30.5-12.7 31.9-29.3L802.2 324H856c4.4 0 8-3.6 8-8v-28c0-17.7-14.3-32-32-32z m-518.6-76h397.2l22.4 76H291l22.4-76z m376.2 664H326.4L282 324h451.9l-44.3 520z" p-id="9032" fill="#595959"></path>
    </g>
  </g>
</svg>