<?xml version="1.0" encoding="utf-8"?>
<svg version="1.1" xmlns:xlink="http://www.w3.org/1999/xlink" width="101px" height="101px" xmlns="http://www.w3.org/2000/svg">
  <defs>
    <path d="M 0 0  L 1024 0  L 1024 1024  L 0 1024  Z " fill-rule="evenodd" fill="black" id="path73" />
    <clipPath id="clip74">
      <use xlink:href="#path73" />
    </clipPath>
    <filter x="-50.00%" y="-50.00%" width="200.00%" height="200.00%" filterUnits="objectBoundingBox" id="filter75">
      <feColorMatrix type="matrix" values="1 0 0 0 0  0 1 0 0 0  0 0 1 0 0  0 0 0 1 0  " in="SourceGraphic" />
    </filter>
  </defs>
  <g transform="matrix(1 0 0 1 -612 -949 )">
    <g transform="matrix(0.0986328125 0 0 0.0986328125 612 949 )" clip-path="url(#clip74)" filter="url(#filter75)">
      <path d="M880 112H144c-17.7 0-32 14.3-32 32v736c0 17.7 14.3 32 32 32h736c17.7 0 32-14.3 32-32V144c0-17.7-14.3-32-32-32z m-40 464H528V448h312v128z m0 264H184V184h656v200H496c-17.7 0-32 14.3-32 32v192c0 17.7 14.3 32 32 32h344v200z" p-id="8639" fill="#595959"></path>
      <path d="M620 512m-40 0a40 40 0 1 0 80 0 40 40 0 1 0-80 0Z" p-id="8640" fill="#595959"></path>
    </g>
  </g>
</svg>