<?xml version="1.0" encoding="utf-8"?>
<svg version="1.1" xmlns:xlink="http://www.w3.org/1999/xlink" width="101px" height="101px" xmlns="http://www.w3.org/2000/svg">
  <defs>
    <path d="M 0 0  L 1024 0  L 1024 1024  L 0 1024  Z " fill-rule="evenodd" fill="black" id="path76" />
    <clipPath id="clip77">
      <use xlink:href="#path76" />
    </clipPath>
    <filter x="-50.00%" y="-50.00%" width="200.00%" height="200.00%" filterUnits="objectBoundingBox" id="filter78">
      <feColorMatrix type="matrix" values="1 0 0 0 0  0 1 0 0 0  0 0 1 0 0  0 0 0 1 0  " in="SourceGraphic" />
    </filter>
  </defs>
  <g transform="matrix(1 0 0 1 -262 -949 )">
    <g transform="matrix(0.0986328125 0 0 0.0986328125 262 949 )" clip-path="url(#clip77)" filter="url(#filter78)">
      <path d="M433.1 657.7c12.7 17.7 39 17.7 51.7 0l210.6-292c3.8-5.3 0-12.7-6.5-12.7H642c-10.2 0-19.9 4.9-25.9 13.3L459 584.3l-71.2-98.8c-6-8.3-15.6-13.3-25.9-13.3H315c-6.5 0-10.3 7.4-6.5 12.7l124.6 172.8z" p-id="8835" fill="#595959"></path>
      <path d="M880 112H144c-17.7 0-32 14.3-32 32v736c0 17.7 14.3 32 32 32h736c17.7 0 32-14.3 32-32V144c0-17.7-14.3-32-32-32z m-40 728H184V184h656v656z" p-id="8836" fill="#595959"></path>
    </g>
  </g>
</svg>