<?xml version="1.0" encoding="utf-8"?>
<svg version="1.1" xmlns:xlink="http://www.w3.org/1999/xlink" width="100px" height="79px" xmlns="http://www.w3.org/2000/svg">
  <g transform="matrix(1 0 0 1 -643 -86 )">
    <path d="M 36.1778846153846 66.7684659090909  C 37.7003205128205 68.1898674242424  38.4615384615385 69.8731060606061  38.4615384615385 71.8181818181818  C 38.4615384615385 73.7632575757576  37.7003205128205 75.4464962121212  36.1778846153846 76.8678977272727  C 34.6554487179487 78.2892992424242  32.8525641025641 79  30.7692307692308 79  C 28.6858974358974 79  26.8830128205128 78.2892992424242  25.3605769230769 76.8678977272727  C 23.838141025641 75.4464962121212  23.0769230769231 73.7632575757576  23.0769230769231 71.8181818181818  C 23.0769230769231 69.8731060606061  23.838141025641 68.1898674242424  25.3605769230769 66.7684659090909  C 26.8830128205128 65.3470643939394  28.6858974358974 64.6363636363636  30.7692307692308 64.6363636363636  C 32.8525641025641 64.6363636363636  34.6554487179487 65.3470643939394  36.1778846153846 66.7684659090909  Z M 90.0240384615385 66.7684659090909  C 91.5464743589744 68.1898674242424  92.3076923076923 69.8731060606061  92.3076923076923 71.8181818181818  C 92.3076923076923 73.7632575757576  91.5464743589744 75.4464962121212  90.0240384615385 76.8678977272727  C 88.5016025641026 78.2892992424242  86.698717948718 79  84.6153846153846 79  C 82.5320512820513 79  80.7291666666667 78.2892992424242  79.2067307692308 76.8678977272727  C 77.6842948717949 75.4464962121212  76.9230769230769 73.7632575757576  76.9230769230769 71.8181818181818  C 76.9230769230769 69.8731060606061  77.6842948717949 68.1898674242424  79.2067307692308 66.7684659090909  C 80.7291666666667 65.3470643939394  82.5320512820513 64.6363636363636  84.6153846153846 64.6363636363636  C 86.698717948718 64.6363636363636  88.5016025641026 65.3470643939394  90.0240384615385 66.7684659090909  Z M 98.8581730769231 8.24786931818182  C 99.619391025641 8.95857007575757  100 9.80018939393938  100 10.7727272727273  L 100 39.5  C 100 40.3977272727273  99.6694711538462 41.1925899621212  99.0084134615385 41.8845880681818  C 98.3473557692308 42.5765861742424  97.5360576923077 42.9786931818182  96.5745192307692 43.0909090909091  L 33.8341346153846 49.9360795454545  C 34.3549679487179 52.1803977272727  34.6153846153846 53.4895833333333  34.6153846153846 53.8636363636364  C 34.6153846153846 54.4621212121212  34.1346153846154 55.6590909090909  33.1730769230769 57  L 88.4615384615385 57  C 89.5032051282051 57.4545454545455  90.4046474358974 57.8098958333333  91.1658653846154 58.5205965909091  C 91.9270833333333 59.2312973484849  92.3076923076923 60.0729166666667  92.3076923076923 61.0454545454545  C 92.3076923076923 62.0179924242424  91.9270833333333 62.8596117424242  91.1658653846154 63.5703125  C 90.4046474358974 64.2810132575758  89.5032051282051 64.6363636363636  88.4615384615385 64  L 26.9230769230769 64  C 25.8814102564103 64.6363636363636  24.9799679487179 64.2810132575758  24.21875 63.5703125  C 23.4575320512821 62.8596117424242  23.0769230769231 62.0179924242424  23.0769230769231 61.0454545454545  C 23.0769230769231 60.6339962121212  23.2371794871795 60.0448626893939  23.5576923076923 59.2780539772727  C 23.8782051282051 58.5112452651515  24.1987179487179 57.8379498106061  24.5192307692308 57.2581676136364  C 24.8397435897436 56.6783854166667  25.2704326923077 55.9302793560606  25.8112980769231 55.0138494318182  C 26.3521634615385 54.0974195075757  26.6626602564103 53.5456912878788  26.7427884615385 53.3586647727273  L 16.1057692307692 8  L 3.84615384615385 8  C 2.80448717948718 7.18181818181818  1.90304487179487 6.8264678030303  1.14182692307692 6.11576704545454  C 0.380608974358974 5.40506628787878  0 4.56344696969697  0 3.59090909090909  C 0 2.61837121212121  0.380608974358974 1.77675189393938  1.14182692307692 1.06605113636364  C 1.90304487179487 0.355350378787871  2.80448717948718 0  3.84615384615385 0  L 19.2307692307692 0  C 19.8717948717949 0  20.4427083333333 0.12156723484848  20.9435096153846 0.364701704545456  C 21.4443108974359 0.607836174242424  21.8349358974359 0.897727272727272  22.1153846153846 1.234375  C 22.3958333333333 1.57102272727273  22.65625 2.02923768939393  22.8966346153846 2.60901988636364  C 23.1370192307692 3.18880208333333  23.2972756410256 3.67507102272727  23.3774038461538 4.06782670454546  C 23.4575320512821 4.46058238636364  23.5677083333333 5.0123106060606  23.7079326923077 5.72301136363636  C 23.8481570512821 6.43371212121211  23.9383012820513 6.91998106060606  23.9783653846154 8  L 96.1538461538462 8  C 97.1955128205128 7.18181818181818  98.0969551282051 7.53716856060606  98.8581730769231 8.24786931818182  Z " fill-rule="nonzero" fill="#fa541c" stroke="none" transform="matrix(1 0 0 1 643 86 )" />
  </g>
</svg>