<?xml version="1.0" encoding="utf-8"?>
<svg version="1.1" xmlns:xlink="http://www.w3.org/1999/xlink" width="150px" height="142px" xmlns="http://www.w3.org/2000/svg">
  <g transform="matrix(1 0 0 1 -493 -742 )">
    <path d="M 37.353515625 9.52213541666666  C 48.8444010416667 3.17404513888888  61.3932291666667 0  75 0  C 88.6067708333333 0  101.155598958333 3.17404513888888  112.646484375 9.52213541666666  C 124.137369791667 15.8702256944444  133.235677083333 24.4832899305556  139.94140625 35.361328125  C 146.647135416667 46.2393663194444  150 58.1189236111111  150 71  C 150 83.8810763888889  146.647135416667 95.7606336805555  139.94140625 106.638671875  C 133.235677083333 117.516710069444  124.137369791667 126.129774305556  112.646484375 132.477864583333  C 101.155598958333 138.825954861111  88.6067708333333 142  75 142  C 61.3932291666667 142  48.8444010416667 138.825954861111  37.353515625 132.477864583333  C 25.8626302083333 126.129774305556  16.7643229166667 117.516710069444  10.05859375 106.638671875  C 3.35286458333333 95.7606336805555  0 83.8810763888889  0 71  C 0 58.1189236111111  3.35286458333333 46.2393663194444  10.05859375 35.361328125  C 16.7643229166667 24.4832899305556  25.8626302083333 15.8702256944444  37.353515625 9.52213541666666  Z M 59.375 105.66796875  L 112.5 76.0846354166667  C 114.583333333333 74.9752604166667  115.625 73.2803819444444  115.625 71  C 115.625 68.7196180555556  114.583333333333 67.0247395833333  112.5 65.9153645833333  L 59.375 36.33203125  C 57.3567708333333 35.1610243055556  55.2734375 35.1302083333333  53.125 36.2395833333333  C 51.0416666666667 37.4105902777778  50 39.1362847222222  50 41.4166666666667  L 50 100.583333333333  C 50 102.863715277778  51.0416666666667 104.589409722222  53.125 105.760416666667  C 54.1666666666667 106.253472222222  55.2083333333333 106.5  56.25 106.5  C 57.3567708333333 106.5  58.3984375 106.22265625  59.375 105.66796875  Z " fill-rule="nonzero" fill="#f89d81" stroke="none" transform="matrix(1 0 0 1 493 742 )" />
  </g>
</svg>