<?xml version="1.0" encoding="utf-8"?>
<svg version="1.1" xmlns:xlink="http://www.w3.org/1999/xlink" width="60px" height="62px" xmlns="http://www.w3.org/2000/svg">
  <g transform="matrix(1 0 0 1 -949 -331 )">
    <path d="M 9.2578125 51.7536057692308  C 9.75260416666667 51.2816506410256  10 50.7227564102564  10 50.0769230769231  C 10 49.4310897435897  9.75260416666667 48.8721955128205  9.2578125 48.4002403846154  C 8.76302083333333 47.9282852564103  8.17708333333333 47.6923076923077  7.5 47.6923076923077  C 6.82291666666667 47.6923076923077  6.23697916666667 47.9282852564103  5.7421875 48.4002403846154  C 5.24739583333333 48.8721955128205  5 49.4310897435897  5 50.0769230769231  C 5 50.7227564102564  5.24739583333333 51.2816506410256  5.7421875 51.7536057692308  C 6.23697916666667 52.2255608974359  6.82291666666667 52.4615384615385  7.5 52.4615384615385  C 8.17708333333333 52.4615384615385  8.76302083333333 52.2255608974359  9.2578125 51.7536057692308  Z M 54.16015625 31.6334134615385  C 54.7200520833333 30.4907852564103  55 29.4847756410256  55 28.6153846153846  C 55 27.3485576923077  54.4921875 26.2369791666667  53.4765625 25.2806490384615  C 52.4609375 24.3243189102564  51.3020833333333 23.8461538461538  50 24  L 36.25 24  C 36.25 22.4054487179487  36.875 20.4244791666667  38.125 17.9032451923077  C 39.375 15.3820112179487  40 13.3886217948718  40 11.9230769230769  C 40 9.48878205128205  39.5833333333333 7.68790064102564  38.75 6.5204326923077  C 37.9166666666667 5.35296474358974  36.25 4.76923076923077  33.75 4.76923076923077  C 33.0729166666667 5.4150641025641  32.578125 6.4707532051282  32.265625 7.93629807692308  C 31.953125 9.40184294871795  31.5559895833333 10.9605368589744  31.07421875 12.6123798076923  C 30.5924479166667 14.2642227564103  29.8177083333333 15.6241987179487  28.75 16.6923076923077  C 28.1770833333333 17.2636217948718  27.1744791666667 18.3938301282051  25.7421875 20.0829326923077  C 25.6380208333333 20.2071314102564  25.3385416666667 20.5797275641026  24.84375 21.2007211538462  C 24.3489583333333 21.8217147435897  23.9388020833333 22.3309294871795  23.61328125 22.7283653846154  C 23.2877604166667 23.1258012820513  22.8385416666667 23.6536458333333  22.265625 24.3118990384615  C 21.6927083333333 24.9701522435897  21.171875 25.5166266025641  20.703125 25.9513221153846  C 20.234375 26.3860176282051  19.7330729166667 26.8269230769231  19.19921875 27.2740384615385  C 18.6653645833333 27.7211538461538  18.14453125 28.0564903846154  17.63671875 28.2800480769231  C 17.12890625 28.5036057692308  16.6666666666667 28.6153846153846  16.25 28.6153846153846  L 15 28.6153846153846  L 15 52.4615384615385  L 16.25 52.4615384615385  C 16.5885416666667 52.4615384615385  16.9986979166667 52.4987980769231  17.48046875 52.5733173076923  C 17.9622395833333 52.6478365384615  18.3919270833333 52.7285657051282  18.76953125 52.8155048076923  C 19.1471354166667 52.9024439102564  19.6419270833333 53.0390625  20.25390625 53.2253605769231  C 20.8658854166667 53.4116586538462  21.3216145833333 53.5544871794872  21.62109375 53.6538461538462  C 21.9205729166667 53.7532051282051  22.3828125 53.908453525641  23.0078125 54.1195913461538  C 23.6328125 54.3307291666667  24.0104166666667 54.4611378205128  24.140625 54.5108173076923  C 29.6354166666667 56.3241185897436  34.0885416666667 57.2307692307692  37.5 57.2307692307692  L 42.2265625 57.2307692307692  C 47.2265625 57.2307692307692  49.7265625 55.1566506410256  49.7265625 51.0084134615385  C 49.7265625 50.3625801282051  49.6614583333333 49.6670673076923  49.53125 48.921875  C 50.3125 48.5244391025641  50.9309895833333 47.8723958333333  51.38671875 46.9657451923077  C 51.8424479166667 46.059094551282  52.0703125 45.146233974359  52.0703125 44.2271634615385  C 52.0703125 43.3080929487179  51.8359375 42.4511217948718  51.3671875 41.65625  C 52.7473958333333 40.4142628205128  53.4375 38.9362980769231  53.4375 37.2223557692308  C 53.4375 36.6013621794872  53.3072916666667 35.9120592948718  53.046875 35.1544471153846  C 52.7864583333333 34.3968349358974  52.4609375 33.806891025641  52.0703125 33.3846153846154  C 52.9036458333333 33.3597756410256  53.6002604166667 32.7760416666667  54.16015625 31.6334134615385  Z M 57.03125 21.9086538461538  C 59.0104166666667 23.7964743589744  60 26.0196314102564  60 28.578125  C 60 30.7888621794872  59.3619791666667 32.8133012820513  58.0859375 34.6514423076923  C 58.3203125 35.4711538461538  58.4375 36.328125  58.4375 37.2223557692308  C 58.4375 39.135016025641  57.9427083333333 40.9234775641026  56.953125 42.5877403846154  C 57.03125 43.109375  57.0703125 43.6434294871795  57.0703125 44.1899038461538  C 57.0703125 46.6987179487179  56.2890625 48.9094551282051  54.7265625 50.8221153846154  C 54.7526041666667 54.2748397435897  53.6458333333333 57.0010016025641  51.40625 59.0006009615385  C 49.1666666666667 61.0002003205128  46.2109375 62  42.5390625 62  L 41.1328125 62  L 37.5 62  C 35 62  32.5325520833333 61.7205528846154  30.09765625 61.1616586538462  C 27.6627604166667 60.6027644230769  24.84375 59.7892628205128  21.640625 58.7211538461538  C 18.6197916666667 57.7275641025641  16.8229166666667 57.2307692307692  16.25 57  L 5 57  C 3.61979166666667 57.2307692307692  2.44140625 56.7650240384615  1.46484375 55.8335336538462  C 0.48828125 54.9020432692308  0 53.7780448717949  0 52.4615384615385  L 0 28.6153846153846  C 0 27.2988782051282  0.48828125 26.1748798076923  1.46484375 25.2433894230769  C 2.44140625 24.3118990384615  3.61979166666667 23.8461538461538  5 24  L 15.703125 24  C 16.640625 23.25  18.4244791666667 21.3249198717949  21.0546875 18.0709134615385  C 22.5651041666667 16.2079326923077  23.9583333333333 14.6181891025641  25.234375 13.3016826923077  C 25.859375 12.6806891025641  26.3216145833333 11.6187900641026  26.62109375 10.1159855769231  C 26.9205729166667 8.61318108974358  27.3177083333333 7.0420673076923  27.8125 5.40264423076923  C 28.3072916666667 3.76322115384616  29.1145833333333 2.421875  30.234375 1.37860576923077  C 31.25 0.45953525641026  32.421875 0  33.75 0  C 35.9375 0  37.9036458333333 0.403645833333338  39.6484375 1.2109375  C 41.3932291666667 2.01822916666666  42.7213541666667 3.27884615384616  43.6328125 4.99278846153846  C 44.5442708333333 6.70673076923077  45 9.01682692307692  45 11.9230769230769  C 45 14.2331730769231  44.375 16.6177884615385  43.125 19.0769230769231  L 50 19.0769230769231  C 52.7083333333333 19.0769230769231  55.0520833333333 20.0208333333333  57.03125 21.9086538461538  Z " fill-rule="nonzero" fill="#fa541c" stroke="none" transform="matrix(1 0 0 1 949 331 )" />
  </g>
</svg>