<?xml version="1.0" encoding="utf-8"?>
<svg version="1.1" xmlns:xlink="http://www.w3.org/1999/xlink" width="279px" height="196px" xmlns="http://www.w3.org/2000/svg">
  <defs>
    <mask fill="white" id="clip200">
      <path d="M 780 1697  C 768.9 1697  760 1688.1  760 1677  L 760 1531  C 760 1519.9  768.9 1511  780 1511  L 1009 1511  C 1020.1 1511  1029 1519.9  1029 1531  L 1029 1677  C 1029 1688.1  1020.1 1697  1009 1697  " fill-rule="evenodd" />
    </mask>
    <filter x="755px" y="1506px" width="279px" height="196px" filterUnits="userSpaceOnUse" id="filter201">
      <feOffset dx="0" dy="0" in="SourceAlpha" result="shadowOffsetInner" />
      <feGaussianBlur stdDeviation="2.5" in="shadowOffsetInner" result="shadowGaussian" />
      <feComposite in2="shadowGaussian" operator="atop" in="SourceAlpha" result="shadowComposite" />
      <feColorMatrix type="matrix" values="0 0 0 0 0  0 0 0 0 0  0 0 0 0 0  0 0 0 0.349019607843137 0  " in="shadowComposite" />
    </filter>
    <g id="widget202">
      <path d="M 760 1511  L 1029 1511  L 1029 1697  L 760 1697  L 760 1511  " fill-rule="nonzero" fill="#cccccc" stroke="none" mask="url(#clip200)" />
      <path d="M 773 1524  L 1016 1524  L 1016 1684  L 773 1684  L 773 1524  " fill-rule="nonzero" fill="#ffffff" stroke="none" mask="url(#clip200)" />
      <path d="M 913.83 1566.8  C 906.018 1566.8  899.88 1560.662  899.88 1552.85  C 899.88 1545.038  906.018 1538.9  913.83 1538.9  C 921.642 1538.9  927.78 1545.038  927.78 1552.85  C 927.78 1560.662  921.642 1566.8  913.83 1566.8  " fill-rule="nonzero" fill="#cccccc" stroke="none" mask="url(#clip200)" />
      <path d="M 778 1680  L 778 1596.95  L 836.5 1559.2  L 918.4 1617.35464684015  L 965.2 1581.85  L 1012 1617.35464684015  L 1012 1680  L 778 1680  " fill-rule="nonzero" fill="#169bd5" stroke="none" mask="url(#clip200)" />
    </g>
  </defs>
  <g transform="matrix(1 0 0 1 -755 -1506 )">
    <use xlink:href="#widget202" filter="url(#filter201)" />
    <use xlink:href="#widget202" />
  </g>
</svg>