<svg t="1624594596769" class="icon" viewBox="0 0 1024 1024" version="1.1" xmlns="http://www.w3.org/2000/svg" p-id="20612" width="200" height="200"><path d="M830.2592 948.224H198.3488a78.9504 78.9504 0 0 1-78.848-78.848V451.9936a78.9504 78.9504 0 0 1 78.848-78.848h631.9104a78.8992 78.8992 0 0 1 78.7968 78.848v417.3824a78.8992 78.8992 0 0 1-78.7968 78.848zM198.3488 407.2448A44.8 44.8 0 0 0 153.6 451.9936v417.3824a44.8 44.8 0 0 0 44.7488 44.7488h631.9104a44.8512 44.8512 0 0 0 44.7488-44.7488V451.9936a44.8512 44.8512 0 0 0-44.7488-44.7488z" fill="#8C8C8C" p-id="20613"></path><path d="M410.2144 401.2544H288.9728A17.1008 17.1008 0 0 1 271.9232 384V302.592a17.0496 17.0496 0 0 1 17.0496-17.0496h121.2416a17.0496 17.0496 0 0 1 17.0496 17.0496V384a17.1008 17.1008 0 0 1-17.0496 17.2544z m-104.192-34.0992h87.04v-47.5136h-87.04zM352.768 879.9232H231.5264a17.0496 17.0496 0 0 1-17.0496-17.0496v-81.6128a17.0496 17.0496 0 0 1 17.0496-17.0496H352.768a17.0496 17.0496 0 0 1 17.0496 17.0496v81.6128a17.0496 17.0496 0 0 1-17.0496 17.0496z m-104.192-34.0992h87.04v-47.5136h-87.04zM638.464 823.296a164.4544 164.4544 0 1 1 164.4032-164.4032 164.6592 164.6592 0 0 1-164.4032 164.4032z m0-294.7584a130.3552 130.3552 0 1 0 130.3552 130.3552 130.5088 130.5088 0 0 0-130.3552-130.3552z" fill="#8C8C8C" p-id="20614"></path><path d="M513.7408 749.6192a17.0496 17.0496 0 0 1-14.0288-26.7264l149.6576-216.576a17.0496 17.0496 0 0 1 28.0576 19.4048L527.7696 742.4a16.9472 16.9472 0 0 1-14.0288 7.2192zM577.2288 802.9184a17.0496 17.0496 0 0 1-14.2336-26.4192l154.1632-234.7008a17.0496 17.0496 0 0 1 28.5184 18.7392l-154.2144 234.6496a16.896 16.896 0 0 1-14.2336 7.7312zM665.6 821.0432a16.9472 16.9472 0 0 1-9.216-2.7136 17.1008 17.1008 0 0 1-5.12-23.552l114.5344-178.0224a17.0496 17.0496 0 0 1 28.672 18.432l-114.5344 178.0224a16.9472 16.9472 0 0 1-14.336 7.8336zM348.928 318.464a16.9984 16.9984 0 0 1-11.6224-29.4912l182.784-170.5984a17.0496 17.0496 0 0 1 23.2448 24.9856l-182.784 170.5472a16.9472 16.9472 0 0 1-11.6224 4.5568z" fill="#8C8C8C" p-id="20615"></path><path d="M542.1568 116.9408m-34.816 0a34.816 34.816 0 1 0 69.632 0 34.816 34.816 0 1 0-69.632 0Z" fill="#8C8C8C" p-id="20616"></path><path d="M427.264 539.5456H225.28a17.0496 17.0496 0 0 1 0-34.0992h201.984a17.0496 17.0496 0 0 1 0 34.0992zM427.264 601.344H225.28a17.0496 17.0496 0 1 1 0-34.0992h201.984a17.0496 17.0496 0 1 1 0 34.0992zM364.5952 663.1424H225.28a17.0496 17.0496 0 1 1 0-34.0992h139.264a17.0496 17.0496 0 1 1 0 34.0992z" fill="#8C8C8C" p-id="20617"></path></svg>