<?xml version="1.0" encoding="utf-8"?>
<svg version="1.1" xmlns:xlink="http://www.w3.org/1999/xlink" width="205px" height="205px" xmlns="http://www.w3.org/2000/svg">
  <defs>
    <filter x="951px" y="1175px" width="205px" height="205px" filterUnits="userSpaceOnUse" id="filter30">
      <feOffset dx="0" dy="0" in="SourceAlpha" result="shadowOffsetInner" />
      <feGaussianBlur stdDeviation="5" in="shadowOffsetInner" result="shadowGaussian" />
      <feComposite in2="shadowGaussian" operator="atop" in="SourceAlpha" result="shadowComposite" />
      <feColorMatrix type="matrix" values="0 0 0 0 0  0 0 0 0 0  0 0 0 0 0  0 0 0 0.349019607843137 0  " in="shadowComposite" />
    </filter>
    <g id="widget31">
      <path d="M 1053.5 1185  C 1105.3 1185  1146 1225.7  1146 1277.5  C 1146 1329.3  1105.3 1370  1053.5 1370  C 1001.7 1370  961 1329.3  961 1277.5  C 961 1225.7  1001.7 1185  1053.5 1185  Z " fill-rule="nonzero" fill="#ffffff" stroke="none" />
      <path d="M 1053.5 1185.5  C 1105.02 1185.5  1145.5 1225.98  1145.5 1277.5  C 1145.5 1329.02  1105.02 1369.5  1053.5 1369.5  C 1001.98 1369.5  961.5 1329.02  961.5 1277.5  C 961.5 1225.98  1001.98 1185.5  1053.5 1185.5  Z " stroke-width="1" stroke="#fa541c" fill="none" />
    </g>
  </defs>
  <g transform="matrix(1 0 0 1 -951 -1175 )">
    <use xlink:href="#widget31" filter="url(#filter30)" />
    <use xlink:href="#widget31" />
  </g>
</svg>