<!-- Generator: Adobe Illustrator 23.0.0, SVG Export Plug-In  -->
<svg version="1.1" xmlns="http://www.w3.org/2000/svg" xmlns:xlink="http://www.w3.org/1999/xlink" x="0px" y="0px"
	 width="117.37px" height="128.97px" viewBox="0 0 117.37 128.97" style="enable-background:new 0 0 117.37 128.97;"
	 xml:space="preserve">
<style type="text/css">
	.st0{fill:#FA541C;}
	.st1{fill:#FEFEFE;}
	.st2{fill:#FFFFFF;}
	.st3{fill:#FDFDFD;}
	.st4{fill:#FCFCFC;}
</style>
<defs>
</defs>
<path class="st0" d="M41.38,29.62c4.11,0.57,4.88,2.89,4.89,6.12C46.28,43,46.39,43,53.74,43c16.32,0,32.64-0.01,48.96,0.01
	c10.21,0.01,14.67,4.43,14.67,14.47c0,19.48,0.02,38.97-0.01,58.45c-0.01,8.1-4.84,13-13.01,13.02c-30.47,0.04-60.95,0.04-91.42,0
	c-8.03-0.01-12.76-4.52-12.82-12.62c-0.14-20.15-0.14-40.3-0.01-60.45C0.16,47.56,4.89,43.19,13.31,43c0.67-0.01,1.33,0,2,0
	c6.97-0.01,7.15-0.02,7.03-7.15c-0.08-4.29,1.49-6.33,5.83-5.84c3.18,0.36,5.62-0.64,7.99-2.94c6.2-6.03,12.63-11.84,19.09-17.6
	c1.66-1.49,1.93-3.22,2.39-5.2c0.59-2.6,2.44-4.34,5.39-4.27c2.72,0.07,4.41,1.75,5.03,4.12c0.72,2.73-0.48,5.26-3.19,5.94
	c-4.89,1.23-7.72,4.98-11.12,8.07C49.81,21.72,45.94,25.37,41.38,29.62z"/>
<path class="st1" d="M58.63,123.21c-15,0-30,0.03-45-0.01c-6.37-0.02-8.25-1.95-8.26-8.39c-0.02-19.17-0.02-38.33,0-57.5
	c0.01-6.65,1.87-8.49,8.67-8.49c29.83-0.02,59.67-0.03,89.5,0c6.6,0.01,8.65,2,8.67,8.67c0.07,19,0.07,38,0,57
	c-0.02,6.92-1.97,8.7-9.08,8.71C88.3,123.22,73.47,123.21,58.63,123.21z"/>
<path class="st1" d="M34.51,35.82c1.16,0.01,2.31,0.05,3.46,0c2.52-0.13,2.42,1.59,2.43,3.31c0.01,1.62-0.13,2.99-2.3,2.92
	c-1.98-0.06-3.97-0.08-5.94,0.02c-2.4,0.12-4.1-0.08-4.02-3.31c0.08-3.02,1.78-3.04,3.89-2.95C32.86,35.84,33.68,35.81,34.51,35.82z
	"/>
<path class="st0" d="M101.52,85.54c0.06,14.07-10.49,24.69-24.49,24.64c-13.47-0.04-24.57-10.99-24.62-24.28
	c-0.05-13.47,11.3-24.87,24.75-24.89C90.46,61.01,101.47,72.09,101.52,85.54z"/>
<path class="st0" d="M25.61,118.93c-12.84-0.16-11.35,1.75-11.42-11.32c-0.03-6.5,0.09-6.57,6.75-6.58c3.98-0.01,7.96,0.02,11.94,0
	c3-0.02,4.78,1.14,4.5,4.43c-0.04,0.49,0,0.99,0,1.49C37.19,120.58,39.26,118.79,25.61,118.93z"/>
<path class="st0" d="M31.36,71.98c4.32,0,8.64,0,12.96-0.01c1.94,0,3.89,0.15,3.92,2.67c0.03,2.27-1.79,2.53-3.53,2.54
	c-9.3,0.02-18.61,0.02-27.91,0c-1.75,0-3.5-0.24-3.39-2.6c0.1-2.18,1.66-2.61,3.5-2.61C21.73,71.99,26.55,71.98,31.36,71.98z"/>
<path class="st0" d="M30.38,68.03c-4.48,0-8.96,0-13.44,0c-1.76,0-3.49-0.18-3.52-2.48c-0.03-2.26,1.61-2.58,3.42-2.58
	c9.29,0.01,18.58,0.01,27.88,0c1.8,0,3.49,0.26,3.54,2.49c0.05,2.25-1.64,2.57-3.44,2.57C40.01,68.03,35.2,68.03,30.38,68.03z"/>
<path class="st0" d="M25.91,81.03c3.32,0,6.64-0.09,9.95,0.04c1.82,0.07,3.33,1.09,3.2,3.05c-0.11,1.65-1.58,2.6-3.17,2.62
	c-6.47,0.08-12.94,0.1-19.4-0.03c-1.73-0.03-3.28-0.9-3.09-3.09c0.19-2.16,1.76-2.59,3.55-2.61c2.99-0.02,5.97-0.01,8.96-0.01
	C25.91,81.01,25.91,81.02,25.91,81.03z"/>
<path class="st2" d="M83.91,67.98c1.73,0.72,4.5,0.81,2.07,4.38C80,81.13,74.27,90.08,68.47,98.97c-0.99,1.52-1.9,2.83-3.86,1.21
	c-1.6-1.32-3.29-2.61-1.69-4.93C68.93,86.5,75,77.78,81.03,69.05C81.66,68.14,82.46,67.69,83.91,67.98z"/>
<path class="st3" d="M91.56,73.82c3.93,3.68,4.06,6.76,1.12,10.71c-4.13,5.56-7.67,11.58-11.32,17.48
	c-1.25,2.02-2.62,3.31-5.15,2.98c-1.31-0.17-2.86,0.07-3.53-1.3c-0.6-1.22,0.65-2.09,1.25-3.02C79.71,91.83,85.52,83.01,91.56,73.82
	z"/>
<path class="st3" d="M59.06,91.2c-2.48-13.17,4.26-23.06,16.66-24.13C70.03,75.32,64.74,82.98,59.06,91.2z"/>
<path class="st4" d="M25.59,113.08c-1.16,0-2.33-0.08-3.48,0.02c-2.26,0.18-2.83-1-2.77-3.01c0.05-1.79,0.04-3.34,2.53-3.24
	c2.48,0.1,4.98,0.09,7.47-0.01c2.21-0.09,2.82,0.97,2.86,3.01c0.04,2.29-0.69,3.45-3.12,3.25
	C27.92,113.01,26.75,113.09,25.59,113.08z"/>
</svg>
