<?xml version="1.0" encoding="utf-8"?>
<svg version="1.1" xmlns:xlink="http://www.w3.org/1999/xlink" width="177px" height="177px" xmlns="http://www.w3.org/2000/svg">
  <g transform="matrix(1 0 0 1 -59 -81 )">
    <path d="M 147.5 81  C 197.06 81  236 119.94  236 169.5  C 236 219.06  197.06 258  147.5 258  C 97.94 258  59 219.06  59 169.5  C 59 119.94  97.94 81  147.5 81  Z " fill-rule="nonzero" fill="#ffffff" stroke="none" />
    <path d="M 147.5 81.5  C 196.78 81.5  235.5 120.22  235.5 169.5  C 235.5 218.78  196.78 257.5  147.5 257.5  C 98.22 257.5  59.5 218.78  59.5 169.5  C 59.5 120.22  98.22 81.5  147.5 81.5  Z " stroke-width="1" stroke="#797979" fill="none" />
  </g>
</svg>