<?xml version="1.0" encoding="utf-8"?>
<svg version="1.1" xmlns:xlink="http://www.w3.org/1999/xlink" width="228px" height="228px" xmlns="http://www.w3.org/2000/svg">
  <g transform="matrix(1 0 0 1 -581 -2152 )">
    <path d="M 695 2153  C 758.28 2153  808 2202.72  808 2266  C 808 2329.28  758.28 2379  695 2379  C 631.72 2379  582 2329.28  582 2266  C 582 2202.72  631.72 2153  695 2153  Z " fill-rule="nonzero" fill="#ffffff" stroke="none" />
    <path d="M 695 2153  C 758.28 2153  808 2202.72  808 2266  C 808 2329.28  758.28 2379  695 2379  C 631.72 2379  582 2329.28  582 2266  C 582 2202.72  631.72 2153  695 2153  Z " stroke-width="2" stroke="#fa541c" fill="none" />
  </g>
</svg>