<?xml version="1.0" encoding="utf-8"?>
<svg version="1.1" xmlns:xlink="http://www.w3.org/1999/xlink" width="91px" height="127px" xmlns="http://www.w3.org/2000/svg">
  <g transform="matrix(1 0 0 1 -650 -2203 )">
    <path d="M 89.4991319444444 50.2962740384615  C 90.4997106481482 51.2630208333333  91 52.4078525641025  91 53.7307692307692  L 91 63.5  C 91 74.7447916666667  87.1161747685185 84.5267427884615  79.3485243055556 92.8458533653846  C 71.5808738425926 101.164963942308  61.9832175925926 105.935096153846  50 107.15625  L 50 117  L 70.7777777777778 117  C 72.1469907407407 117.230769230769  73.3318865740741 117.714142628205  74.3324652777778 118.680889423077  C 75.3330439814815 119.647636217949  75.8333333333333 120.792467948718  75.8333333333333 122.115384615385  C 75.8333333333333 123.438301282051  75.3330439814815 124.58313301282  74.3324652777778 125.549879807692  C 73.3318865740741 126.516626602564  72.1469907407407 127  70.7777777777778 127  L 20.2222222222222 127  C 18.8530092592593 127  17.6681134259259 126.516626602564  16.6675347222222 125.549879807692  C 15.6669560185185 124.58313301282  15.1666666666667 123.438301282051  15.1666666666667 122.115384615385  C 15.1666666666667 120.792467948718  15.6669560185185 119.647636217949  16.6675347222222 118.680889423077  C 17.6681134259259 117.714142628205  18.8530092592593 117.230769230769  20.2222222222222 117  L 40.4444444444444 117  L 40.4444444444444 107.15625  C 29.0167824074074 105.935096153846  19.4191261574074 101.164963942308  11.6514756944444 92.8458533653846  C 3.88382523148148 84.5267427884615  0 74.7447916666667  0 63.5  L 0 53.7307692307692  C 0 52.4078525641025  0.500289351851852 51.2630208333333  1.50086805555556 50.2962740384615  C 2.50144675925926 49.3295272435897  3.68634259259259 48.8461538461538  5.05555555555556 48.8461538461538  C 6.42476851851852 48.8461538461538  7.60966435185185 49.3295272435897  8.61024305555556 50.2962740384615  C 9.61082175925926 51.2630208333333  10.1111111111111 52.4078525641025  10.1111111111111 53.7307692307692  L 10.1111111111111 63.5  C 10.1111111111111 72.9130608974359  13.5736400462963 80.9650440705128  20.4986979166667 87.6559495192308  C 27.423755787037 94.3468549679487  35.7575231481482 97.6923076923077  45.5 97.6923076923077  C 55.2424768518519 97.6923076923077  63.576244212963 94.3468549679487  70.5013020833333 87.6559495192308  C 77.4263599537037 80.9650440705128  80.8888888888889 72.9130608974359  80.8888888888889 63.5  L 80.8888888888889 53.7307692307692  C 80.8888888888889 52.4078525641025  81.3891782407407 51.2630208333333  82.3897569444444 50.2962740384615  C 83.3903356481482 49.3295272435897  84.5752314814815 48.8461538461538  85.9444444444444 48.8461538461538  C 87.3136574074074 48.8461538461538  88.4985532407407 49.3295272435897  89.4991319444444 50.2962740384615  Z M 63.3524305555556 7.17427884615384  C 68.302662037037 11.9571314102564  70.7777777777778 17.7067307692308  70 24.4230769230769  L 70 63.5  C 70.7777777777778 70.2163461538462  68.302662037037 75.9659455128205  63.3524305555556 80.7487980769231  C 58.4021990740741 85.5316506410256  52.4513888888889 87.9230769230769  45.5 87.9230769230769  C 38.5486111111111 87.9230769230769  32.5978009259259 85.5316506410256  27.6475694444444 80.7487980769231  C 22.697337962963 75.9659455128205  20.2222222222222 70.2163461538462  21 63.5  L 21 24.4230769230769  C 20.2222222222222 17.7067307692308  22.697337962963 11.9571314102564  27.6475694444444 7.17427884615384  C 32.5978009259259 2.39142628205129  38.5486111111111 0  45.5 0  C 52.4513888888889 0  58.4021990740741 2.39142628205129  63.3524305555556 7.17427884615384  Z " fill-rule="nonzero" fill="#fa541c" stroke="none" transform="matrix(1 0 0 1 650 2203 )" />
  </g>
</svg>