<?xml version="1.0" encoding="utf-8"?>
<svg version="1.1" xmlns:xlink="http://www.w3.org/1999/xlink" width="104px" height="82px" xmlns="http://www.w3.org/2000/svg">
  <g transform="matrix(1 0 0 1 -207 -2216 )">
    <path d="M 89.0508054522924 46.8480124707716  C 89.0937629078893 46.9332294102364  89.1152416356877 47.0610548194336  89 47.2314886983632  L 89 77.9095869056898  C 89.1152416356877 79.0174071187321  88.7071458075176 79.9760976877111  87.8909541511772 80.7856586126266  C 87.0747624948368 81.5952195375422  86.1082197439075 82  84.9913258983891 82  L 60 82  L 60 57  L 44 57  L 44 82  L 19.0086741016109 82  C 17.8917802560925 82  16.9252375051632 81.5952195375422  16.1090458488228 80.7856586126266  C 15.2928541924824 79.9760976877111  14.8847583643123 79.0174071187321  15 77.9095869056898  L 15 47.2314886983632  C 14.8847583643123 47.1888802286308  14.8954977282115 47.1249675240322  14.9169764560099 47.0397505845674  C 14.9384551838083 46.9545336451026  14.9491945477076 46.890620940504  14.9491945477076 46.8480124707716  L 52 16.5533904910366  L 89.0508054522924 46.8480124707716  Z M 103.935563816605 41.319563522993  C 103.978521272202 41.8947778643804  103.828170177613 42.395427383736  103.484510532838 42.82151208106  L 99.4894671623296 47.5510522213562  C 99.1458075175547 47.9345284489478  98.6947542337877 48.168875032476  98.1363073110285 48.2540919719408  L 97.9429987608426 48.2540919719408  C 97.3845518380834 48.2540919719408  96.9334985543164 48.1049623278774  96.5898389095415 47.8067030397506  L 52 10.9290724863601  L 7.41016109045849 47.8067030397506  C 6.89467162329616 48.1475707976098  6.37918215613383 48.2967004416732  5.8636926889715 48.2540919719408  C 5.30524576621231 48.168875032476  4.85419248244527 47.9345284489478  4.51053283767038 47.5510522213562  L 0.51548946716233 42.82151208106  C 0.171829822387443 42.395427383736  0.0214787277984306 41.8947778643804  0.0644361833952912 41.319563522993  C 0.107393638992152 40.7443491816056  0.343659644774887 40.2863081319823  0.773234200743494 39.9454403741232  L 47.1028500619579 1.66173031956353  C 48.4774886410574 0.553910106521166  50.1098719537381 0  52 0  C 53.8901280462619 0  55.5225113589426 0.553910106521166  56.8971499380421 1.66173031956353  L 72 14.6999220576773  L 72 2.23694466095089  C 72.6195786864932 1.64042608469732  72.8128872366791 1.15042868277474  73.1995043370508 0.766952455183168  C 73.5861214374225 0.383476227591584  74.0801321767864 0.191738113795792  74.6815365551425 1  L 87.0532837670384 1  C 87.6546881453945 0.191738113795792  88.1486988847584 0.383476227591584  88.5353159851301 0.766952455183168  C 88.9219330855019 1.15042868277474  89.1152416356877 1.64042608469732  89 2.23694466095089  L 89 28.3133281371785  L 103.226765799256 39.9454403741232  C 103.656340355225 40.2863081319823  103.892606361008 40.7443491816056  103.935563816605 41.319563522993  Z " fill-rule="nonzero" fill="#555555" stroke="none" transform="matrix(1 0 0 1 207 2216 )" />
  </g>
</svg>