<?xml version="1.0" encoding="utf-8"?>
<svg version="1.1" xmlns:xlink="http://www.w3.org/1999/xlink" width="99px" height="99px" xmlns="http://www.w3.org/2000/svg">
  <g transform="matrix(1 0 0 1 -400 -2209 )">
    <path d="M 72.83203125 57.9111328125  C 73.34765625 58.9208984375  73.43359375 59.962890625  73.08984375 61.037109375  C 71.5 66.236328125  68.53515625 70.42578125  64.1953125 73.60546875  C 59.85546875 76.78515625  54.95703125 78.375  49.5 78.375  C 44.04296875 78.375  39.14453125 76.78515625  34.8046875 73.60546875  C 30.46484375 70.42578125  27.5 66.236328125  25.91015625 61.037109375  C 25.56640625 59.962890625  25.65234375 58.9208984375  26.16796875 57.9111328125  C 26.68359375 56.9013671875  27.5 56.224609375  28.6171875 55.880859375  C 29.69140625 55.537109375  30.7333984375 55.623046875  31.7431640625 56.138671875  C 32.7529296875 56.654296875  33.4296875 57.470703125  33.7734375 58.587890625  C 34.84765625 62.025390625  36.8349609375 64.8076171875  39.7353515625 66.9345703125  C 42.6357421875 69.0615234375  45.890625 70.125  49.5 70.125  C 53.109375 70.125  56.3642578125 69.0615234375  59.2646484375 66.9345703125  C 62.1650390625 64.8076171875  64.15234375 62.025390625  65.2265625 58.587890625  C 65.5703125 57.470703125  66.2578125 56.654296875  67.2890625 56.138671875  C 68.3203125 55.623046875  69.373046875 55.537109375  70.447265625 55.880859375  C 71.521484375 56.224609375  72.31640625 56.9013671875  72.83203125 57.9111328125  Z M 38.8330078125 27.1669921875  C 40.4443359375 28.7783203125  41.25 30.72265625  41.25 33  C 41.25 35.27734375  40.4443359375 37.2216796875  38.8330078125 38.8330078125  C 37.2216796875 40.4443359375  35.27734375 41.25  33 41.25  C 30.72265625 41.25  28.7783203125 40.4443359375  27.1669921875 38.8330078125  C 25.5556640625 37.2216796875  24.75 35.27734375  24.75 33  C 24.75 30.72265625  25.5556640625 28.7783203125  27.1669921875 27.1669921875  C 28.7783203125 25.5556640625  30.72265625 24.75  33 24.75  C 35.27734375 24.75  37.2216796875 25.5556640625  38.8330078125 27.1669921875  Z M 71.8330078125 27.1669921875  C 73.4443359375 28.7783203125  74.25 30.72265625  74.25 33  C 74.25 35.27734375  73.4443359375 37.2216796875  71.8330078125 38.8330078125  C 70.2216796875 40.4443359375  68.27734375 41.25  66 41.25  C 63.72265625 41.25  61.7783203125 40.4443359375  60.1669921875 38.8330078125  C 58.5556640625 37.2216796875  57.75 35.27734375  57.75 33  C 57.75 30.72265625  58.5556640625 28.7783203125  60.1669921875 27.1669921875  C 61.7783203125 25.5556640625  63.72265625 24.75  66 24.75  C 68.27734375 24.75  70.2216796875 25.5556640625  71.8330078125 27.1669921875  Z M 87.462890625 65.5166015625  C 89.654296875 60.4248046875  90.75 55.0859375  90.75 49.5  C 90.75 43.9140625  89.654296875 38.5751953125  87.462890625 33.4833984375  C 85.271484375 28.3916015625  82.3388671875 24.0087890625  78.6650390625 20.3349609375  C 74.9912109375 16.6611328125  70.6083984375 13.728515625  65.5166015625 11.537109375  C 60.4248046875 9.345703125  55.0859375 8.25  49.5 8.25  C 43.9140625 8.25  38.5751953125 9.345703125  33.4833984375 11.537109375  C 28.3916015625 13.728515625  24.0087890625 16.6611328125  20.3349609375 20.3349609375  C 16.6611328125 24.0087890625  13.728515625 28.3916015625  11.537109375 33.4833984375  C 9.345703125 38.5751953125  8.25 43.9140625  8.25 49.5  C 8.25 55.0859375  9.345703125 60.4248046875  11.537109375 65.5166015625  C 13.728515625 70.6083984375  16.6611328125 74.9912109375  20.3349609375 78.6650390625  C 24.0087890625 82.3388671875  28.3916015625 85.271484375  33.4833984375 87.462890625  C 38.5751953125 89.654296875  43.9140625 90.75  49.5 90.75  C 55.0859375 90.75  60.4248046875 89.654296875  65.5166015625 87.462890625  C 70.6083984375 85.271484375  74.9912109375 82.3388671875  78.6650390625 78.6650390625  C 82.3388671875 74.9912109375  85.271484375 70.6083984375  87.462890625 65.5166015625  Z M 92.361328125 24.6533203125  C 96.787109375 32.2373046875  99 40.51953125  99 49.5  C 99 58.48046875  96.787109375 66.7626953125  92.361328125 74.3466796875  C 87.935546875 81.9306640625  81.9306640625 87.935546875  74.3466796875 92.361328125  C 66.7626953125 96.787109375  58.48046875 99  49.5 99  C 40.51953125 99  32.2373046875 96.787109375  24.6533203125 92.361328125  C 17.0693359375 87.935546875  11.064453125 81.9306640625  6.638671875 74.3466796875  C 2.212890625 66.7626953125  0 58.48046875  0 49.5  C 0 40.51953125  2.212890625 32.2373046875  6.638671875 24.6533203125  C 11.064453125 17.0693359375  17.0693359375 11.064453125  24.6533203125 6.638671875  C 32.2373046875 2.21289062499999  40.51953125 0  49.5 0  C 58.48046875 0  66.7626953125 2.21289062499999  74.3466796875 6.638671875  C 81.9306640625 11.064453125  87.935546875 17.0693359375  92.361328125 24.6533203125  Z " fill-rule="nonzero" fill="#555555" stroke="none" transform="matrix(1 0 0 1 400 2209 )" />
  </g>
</svg>