<?xml version="1.0" encoding="utf-8"?>
<svg version="1.1" xmlns:xlink="http://www.w3.org/1999/xlink" width="90px" height="90px" xmlns="http://www.w3.org/2000/svg">
  <g transform="matrix(1 0 0 1 -878 -2209 )">
    <path d="M 55.1953125 55.1953125  C 59.9368990384615 50.4537259615385  62.3076923076923 44.7475961538461  62.3076923076923 38.0769230769231  C 62.3076923076923 31.40625  59.9368990384615 25.7001201923077  55.1953125 20.9585336538462  C 50.4537259615385 16.2169471153846  44.7475961538462 13.8461538461538  38.0769230769231 13.8461538461538  C 31.40625 13.8461538461538  25.7001201923077 16.2169471153846  20.9585336538462 20.9585336538462  C 16.2169471153846 25.7001201923077  13.8461538461538 31.40625  13.8461538461538 38.0769230769231  C 13.8461538461538 44.7475961538461  16.2169471153846 50.4537259615385  20.9585336538462 55.1953125  C 25.7001201923077 59.9368990384615  31.40625 62.3076923076923  38.0769230769231 62.3076923076923  C 44.7475961538462 62.3076923076923  50.4537259615385 59.9368990384615  55.1953125 55.1953125  Z M 87.9987980769231 78.2091346153846  C 89.3329326923077 79.5432692307692  90 81.1658653846154  90 83.0769230769231  C 90 84.9519230769231  89.3149038461539 86.5745192307692  87.9447115384615 87.9447115384615  C 86.5745192307692 89.3149038461538  84.9519230769231 90  83.0769230769231 90  C 81.1298076923077 90  79.5072115384615 89.3149038461538  78.2091346153846 87.9447115384615  L 59.6574519230769 69.4471153846154  C 53.203125 73.9182692307692  46.0096153846154 76.1538461538461  38.0769230769231 76.1538461538461  C 32.9206730769231 76.1538461538461  27.9897836538462 75.1532451923077  23.2842548076923 73.1520432692308  C 18.5787259615385 71.1508413461539  14.5222355769231 68.4465144230769  11.1147836538462 65.0390625  C 7.70733173076923 61.6316105769231  5.00300480769231 57.5751201923077  3.00180288461538 52.8695913461538  C 1.00060096153846 48.1640625  0 43.2331730769231  0 38.0769230769231  C 0 32.9206730769231  1.00060096153846 27.9897836538462  3.00180288461538 23.2842548076923  C 5.00300480769231 18.5787259615385  7.70733173076923 14.5222355769231  11.1147836538462 11.1147836538462  C 14.5222355769231 7.70733173076923  18.5787259615385 5.00300480769231  23.2842548076923 3.00180288461539  C 27.9897836538462 1.00060096153846  32.9206730769231 0  38.0769230769231 0  C 43.2331730769231 0  48.1640625 1.00060096153846  52.8695913461538 3.00180288461539  C 57.5751201923077 5.00300480769231  61.6316105769231 7.70733173076923  65.0390625 11.1147836538462  C 68.4465144230769 14.5222355769231  71.1508413461539 18.5787259615385  73.1520432692308 23.2842548076923  C 75.1532451923077 27.9897836538462  76.1538461538461 32.9206730769231  76.1538461538461 38.0769230769231  C 76.1538461538461 46.0096153846154  73.9182692307692 53.203125  69.4471153846154 59.6574519230769  L 87.9987980769231 78.2091346153846  Z " fill-rule="nonzero" fill="#555555" stroke="none" transform="matrix(1 0 0 1 878 2209 )" />
  </g>
</svg>