<?xml version="1.0" encoding="utf-8"?>
<svg version="1.1" xmlns:xlink="http://www.w3.org/1999/xlink" width="85px" height="100px" xmlns="http://www.w3.org/2000/svg">
  <g transform="matrix(1 0 0 1 -1046 -2203 )">
    <path d="M 70.8333333333333 28.5714285714286  C 70.8333333333333 34.0401785714286  69.3760850694444 39.0997023809524  66.4615885416667 43.75  C 68.1955295138889 44.2708333333333  69.8464626736111 44.9776785714286  71.4143880208333 45.8705357142857  C 72.9823133680556 46.7633928571429  74.6240234375 48.1212797619048  76.3395182291667 49.9441964285714  C 78.0550130208333 51.7671130952381  79.521484375 53.9155505952381  80.7389322916667 56.3895089285714  C 81.9563802083333 58.8634672619048  82.9709201388889 62.0628720238095  83.7825520833333 65.9877232142857  C 84.5941840277778 69.9125744047619  85 74.3117559523809  85 79.1852678571429  C 85 84.9144345238095  83.1553819444444 89.8158482142857  79.4661458333333 93.8895089285714  C 75.7769097222222 97.9631696428571  71.3313802083333 100  66.1295572916667 100  L 18.8704427083333 100  C 13.6686197916667 100  9.22309027777778 97.9631696428571  5.53385416666667 93.8895089285714  C 1.84461805555556 89.8158482142857  0 84.9144345238095  0 79.1852678571429  C 0 74.3117559523809  0.405815972222222 69.9125744047619  1.21744791666667 65.9877232142857  C 2.02907986111111 62.0628720238095  3.04361979166667 58.8634672619048  4.26106770833333 56.3895089285714  C 5.478515625 53.9155505952381  6.94498697916667 51.7671130952381  8.66048177083333 49.9441964285714  C 10.3759765625 48.1212797619048  12.0176866319444 46.7633928571429  13.5856119791667 45.8705357142857  C 15.1535373263889 44.9776785714286  16.8044704861111 44.2708333333333  18.5384114583333 43.75  C 15.6239149305556 39.0997023809524  14.1666666666667 34.0401785714286  14.1666666666667 28.5714285714286  C 14.1666666666667 24.7023809523809  14.9137369791667 21.0100446428571  16.4078776041667 17.4944196428571  C 17.9020182291667 13.9787946428571  19.921875 10.9375  22.4674479166667 8.37053571428571  C 25.0130208333333 5.80357142857143  28.0289713541667 3.76674107142857  31.5152994791667 2.26004464285714  C 35.0016276041667 0.75334821428571  38.6631944444445 0  42.5 0  C 46.3368055555556 0  49.9983723958333 0.75334821428571  53.4847005208333 2.26004464285714  C 56.9710286458333 3.76674107142857  59.9869791666667 5.80357142857143  62.5325520833333 8.37053571428571  C 65.078125 10.9375  67.0979817708333 13.9787946428571  68.5921223958333 17.4944196428571  C 70.0862630208333 21.0100446428571  70.8333333333333 24.7023809523809  70.8333333333333 28.5714285714286  Z M 57.5244140625 13.4207589285714  C 53.3740234375 9.23549107142857  48.3658854166667 7.14285714285714  42.5 7.14285714285714  C 36.6341145833333 7.14285714285714  31.6259765625 9.23549107142857  27.4755859375 13.4207589285714  C 23.3251953125 17.6060267857143  21.25 22.65625  21.25 28.5714285714286  C 21.25 34.4866071428571  23.3251953125 39.5368303571429  27.4755859375 43.7220982142857  C 31.6259765625 47.9073660714286  36.6341145833333 50  42.5 50  C 48.3658854166667 50  53.3740234375 47.9073660714286  57.5244140625 43.7220982142857  C 61.6748046875 39.5368303571429  63.75 34.4866071428571  63.75 28.5714285714286  C 63.75 22.65625  61.6748046875 17.6060267857143  57.5244140625 13.4207589285714  Z M 18.8704427083333 92  L 66.1295572916667 92  C 69.3760850694444 92.8571428571429  72.1522352430556 91.5271577380952  74.4580078125 88.8671875  C 76.7637803819444 86.2072172619048  77.9166666666667 82.9799107142857  77.9166666666667 79.1852678571429  C 77.9166666666667 70.2938988095238  76.4686414930556 63.28125  73.5725911458333 58.1473214285714  C 70.6765407986111 53.0133928571429  66.5169270833333 50.3162202380952  61.09375 50.0558035714286  C 55.7443576388889 54.780505952381  49.5464409722222 57.1428571428571  42.5 57.1428571428571  C 35.4535590277778 57.1428571428571  29.2556423611111 54.780505952381  23.90625 50.0558035714286  C 18.4830729166667 50.3162202380952  14.3234592013889 53.0133928571429  11.4274088541667 58.1473214285714  C 8.53135850694444 63.28125  7.08333333333333 70.2938988095238  7.08333333333333 79.1852678571429  C 7.08333333333333 82.9799107142857  8.23621961805556 86.2072172619048  10.5419921875 88.8671875  C 12.8477647569444 91.5271577380952  15.6239149305556 92.8571428571429  18.8704427083333 92  Z " fill-rule="nonzero" fill="#555555" stroke="none" transform="matrix(1 0 0 1 1046 2203 )" />
  </g>
</svg>