<?xml version="1.0" encoding="utf-8"?>
<svg version="1.1" xmlns:xlink="http://www.w3.org/1999/xlink" width="205px" height="205px" xmlns="http://www.w3.org/2000/svg">
  <defs>
    <filter x="921px" y="1687px" width="205px" height="205px" filterUnits="userSpaceOnUse" id="filter63">
      <feOffset dx="0" dy="0" in="SourceAlpha" result="shadowOffsetInner" />
      <feGaussianBlur stdDeviation="5" in="shadowOffsetInner" result="shadowGaussian" />
      <feComposite in2="shadowGaussian" operator="atop" in="SourceAlpha" result="shadowComposite" />
      <feColorMatrix type="matrix" values="0 0 0 0 0  0 0 0 0 0  0 0 0 0 0  0 0 0 0.349019607843137 0  " in="shadowComposite" />
    </filter>
    <g id="widget64">
      <path d="M 1023.5 1697  C 1075.3 1697  1116 1737.7  1116 1789.5  C 1116 1841.3  1075.3 1882  1023.5 1882  C 971.7 1882  931 1841.3  931 1789.5  C 931 1737.7  971.7 1697  1023.5 1697  Z " fill-rule="nonzero" fill="#ffffff" stroke="none" />
      <path d="M 1023.5 1697.5  C 1075.02 1697.5  1115.5 1737.98  1115.5 1789.5  C 1115.5 1841.02  1075.02 1881.5  1023.5 1881.5  C 971.98 1881.5  931.5 1841.02  931.5 1789.5  C 931.5 1737.98  971.98 1697.5  1023.5 1697.5  Z " stroke-width="1" stroke="#fa541c" fill="none" />
    </g>
  </defs>
  <g transform="matrix(1 0 0 1 -921 -1687 )">
    <use xlink:href="#widget64" filter="url(#filter63)" />
    <use xlink:href="#widget64" />
  </g>
</svg>