<svg t="1624555049228" class="icon" viewBox="0 0 1024 1024" version="1.1" xmlns="http://www.w3.org/2000/svg" p-id="14049" width="200" height="200"><path d="M928 640a32 32 0 0 1 32 32V832a128 128 0 0 1-128 128h-160a32 32 0 1 1 0-64H832a64 64 0 0 0 64-64v-160a32 32 0 0 1 32-32z m-832 0a32 32 0 0 1 32 32V832a64 64 0 0 0 64 64h160a32 32 0 1 1 0 64H192a128 128 0 0 1-128-128v-160a32 32 0 0 1 32-32z m832-160a32 32 0 1 1 0 64h-832a32 32 0 0 1 0-64h832zM832 64a128 128 0 0 1 128 128v160a32 32 0 1 1-64 0V192a64 64 0 0 0-64-64h-160a32 32 0 1 1 0-64H832zM352 64a32 32 0 0 1 0 64H192a64 64 0 0 0-64 64v160a32 32 0 0 1-64 0V192a128 128 0 0 1 128-128h160z" p-id="14050" fill="#595959"></path></svg>