<?xml version="1.0" encoding="utf-8"?>
<svg version="1.1" xmlns:xlink="http://www.w3.org/1999/xlink" width="28px" height="50px" xmlns="http://www.w3.org/2000/svg">
  <g transform="matrix(1 0 0 1 -100 -329 )">
    <path d="M 27.5189003436426 3.00601202404809  C 27.8396334478809 3.34001336005343  28 3.72411489645958  28 4.15831663326653  C 28 4.59251837007348  27.8396334478809 4.97661990647962  27.5189003436426 5.31062124248497  L 8.61168384879725 25  L 27.5189003436426 44.689378757515  C 27.8396334478809 45.0233800935204  28 45.4074816299265  28 45.8416833667335  C 28 46.2758851035404  27.8396334478809 46.6599866399466  27.5189003436426 46.9939879759519  L 25.1134020618557 49.498997995992  C 24.7926689576174 49.8329993319973  24.4238258877434 50  24.0068728522337 50  C 23.5899198167239 50  23.2210767468499 49.8329993319973  22.9003436426117 49.498997995992  L 0.481099656357388 26.1523046092184  C 0.16036655211913 25.8183032732131  0 25.4342017368069  0 25  C 0 24.5657982631931  0.16036655211913 24.1816967267869  0.481099656357388 23.8476953907816  L 22.9003436426117 0.501002004008017  C 23.2210767468499 0.16700066800267  23.5899198167239 0  24.0068728522337 0  C 24.4238258877434 0  24.7926689576174 0.16700066800267  25.1134020618557 0.501002004008017  L 27.5189003436426 3.00601202404809  Z " fill-rule="nonzero" fill="#434343" stroke="none" transform="matrix(1 0 0 1 100 329 )" />
  </g>
</svg>