<?xml version="1.0" encoding="utf-8"?>
<svg version="1.1" xmlns:xlink="http://www.w3.org/1999/xlink" width="57px" height="60px" xmlns="http://www.w3.org/2000/svg">
  <g transform="matrix(1 0 0 1 -130 -568 )">
    <path d="M 158.5 568  C 174.46 568  187 581.2  187 598  C 187 614.8  174.46 628  158.5 628  C 142.54 628  130 614.8  130 598  C 130 581.2  142.54 568  158.5 568  Z " fill-rule="nonzero" fill="#ffffff" stroke="none" />
    <path d="M 158.5 568.5  C 174.18 568.5  186.5 581.48  186.5 598  C 186.5 614.52  174.18 627.5  158.5 627.5  C 142.82 627.5  130.5 614.52  130.5 598  C 130.5 581.48  142.82 568.5  158.5 568.5  Z " stroke-width="1" stroke="#797979" fill="none" />
  </g>
</svg>