<?xml version="1.0" encoding="utf-8"?>
<svg version="1.1" xmlns:xlink="http://www.w3.org/1999/xlink" width="69px" height="69px" xmlns="http://www.w3.org/2000/svg">
  <g transform="matrix(1 0 0 1 -1032 -321 )">
    <path d="M 42.31640625 42.31640625  C 45.9516225961539 38.6811899038461  47.7692307692308 34.3064903846154  47.7692307692308 29.1923076923077  C 47.7692307692308 24.078125  45.9516225961539 19.7034254807692  42.31640625 16.0682091346154  C 38.6811899038462 12.4329927884615  34.3064903846154 10.6153846153846  29.1923076923077 10.6153846153846  C 24.078125 10.6153846153846  19.7034254807692 12.4329927884615  16.0682091346154 16.0682091346154  C 12.4329927884615 19.7034254807692  10.6153846153846 24.078125  10.6153846153846 29.1923076923077  C 10.6153846153846 34.3064903846154  12.4329927884615 38.6811899038461  16.0682091346154 42.31640625  C 19.7034254807692 45.9516225961538  24.078125 47.7692307692308  29.1923076923077 47.7692307692308  C 34.3064903846154 47.7692307692308  38.6811899038462 45.9516225961538  42.31640625 42.31640625  Z M 67.4657451923077 59.9603365384615  C 68.4885817307692 60.9831730769231  69 62.2271634615385  69 63.6923076923077  C 69 65.1298076923077  68.4747596153846 66.3737980769231  67.4242788461539 67.4242788461539  C 66.3737980769231 68.4747596153846  65.1298076923077 69  63.6923076923077 69  C 62.1995192307692 69  60.9555288461538 68.4747596153846  59.9603365384615 67.4242788461539  L 45.7373798076923 53.2427884615385  C 40.7890625 56.6706730769231  35.2740384615385 58.3846153846154  29.1923076923077 58.3846153846154  C 25.2391826923077 58.3846153846154  21.4588341346154 57.6174879807692  17.8512620192308 56.0832331730769  C 14.2436899038462 54.5489783653846  11.1337139423077 52.4756610576923  8.52133413461539 49.86328125  C 5.90895432692308 47.2509014423077  3.83563701923077 44.1409254807692  2.30138221153846 40.5333533653846  C 0.767127403846154 36.92578125  0 33.1454326923077  0 29.1923076923077  C 0 25.2391826923077  0.767127403846154 21.4588341346154  2.30138221153846 17.8512620192308  C 3.83563701923077 14.2436899038462  5.90895432692308 11.1337139423077  8.52133413461539 8.52133413461538  C 11.1337139423077 5.90895432692308  14.2436899038462 3.83563701923077  17.8512620192308 2.30138221153846  C 21.4588341346154 0.767127403846152  25.2391826923077 0  29.1923076923077 0  C 33.1454326923077 0  36.92578125 0.767127403846152  40.5333533653846 2.30138221153846  C 44.1409254807692 3.83563701923077  47.2509014423077 5.90895432692308  49.86328125 8.52133413461538  C 52.4756610576923 11.1337139423077  54.5489783653846 14.2436899038462  56.0832331730769 17.8512620192308  C 57.6174879807692 21.4588341346154  58.3846153846154 25.2391826923077  58.3846153846154 29.1923076923077  C 58.3846153846154 35.2740384615385  56.6706730769231 40.7890625  53.2427884615385 45.7373798076923  L 67.4657451923077 59.9603365384615  Z " fill-rule="nonzero" fill="#7f7f7f" stroke="none" transform="matrix(1 0 0 1 1032 321 )" />
  </g>
</svg>