<?xml version="1.0" encoding="utf-8"?>
<svg version="1.1" xmlns:xlink="http://www.w3.org/1999/xlink" width="100px" height="100px" xmlns="http://www.w3.org/2000/svg">
  <g transform="matrix(1 0 0 1 -286 -2120 )">
    <path d="M 77.9296875 57.0963541666667  C 78.7543402777778 56.2717013888889  79.1666666666667 55.2951388888889  79.1666666666667 54.1666666666667  L 79.1666666666667 45.8333333333333  C 79.1666666666667 44.7048611111111  78.7543402777778 43.7282986111111  77.9296875 42.9036458333333  C 77.1050347222222 42.0789930555556  76.1284722222222 41.6666666666667  75 42  L 25 42  C 23.8715277777778 41.6666666666667  22.8949652777778 42.0789930555556  22.0703125 42.9036458333333  C 21.2456597222222 43.7282986111111  20.8333333333333 44.7048611111111  20.8333333333333 45.8333333333333  L 20.8333333333333 54.1666666666667  C 20.8333333333333 55.2951388888889  21.2456597222222 56.2717013888889  22.0703125 57.0963541666667  C 22.8949652777778 57.9210069444444  23.8715277777778 58.3333333333333  25 58  L 75 58  C 76.1284722222222 58.3333333333333  77.1050347222222 57.9210069444444  77.9296875 57.0963541666667  Z M 93.2942708333333 24.90234375  C 97.7647569444444 32.5629340277778  100 40.9288194444444  100 50  C 100 59.0711805555556  97.7647569444444 67.4370659722222  93.2942708333333 75.09765625  C 88.8237847222222 82.7582465277778  82.7582465277778 88.8237847222222  75.09765625 93.2942708333333  C 67.4370659722222 97.7647569444445  59.0711805555556 100  50 100  C 40.9288194444445 100  32.5629340277778 97.7647569444445  24.90234375 93.2942708333333  C 17.2417534722222 88.8237847222222  11.1762152777778 82.7582465277778  6.70572916666667 75.09765625  C 2.23524305555556 67.4370659722222  0 59.0711805555556  0 50  C 0 40.9288194444444  2.23524305555556 32.5629340277778  6.70572916666667 24.90234375  C 11.1762152777778 17.2417534722222  17.2417534722222 11.1762152777778  24.90234375 6.70572916666666  C 32.5629340277778 2.23524305555555  40.9288194444445 0  50 0  C 59.0711805555556 0  67.4370659722222 2.23524305555555  75.09765625 6.70572916666666  C 82.7582465277778 11.1762152777778  88.8237847222222 17.2417534722222  93.2942708333333 24.90234375  Z " fill-rule="nonzero" fill="#7f7f7f" stroke="none" transform="matrix(1 0 0 1 286 2120 )" />
  </g>
</svg>