<?xml version="1.0" encoding="utf-8"?>
<svg version="1.1" xmlns:xlink="http://www.w3.org/1999/xlink" width="54px" height="54px" xmlns="http://www.w3.org/2000/svg">
  <g transform="matrix(1 0 0 1 -210 -1825 )">
    <path d="M 237 1825  C 252.12 1825  264 1836.88  264 1852  C 264 1867.12  252.12 1879  237 1879  C 221.88 1879  210 1867.12  210 1852  C 210 1836.88  221.88 1825  237 1825  Z " fill-rule="nonzero" fill="#7f7f7f" stroke="none" />
    <path d="M 237 1825.5  C 251.84 1825.5  263.5 1837.16  263.5 1852  C 263.5 1866.84  251.84 1878.5  237 1878.5  C 222.16 1878.5  210.5 1866.84  210.5 1852  C 210.5 1837.16  222.16 1825.5  237 1825.5  Z " stroke-width="1" stroke="#797979" fill="none" />
  </g>
</svg>