<?xml version="1.0" encoding="utf-8"?>
<svg version="1.1" xmlns:xlink="http://www.w3.org/1999/xlink" width="110px" height="70px" xmlns="http://www.w3.org/2000/svg">
  <g transform="matrix(1 0 0 1 -237 -2256 )">
    <path d="M 72.9322916666667 66.7795138888889  C 73.1996527777778 67.1846064814815  73.3333333333333 67.6099537037037  73.3333333333333 68.0555555555556  C 73.3333333333333 68.5821759259259  73.1519097222222 69.0379050925926  72.7890625 69.4227430555556  C 72.4262152777778 69.8075810185185  71.9965277777778 70  71.5 70  L 16.5 70  C 16.1944444444444 70  15.9366319444444 69.9594907407407  15.7265625 69.8784722222222  C 15.5164930555556 69.7974537037037  15.3446180555556 69.6556712962963  15.2109375 69.453125  C 15.0772569444444 69.2505787037037  14.9722222222222 69.0885416666667  14.8958333333333 68.9670138888889  C 14.8194444444444 68.8454861111111  14.7621527777778 68.6125578703704  14.7239583333333 68.2682291666667  C 14.6857638888889 67.923900462963  14.6666666666667 67.6909722222222  14.6666666666667 67.5694444444444  L 14.6666666666667 66.7795138888889  L 14.6666666666667 66.1111111111111  L 15 56.3888888888889  L 15 32  L 3.66666666666667 32  C 2.67361111111111 31.1111111111111  1.81423611111111 30.7262731481481  1.08854166666667 29.9565972222222  C 0.362847222222222 29.1869212962963  0 28.275462962963  0 27.2222222222222  C 0 26.25  0.286458333333333 25.4195601851852  0.859375 24.7309027777778  L 19.1927083333333 1.39756944444445  C 19.9184027777778 0.50636574074074  20.8541666666667 0.0607638888888906  22 0.0607638888888906  C 23.1458333333333 0.0607638888888906  24.0815972222222 0.50636574074074  24.8072916666667 1.39756944444445  L 43.140625 24.7309027777778  C 43.7135416666667 25.4195601851852  44 26.25  44 27.2222222222222  C 44 28.275462962963  43.6371527777778 29.1869212962963  42.9114583333333 29.9565972222222  C 42.1857638888889 30.7262731481481  41.3263888888889 31.1111111111111  40.3333333333333 32  L 30 32  L 30 54  L 62.3333333333333 54  C 62.9444444444445 54.4444444444444  63.421875 54.6672453703704  63.765625 55.1128472222222  L 72.9322916666667 66.7795138888889  Z M 108.911458333333 40.0434027777778  C 109.637152777778 40.8130787037037  110 41.724537037037  110 42.7777777777778  C 110 43.75  109.713541666667 44.5804398148148  109.140625 45.2690972222222  L 90.8072916666667 68.6024305555556  C 90.0434027777778 69.5341435185185  89.1076388888889 70  88 70  C 86.8923611111111 70  85.9565972222222 69.5341435185185  85.1927083333333 68.6024305555556  L 66.859375 45.2690972222222  C 66.2864583333333 44.5804398148148  66 43.75  66 42.7777777777778  C 66 41.724537037037  66.3628472222222 40.8130787037037  67.0885416666667 40.0434027777778  C 67.8142361111111 39.2737268518518  68.6736111111111 38.8888888888889  69.6666666666667 38  L 80 38  L 80 16  L 47.6666666666667 16  C 47.0555555555556 15.5555555555556  46.578125 15.3125  46.234375 14.8263888888889  L 37.0677083333333 3.15972222222222  C 36.8003472222222 2.79513888888889  36.6666666666667 2.39004629629629  36.6666666666667 1.94444444444445  C 36.6666666666667 1.41782407407407  36.8480902777778 0.962094907407404  37.2109375 0.577256944444445  C 37.5737847222222 0.192418981481471  38.0034722222222 0  38.5 0  L 93.5 0  C 93.8055555555556 0  94.0633680555556 0.0405092592592526  94.2734375 0.121527777777781  C 94.4835069444444 0.202546296296294  94.6553819444444 0.344328703703698  94.7890625 0.546875  C 94.9227430555556 0.749421296296294  95.0277777777778 0.911458333333336  95.1041666666667 1.03298611111111  C 95.1805555555556 1.15451388888889  95.2378472222222 1.38744212962962  95.2760416666667 1.73177083333334  C 95.3142361111111 2.07609953703703  95.3333333333333 2.30902777777778  95.3333333333333 2.43055555555555  L 95.3333333333333 3.22048611111111  L 95.3333333333333 3.88888888888889  L 95 13.6111111111111  L 95 38  L 106.333333333333 38  C 107.326388888889 38.8888888888889  108.185763888889 39.2737268518518  108.911458333333 40.0434027777778  Z " fill-rule="nonzero" fill="#7f7f7f" stroke="none" transform="matrix(1 0 0 1 237 2256 )" />
  </g>
</svg>