<?xml version="1.0" encoding="utf-8"?>
<svg version="1.1" xmlns:xlink="http://www.w3.org/1999/xlink" width="100px" height="93px" xmlns="http://www.w3.org/2000/svg">
  <g transform="matrix(1 0 0 1 -491 -2245 )">
    <path d="M 75.78125 84.099609375  C 76.542467948718 83.3326822916667  76.9230769230769 82.4244791666667  76.9230769230769 81.375  C 76.9230769230769 80.3255208333333  76.542467948718 79.4173177083333  75.78125 78.650390625  C 75.0200320512821 77.8834635416667  74.1185897435898 77.5  73.0769230769231 77.5  C 72.0352564102564 77.5  71.1338141025641 77.8834635416667  70.3725961538462 78.650390625  C 69.6113782051282 79.4173177083333  69.2307692307692 80.3255208333333  69.2307692307692 81.375  C 69.2307692307692 82.4244791666667  69.6113782051282 83.3326822916667  70.3725961538462 84.099609375  C 71.1338141025641 84.8665364583333  72.0352564102564 85.25  73.0769230769231 85.25  C 74.1185897435898 85.25  75.0200320512821 84.8665364583333  75.78125 84.099609375  Z M 91.1658653846154 84.099609375  C 91.9270833333333 83.3326822916667  92.3076923076923 82.4244791666667  92.3076923076923 81.375  C 92.3076923076923 80.3255208333333  91.9270833333333 79.4173177083333  91.1658653846154 78.650390625  C 90.4046474358974 77.8834635416667  89.5032051282051 77.5  88.4615384615385 77.5  C 87.4198717948718 77.5  86.5184294871795 77.8834635416667  85.7572115384615 78.650390625  C 84.9959935897436 79.4173177083333  84.6153846153846 80.3255208333333  84.6153846153846 81.375  C 84.6153846153846 82.4244791666667  84.9959935897436 83.3326822916667  85.7572115384615 84.099609375  C 86.5184294871795 84.8665364583333  87.4198717948718 85.25  88.4615384615385 85.25  C 89.5032051282051 85.25  90.4046474358974 84.8665364583333  91.1658653846154 84.099609375  Z M 98.3173076923077 63.6953125  C 99.4391025641026 64.8255208333333  100 66.1979166666667  100 67.8125  L 100 87.1875  C 100 88.8020833333333  99.4391025641026 90.1744791666667  98.3173076923077 91.3046875  C 97.1955128205128 92.4348958333333  95.8333333333333 93  94.2307692307692 93  L 5.76923076923077 93  C 4.16666666666667 93  2.80448717948718 92.4348958333333  1.68269230769231 91.3046875  C 0.560897435897436 90.1744791666667  0 88.8020833333333  0 87.1875  L 0 67.8125  C 0 66.1979166666667  0.560897435897436 64.8255208333333  1.68269230769231 63.6953125  C 2.80448717948718 62.5651041666667  4.16666666666667 62  5.76923076923077 62  L 33.7139423076923 62  L 41.8269230769231 70.234375  C 44.150641025641 72.4947916666667  46.875 73.625  50 73.625  C 53.125 73.625  55.849358974359 72.4947916666667  58.1730769230769 70.234375  L 66.3461538461538 62  L 94.2307692307692 62  C 95.8333333333333 62  97.1955128205128 62.5651041666667  98.3173076923077 63.6953125  Z M 76.9230769230769 31  C 78.6057692307692 31  79.7876602564103 31.787109375  80.46875 33.361328125  C 81.1498397435898 35.0162760416667  80.869391025641 36.4290364583333  79.6274038461538 37.599609375  L 52.7043269230769 64.724609375  C 51.9831730769231 65.4915364583333  51.0817307692308 65.875  50 65.875  C 48.9182692307692 65.875  48.0168269230769 65.4915364583333  47.2956730769231 64.724609375  L 20.3725961538462 37.599609375  C 19.130608974359 36.4290364583333  18.8501602564103 35.0162760416667  19.53125 33.361328125  C 20.2123397435897 31.787109375  21.3942307692308 31  23.0769230769231 31  L 39 31  L 39 3.875  C 38.4615384615385 2.82552083333332  38.8421474358974 1.91731770833332  39.6033653846154 1.150390625  C 40.3645833333333 0.383463541666672  41.2660256410256 0  42.3076923076923 0  L 57.6923076923077 0  C 58.7339743589744 0  59.6354166666667 0.383463541666672  60.3966346153846 1.150390625  C 61.1578525641026 1.91731770833332  61.5384615384615 2.82552083333332  61 3.875  L 61 31  L 76.9230769230769 31  Z " fill-rule="nonzero" fill="#7f7f7f" stroke="none" transform="matrix(1 0 0 1 491 2245 )" />
  </g>
</svg>