<?xml version="1.0" encoding="utf-8"?>
<svg version="1.1" xmlns:xlink="http://www.w3.org/1999/xlink" width="100px" height="86px" xmlns="http://www.w3.org/2000/svg">
  <g transform="matrix(1 0 0 1 -297 -1623 )">
    <path d="M 52.4553571428571 84.9921875  C 51.7857142857143 85.6640625  50.9672619047619 86  50 86  C 49.0327380952381 86  48.2142857142857 85.6640625  47.5446428571429 84.9921875  L 12.7232142857143 51.2864583333333  C 12.3511904761905 50.9878472222222  11.8396577380952 50.5026041666667  11.1886160714286 49.8307291666667  C 10.5375744047619 49.1588541666667  9.50520833333333 47.9364149305556  8.09151785714286 46.1634114583333  C 6.67782738095238 44.3904079861111  5.41294642857143 42.5707465277778  4.296875 40.7044270833333  C 3.18080357142857 38.8381076388889  2.18563988095238 36.5798611111111  1.31138392857143 33.9296875  C 0.437127976190476 31.2795138888889  0 28.7039930555556  0 26.203125  C 0 17.9913194444444  2.36235119047619 11.5711805555556  7.08705357142857 6.94270833333333  C 11.811755952381 2.31423611111111  18.3407738095238 0  26.6741071428571 0  C 28.9806547619048 0  31.3337053571429 0.40125868055555  33.7332589285714 1.20377604166667  C 36.1328125 2.00629340277777  38.3649553571429 3.08875868055555  40.4296875 4.451171875  C 42.4944196428572 5.81358506944444  44.2708333333333 7.09201388888888  45.7589285714286 8.28645833333333  C 47.2470238095238 9.48090277777777  48.6607142857143 10.75  50 12.09375  C 51.3392857142857 10.75  52.7529761904762 9.48090277777777  54.2410714285714 8.28645833333333  C 55.7291666666667 7.09201388888888  57.5055803571429 5.81358506944444  59.5703125 4.451171875  C 61.6350446428571 3.08875868055555  63.8671875 2.00629340277777  66.2667410714286 1.20377604166667  C 68.6662946428571 0.40125868055555  71.0193452380952 0  73.3258928571429 0  C 81.6592261904762 0  88.1882440476191 2.31423611111111  92.9129464285714 6.94270833333333  C 97.6376488095238 11.5711805555556  100 17.9913194444444  100 26.203125  C 100 34.4522569444444  95.7403273809524 42.8506944444444  87.2209821428571 51.3984375  L 52.4553571428571 84.9921875  Z " fill-rule="nonzero" fill="#fa541c" stroke="none" transform="matrix(1 0 0 1 297 1623 )" />
  </g>
</svg>