<?xml version="1.0" encoding="utf-8"?>
<svg version="1.1" xmlns:xlink="http://www.w3.org/1999/xlink" width="100px" height="92px" xmlns="http://www.w3.org/2000/svg">
  <g transform="matrix(1 0 0 1 -596 -1620 )">
    <path d="M 94.8979591836735 18.3880208333333  C 96.4185674269708 18.9869791666667  97.5990396158463 19.8454861111111  98.4393757503001 20.9635416666667  C 100.040016006403 23.2395833333333  100.400160064026 25.8151041666667  99.5198079231693 28.6901041666667  L 83.0132052821129 82.9557291666667  C 82.2529011604642 85.5112847222222  80.7222889155662 87.6575520833333  78.421368547419 89.39453125  C 76.1204481792717 91.1315104166667  73.6694677871149 92  71.0684273709484 92  L 15.6662665066026 92  C 12.5850340136054 92  9.61384553821529 90.9318576388889  6.75270108043217 88.7955729166667  C 3.89155662264906 86.6592881944444  1.90076030412165 84.0338541666667  0.78031212484994 80.9192708333333  C -0.180072028811525 78.2439236111111  -0.220088035214086 75.7083333333333  0.660264105642257 73.3125  C 0.660264105642257 73.1527777777778  0.720288115246098 72.6137152777778  0.840336134453782 71.6953125  C 0.960384153661465 70.7769097222222  1.04041616646659 70.0381944444444  1.08043217286915 69.4791666666667  C 1.12044817927171 69.1597222222222  1.06042416966787 68.73046875  0.900360144057623 68.19140625  C 0.740296118447379 67.65234375  0.680272108843538 67.2630208333333  0.720288115246098 67.0234375  C 0.800320128051221 66.5842013888889  0.960384153661465 66.1649305555555  1.20048019207683 65.765625  C 1.4405762304922 65.3663194444444  1.77070828331333 64.8971354166667  2.19087635054022 64.3580729166667  C 2.61104441776711 63.8190104166667  2.94117647058824 63.3498263888889  3.1812725090036 62.9505208333333  C 4.10164065626251 61.4331597222222  5.00200080032013 59.6063368055555  5.88235294117647 57.4700520833333  C 6.76270508203281 55.3337673611111  7.36294517807123 53.5069444444444  7.68307322929172 51.9895833333333  C 7.8031212484994 51.5902777777778  7.81312525010004 50.9913194444444  7.71308523409364 50.1927083333333  C 7.61304521808724 49.3940972222222  7.6030412164866 48.8350694444444  7.68307322929172 48.515625  C 7.8031212484994 48.0763888888889  8.14325730292117 47.5173611111111  8.70348139255702 46.8385416666667  C 9.26370548219288 46.1597222222222  9.60384153661465 45.7005208333333  9.72388955582233 45.4609375  C 10.5642256902761 44.0234375  11.4045618247299 42.1866319444444  12.2448979591837 39.9505208333333  C 13.0852340936375 37.7144097222222  13.5854341736695 35.9175347222222  13.7454981992797 34.5598958333333  C 13.7855142056823 34.2005208333333  13.7354941976791 33.5616319444444  13.5954381752701 32.6432291666667  C 13.4553821528611 31.7248263888889  13.4653861544618 31.1657986111111  13.625450180072 30.9661458333333  C 13.7855142056823 30.4470486111111  14.2256902761104 29.8381076388889  14.9459783913565 29.1393229166667  C 15.6662665066026 28.4405381944444  16.1064425770308 27.9913194444444  16.2665066026411 27.7916666666667  C 17.0268107242897 26.7534722222222  17.8771508603441 25.06640625  18.8175270108043 22.73046875  C 19.7579031612645 20.39453125  20.3081232492997 18.4678819444444  20.46818727491 16.9505208333333  C 20.5082032813125 16.6310763888889  20.4481792717087 16.1219618055555  20.2881152460984 15.4231770833333  C 20.1280512204882 14.7243923611111  20.0880352140856 14.1953125  20.1680672268908 13.8359375  C 20.2480992396959 13.5164930555555  20.4281712685074 13.1571180555555  20.7082833133253 12.7578125  C 20.9883953581433 12.3585069444444  21.3485394157663 11.8993055555555  21.7887154861945 11.3802083333333  C 22.2288915566227 10.8611111111111  22.5690276110444 10.4418402777778  22.8091236494598 10.1223958333333  C 23.1292517006803 9.64322916666667  23.4593837535014 9.03428819444444  23.7995198079232 8.29557291666667  C 24.1396558623449 7.55685763888888  24.4397759103641 6.85807291666667  24.6998799519808 6.19921875  C 24.9599839935974 5.54036458333333  25.2801120448179 4.82161458333333  25.6602641056423 4.04296875  C 26.0404161664666 3.26432291666667  26.4305722288916 2.62543402777777  26.8307322929172 2.12630208333333  C 27.2308923569428 1.62717013888888  27.7611044417767 1.1579861111111  28.421368547419 0.71875  C 29.0816326530612 0.279513888888876  29.8019207683073 0.0499131944444433  30.5822328931573 0.0299479166666701  C 31.3625450180072 0.00998263888887641  32.312925170068 0.11979166666667  33.4333733493397 0.359375  L 33.3733493397359 0.5390625  C 34.8939575830332 0.1796875  35.9143657462985 0  36.4345738295318 0  L 82.1128451380552 0  C 85.0740296118448 0  87.3549419767907 1.11805555555555  88.9555822328932 3.35416666666667  C 90.5562224889956 5.59027777777777  90.9163665466187 8.18576388888888  90.0360144057623 11.140625  L 73.5894357743097 65.40625  C 72.1488595438175 70.1579861111111  70.718287314926 73.22265625  69.2977190876351 74.6002604166667  C 67.8771508603441 75.9778645833333  65.3061224489796 76.6666666666667  61.5846338535414 76  L 9.42376950780312 76  C 8.34333733493397 76.6666666666667  7.58303321328531 76.9661458333333  7.14285714285714 77.5651041666667  C 6.70268107242897 78.2039930555556  6.68267306922769 79.0625  7.0828331332533 80.140625  C 8.04321728691477 82.9357638888889  10.9243697478992 84.3333333333333  15.7262905162065 84  L 71.1284513805522 84  C 72.2889155662265 84.3333333333333  73.4093637454982 84.0238715277778  74.4897959183673 83.4049479166667  C 75.5702280912365 82.7860243055556  76.2705082032813 81.9574652777778  76.5906362545018 80.9192708333333  L 94.5978391356543 21.8020833333333  C 94.8779511804722 20.9236111111111  94.9779911964786 19.7855902777778  94.8979591836735 18.3880208333333  Z M 35.8343337334934 17.25  L 34.5738295318127 21.0833333333333  C 34.4137655062025 21.6024305555555  34.453781512605 22.0516493055555  34.6938775510204 22.4309895833333  C 34.9339735894358 22.8103298611111  35.3341336534614 23  35.8943577430972 23  L 72.3889555822329 23  C 72.9091636654662 23  73.4193677470988 22.8103298611111  73.9195678271308 22.4309895833333  C 74.4197679071629 22.0516493055555  74.749899959984 21.6024305555555  74.9099639855942 21.0833333333333  L 76.1704681872749 17.25  C 76.3305322128852 16.7309027777778  76.2905162064826 16.2816840277778  76.0504201680672 15.90234375  C 75.8103241296519 15.5230034722222  75.4101640656263 15.3333333333333  74.8499399759904 16  L 38.3553421368547 16  C 37.8351340536215 15.3333333333333  37.3249299719888 15.5230034722222  36.8247298919568 15.90234375  C 36.3245298119248 16.2816840277778  35.9943977591036 16.7309027777778  35.8343337334934 17.25  Z M 30.8523409363745 32.5833333333333  L 29.5918367346939 36.4166666666667  C 29.4317727090836 36.9357638888889  29.4717887154862 37.3849826388889  29.7118847539016 37.7643229166667  C 29.9519807923169 38.1436631944444  30.3521408563425 38.3333333333333  30.9123649459784 39  L 67.406962785114 39  C 67.9271708683473 38.3333333333333  68.43737494998 38.1436631944444  68.937575030012 37.7643229166667  C 69.437775110044 37.3849826388889  69.7679071628652 36.9357638888889  69.9279711884754 36.4166666666667  L 71.1884753901561 32.5833333333333  C 71.3485394157663 32.0642361111111  71.3085234093637 31.6150173611111  71.0684273709484 31.2356770833333  C 70.828331332533 30.8563368055556  70.4281712685074 30.6666666666667  69.8679471788715 31  L 33.3733493397359 31  C 32.8531412565026 30.6666666666667  32.34293717487 30.8563368055556  31.8427370948379 31.2356770833333  C 31.3425370148059 31.6150173611111  31.0124049619848 32.0642361111111  30.8523409363745 32.5833333333333  Z " fill-rule="nonzero" fill="#fa541c" stroke="none" transform="matrix(1 0 0 1 596 1620 )" />
  </g>
</svg>