<?xml version="1.0" encoding="utf-8"?>
<svg version="1.1" xmlns:xlink="http://www.w3.org/1999/xlink" width="100px" height="88px" xmlns="http://www.w3.org/2000/svg">
  <g transform="matrix(1 0 0 1 -1021 -341 )">
    <path d="M 87.6953125 44  L 89.0625 44  C 92.08984375 44  94.6695963541667 45.0721726190476  96.8017578125 47.2165178571429  C 98.9339192708333 49.3608630952381  100 51.9553571428571  100 55  L 100 73.8571428571429  C 100 74.3154761904762  99.853515625 74.6919642857143  99.560546875 74.9866071428571  C 99.267578125 75.28125  98.8932291666667 75.4285714285714  98.4375 75.4285714285714  L 93.75 75.4285714285714  L 93.75 78.5714285714286  C 93.75 81.1904761904762  92.8385416666667 83.4166666666667  91.015625 85.25  C 89.1927083333333 87.0833333333333  86.9791666666667 88  84.375 88  C 81.7708333333333 88  79.5572916666667 87.0833333333333  77.734375 85.25  C 75.9114583333333 83.4166666666667  75 81.1904761904762  75 78.5714285714286  L 75 75  L 25 75  L 25 78.5714285714286  C 25 81.1904761904762  24.0885416666667 83.4166666666667  22.265625 85.25  C 20.4427083333333 87.0833333333333  18.2291666666667 88  15.625 88  C 13.0208333333333 88  10.8072916666667 87.0833333333333  8.984375 85.25  C 7.16145833333333 83.4166666666667  6.25 81.1904761904762  6.25 78.5714285714286  L 6.25 75.4285714285714  L 1.5625 75.4285714285714  C 1.10677083333333 75.4285714285714  0.732421875 75.28125  0.439453125 74.9866071428571  C 0.146484375 74.6919642857143  0 74.3154761904762  0 73.8571428571429  L 0 55  C 0 51.9553571428571  1.06608072916667 49.3608630952381  3.1982421875 47.2165178571429  C 5.33040364583333 45.0721726190476  7.91015625 44  10.9375 44  L 12.3046875 44  L 17.431640625 23.4241071428571  C 18.1803385416667 20.3467261904762  19.873046875 17.7686011904762  22.509765625 15.6897321428571  C 25.146484375 13.6108630952381  28.0598958333333 12.5714285714286  31.25 12.5714285714286  L 38 12.5714285714286  L 38 1.57142857142858  C 37.5 1.11309523809523  37.646484375 0.736607142857141  37.939453125 0.441964285714283  C 38.232421875 0.147321428571424  38.6067708333333 0  39.0625 0  L 60.9375 0  C 61.3932291666667 0  61.767578125 0.147321428571424  62.060546875 0.441964285714283  C 62.353515625 0.736607142857141  62.5 1.11309523809523  62 1.57142857142858  L 62 12.5714285714286  L 68.75 12.5714285714286  C 71.9401041666667 12.5714285714286  74.853515625 13.6108630952381  77.490234375 15.6897321428571  C 80.126953125 17.7686011904762  81.8196614583333 20.3467261904762  82.568359375 23.4241071428571  L 87.6953125 44  Z M 10.107421875 65.2633928571429  C 11.6373697916667 66.8020833333333  13.4765625 67.5714285714286  15.625 67.5714285714286  C 17.7734375 67.5714285714286  19.6126302083333 66.8020833333333  21.142578125 65.2633928571429  C 22.6725260416667 63.7247023809524  23.4375 61.875  23.4375 59.7142857142857  C 23.4375 57.5535714285714  22.6725260416667 55.703869047619  21.142578125 54.1651785714286  C 19.6126302083333 52.6264880952381  17.7734375 51.8571428571429  15.625 51.8571428571429  C 13.4765625 51.8571428571429  11.6373697916667 52.6264880952381  10.107421875 54.1651785714286  C 8.57747395833333 55.703869047619  7.8125 57.5535714285714  7.8125 59.7142857142857  C 7.8125 61.875  8.57747395833333 63.7247023809524  10.107421875 65.2633928571429  Z M 29.541015625 26.46875  L 25.1953125 44  L 74.8046875 44  L 70.458984375 26.46875  C 70.3938802083333 26.2068452380952  70.166015625 25.9203869047619  69.775390625 25.609375  C 69.384765625 25.2983630952381  69.04296875 25.1428571428571  68.75 26  L 31.25 26  C 30.95703125 25.1428571428571  30.615234375 25.2983630952381  30.224609375 25.609375  C 29.833984375 25.9203869047619  29.6061197916667 26.2068452380952  29.541015625 26.46875  Z M 78.857421875 65.2633928571429  C 80.3873697916667 66.8020833333333  82.2265625 67.5714285714286  84.375 67.5714285714286  C 86.5234375 67.5714285714286  88.3626302083333 66.8020833333333  89.892578125 65.2633928571429  C 91.4225260416667 63.7247023809524  92.1875 61.875  92.1875 59.7142857142857  C 92.1875 57.5535714285714  91.4225260416667 55.703869047619  89.892578125 54.1651785714286  C 88.3626302083333 52.6264880952381  86.5234375 51.8571428571429  84.375 51.8571428571429  C 82.2265625 51.8571428571429  80.3873697916667 52.6264880952381  78.857421875 54.1651785714286  C 77.3274739583333 55.703869047619  76.5625 57.5535714285714  76.5625 59.7142857142857  C 76.5625 61.875  77.3274739583333 63.7247023809524  78.857421875 65.2633928571429  Z " fill-rule="nonzero" fill="#7f7f7f" stroke="none" transform="matrix(1 0 0 1 1021 341 )" />
  </g>
</svg>