<?xml version="1.0" encoding="utf-8"?>
<svg version="1.1" xmlns:xlink="http://www.w3.org/1999/xlink" width="80px" height="62px" xmlns="http://www.w3.org/2000/svg">
  <g transform="matrix(1 0 0 1 -964 -2264 )">
    <path d="M 11.0044642857143 51.1455965909091  C 11.2872023809524 51.4244791666667  11.4285714285714 51.7547348484848  11.4285714285714 52.1363636363636  L 11.4285714285714 60.5909090909091  C 11.4285714285714 60.9725378787879  11.2872023809524 61.3027935606061  11.0044642857143 61.5816761363636  C 10.7217261904762 61.8605587121212  10.3869047619048 62  10 62  L 1.42857142857143 62  C 1.04166666666667 62  0.706845238095238 61.8605587121212  0.424107142857143 61.5816761363636  C 0.141369047619048 61.3027935606061  0 60.9725378787879  0 60.5909090909091  L 0 52.1363636363636  C 0 51.7547348484848  0.141369047619048 51.4244791666667  0.424107142857143 51.1455965909091  C 0.706845238095238 50.8667140151515  1.04166666666667 50.7272727272727  1.42857142857143 50.7272727272727  L 10 50.7272727272727  C 10.3869047619048 50.7272727272727  10.7217261904762 50.8667140151515  11.0044642857143 51.1455965909091  Z M 11.0044642857143 34.2365056818182  C 11.2872023809524 34.5153882575758  11.4285714285714 34.8456439393939  11.4285714285714 35.2272727272727  L 11.4285714285714 43.6818181818182  C 11.4285714285714 44.063446969697  11.2872023809524 44.3937026515151  11.0044642857143 44.6725852272727  C 10.7217261904762 44.9514678030303  10.3869047619048 45.0909090909091  10 45.0909090909091  L 1.42857142857143 45.0909090909091  C 1.04166666666667 45.0909090909091  0.706845238095238 44.9514678030303  0.424107142857143 44.6725852272727  C 0.141369047619048 44.3937026515151  0 44.063446969697  0 43.6818181818182  L 0 35.2272727272727  C 0 34.8456439393939  0.141369047619048 34.5153882575758  0.424107142857143 34.2365056818182  C 0.706845238095238 33.9576231060606  1.04166666666667 33.8181818181818  1.42857142857143 33.8181818181818  L 10 33.8181818181818  C 10.3869047619048 33.8181818181818  10.7217261904762 33.9576231060606  11.0044642857143 34.2365056818182  Z M 11.0044642857143 17.3274147727273  C 11.2872023809524 17.6062973484848  11.4285714285714 17.936553030303  11.4285714285714 18.3181818181818  L 11.4285714285714 26.7727272727273  C 11.4285714285714 27.1543560606061  11.2872023809524 27.4846117424242  11.0044642857143 27.7634943181818  C 10.7217261904762 28.0423768939394  10.3869047619048 28.1818181818182  10 28.1818181818182  L 1.42857142857143 28.1818181818182  C 1.04166666666667 28.1818181818182  0.706845238095238 28.0423768939394  0.424107142857143 27.7634943181818  C 0.141369047619048 27.4846117424242  0 27.1543560606061  0 26.7727272727273  L 0 18.3181818181818  C 0 17.936553030303  0.141369047619048 17.6062973484848  0.424107142857143 17.3274147727273  C 0.706845238095238 17.0485321969697  1.04166666666667 16.9090909090909  1.42857142857143 16.9090909090909  L 10 16.9090909090909  C 10.3869047619048 16.9090909090909  10.7217261904762 17.0485321969697  11.0044642857143 17.3274147727273  Z M 79.5758928571429 51.1455965909091  C 79.858630952381 51.4244791666667  80 51.7547348484848  80 52.1363636363636  L 80 60.5909090909091  C 80 60.9725378787879  79.858630952381 61.3027935606061  79.5758928571429 61.5816761363636  C 79.2931547619048 61.8605587121212  78.9583333333333 62  78.5714285714286 62  L 18.5714285714286 62  C 18.1845238095238 62  17.8497023809524 61.8605587121212  17.5669642857143 61.5816761363636  C 17.2842261904762 61.3027935606061  17.1428571428571 60.9725378787879  17.1428571428571 60.5909090909091  L 17.1428571428571 52.1363636363636  C 17.1428571428571 51.7547348484848  17.2842261904762 51.4244791666667  17.5669642857143 51.1455965909091  C 17.8497023809524 50.8667140151515  18.1845238095238 50.7272727272727  18.5714285714286 50  L 78.5714285714286 50  C 78.9583333333333 50.7272727272727  79.2931547619048 50.8667140151515  79.5758928571429 51.1455965909091  Z M 11.0044642857143 0.418323863636362  C 11.2872023809524 0.697206439393939  11.4285714285714 1.02746212121212  11.4285714285714 1.40909090909091  L 11.4285714285714 9.86363636363636  C 11.4285714285714 10.2452651515151  11.2872023809524 10.5755208333333  11.0044642857143 10.8544034090909  C 10.7217261904762 11.1332859848485  10.3869047619048 11.2727272727273  10 11.2727272727273  L 1.42857142857143 11.2727272727273  C 1.04166666666667 11.2727272727273  0.706845238095238 11.1332859848485  0.424107142857143 10.8544034090909  C 0.141369047619048 10.5755208333333  0 10.2452651515151  0 9.86363636363636  L 0 1.40909090909091  C 0 1.02746212121212  0.141369047619048 0.697206439393939  0.424107142857143 0.418323863636362  C 0.706845238095238 0.139441287878778  1.04166666666667 0  1.42857142857143 0  L 10 0  C 10.3869047619048 0  10.7217261904762 0.139441287878778  11.0044642857143 0.418323863636362  Z M 79.5758928571429 34.2365056818182  C 79.858630952381 34.5153882575758  80 34.8456439393939  80 35.2272727272727  L 80 43.6818181818182  C 80 44.063446969697  79.858630952381 44.3937026515151  79.5758928571429 44.6725852272727  C 79.2931547619048 44.9514678030303  78.9583333333333 45.0909090909091  78.5714285714286 45  L 18.5714285714286 45  C 18.1845238095238 45.0909090909091  17.8497023809524 44.9514678030303  17.5669642857143 44.6725852272727  C 17.2842261904762 44.3937026515151  17.1428571428571 44.063446969697  17.1428571428571 43.6818181818182  L 17.1428571428571 35.2272727272727  C 17.1428571428571 34.8456439393939  17.2842261904762 34.5153882575758  17.5669642857143 34.2365056818182  C 17.8497023809524 33.9576231060606  18.1845238095238 33.8181818181818  18.5714285714286 33  L 78.5714285714286 33  C 78.9583333333333 33.8181818181818  79.2931547619048 33.9576231060606  79.5758928571429 34.2365056818182  Z M 79.5758928571429 17.3274147727273  C 79.858630952381 17.6062973484848  80 17.936553030303  80 18.3181818181818  L 80 26.7727272727273  C 80 27.1543560606061  79.858630952381 27.4846117424242  79.5758928571429 27.7634943181818  C 79.2931547619048 28.0423768939394  78.9583333333333 28.1818181818182  78.5714285714286 29  L 18.5714285714286 29  C 18.1845238095238 28.1818181818182  17.8497023809524 28.0423768939394  17.5669642857143 27.7634943181818  C 17.2842261904762 27.4846117424242  17.1428571428571 27.1543560606061  17.1428571428571 26.7727272727273  L 17.1428571428571 18.3181818181818  C 17.1428571428571 17.936553030303  17.2842261904762 17.6062973484848  17.5669642857143 17.3274147727273  C 17.8497023809524 17.0485321969697  18.1845238095238 16.9090909090909  18.5714285714286 17  L 78.5714285714286 17  C 78.9583333333333 16.9090909090909  79.2931547619048 17.0485321969697  79.5758928571429 17.3274147727273  Z M 79.5758928571429 0.418323863636362  C 79.858630952381 0.697206439393939  80 1.02746212121212  80 1.40909090909091  L 80 9.86363636363636  C 80 10.2452651515151  79.858630952381 10.5755208333333  79.5758928571429 10.8544034090909  C 79.2931547619048 11.1332859848485  78.9583333333333 11.2727272727273  78.5714285714286 12  L 18.5714285714286 12  C 18.1845238095238 11.2727272727273  17.8497023809524 11.1332859848485  17.5669642857143 10.8544034090909  C 17.2842261904762 10.5755208333333  17.1428571428571 10.2452651515151  17.1428571428571 9.86363636363636  L 17.1428571428571 1.40909090909091  C 17.1428571428571 1.02746212121212  17.2842261904762 0.697206439393939  17.5669642857143 0.418323863636362  C 17.8497023809524 0.139441287878778  18.1845238095238 0  18.5714285714286 0  L 78.5714285714286 0  C 78.9583333333333 0  79.2931547619048 0.139441287878778  79.5758928571429 0.418323863636362  Z " fill-rule="nonzero" fill="#7f7f7f" stroke="none" transform="matrix(1 0 0 1 964 2264 )" />
  </g>
</svg>