<?xml version="1.0" encoding="utf-8"?>
<svg version="1.1" xmlns:xlink="http://www.w3.org/1999/xlink" width="100px" height="84px" xmlns="http://www.w3.org/2000/svg">
  <g transform="matrix(1 0 0 1 -854 -1620 )">
    <path d="M 33.6216517857143 40.7720930232558  C 35.0167410714286 39.3767441860465  35.7142857142857 37.6930232558139  35.7142857142857 35.7209302325581  C 35.7142857142857 33.7488372093023  35.0167410714286 32.0651162790698  33.6216517857143 30.6697674418605  C 32.2265625 29.2744186046512  30.5431547619048 28.5767441860465  28.5714285714286 28.5767441860465  C 26.5997023809524 28.5767441860465  24.9162946428571 29.2744186046512  23.5212053571429 30.6697674418605  C 22.1261160714286 32.0651162790698  21.4285714285714 33.7488372093023  21.4285714285714 35.7209302325581  C 21.4285714285714 37.6930232558139  22.1261160714286 39.3767441860465  23.5212053571429 40.7720930232558  C 24.9162946428571 42.1674418604651  26.5997023809524 42.8651162790698  28.5714285714286 42.8651162790698  C 30.5431547619048 42.8651162790698  32.2265625 42.1674418604651  33.6216517857143 40.7720930232558  Z M 55.0502232142857 40.7720930232558  C 56.4453125 39.3767441860465  57.1428571428571 37.6930232558139  57.1428571428571 35.7209302325581  C 57.1428571428571 33.7488372093023  56.4453125 32.0651162790698  55.0502232142857 30.6697674418605  C 53.6551339285714 29.2744186046512  51.9717261904762 28.5767441860465  50 28.5767441860465  C 48.0282738095238 28.5767441860465  46.3448660714286 29.2744186046512  44.9497767857143 30.6697674418605  C 43.5546875 32.0651162790698  42.8571428571429 33.7488372093023  42.8571428571429 35.7209302325581  C 42.8571428571429 37.6930232558139  43.5546875 39.3767441860465  44.9497767857143 40.7720930232558  C 46.3448660714286 42.1674418604651  48.0282738095238 42.8651162790698  50 42.8651162790698  C 51.9717261904762 42.8651162790698  53.6551339285714 42.1674418604651  55.0502232142857 40.7720930232558  Z M 76.4787946428571 40.7720930232558  C 77.8738839285714 39.3767441860465  78.5714285714286 37.6930232558139  78.5714285714286 35.7209302325581  C 78.5714285714286 33.7488372093023  77.8738839285714 32.0651162790698  76.4787946428571 30.6697674418605  C 75.0837053571429 29.2744186046512  73.4002976190476 28.5767441860465  71.4285714285714 28.5767441860465  C 69.4568452380952 28.5767441860465  67.7734375 29.2744186046512  66.3783482142857 30.6697674418605  C 64.9832589285714 32.0651162790698  64.2857142857143 33.7488372093023  64.2857142857143 35.7209302325581  C 64.2857142857143 37.6930232558139  64.9832589285714 39.3767441860465  66.3783482142857 40.7720930232558  C 67.7734375 42.1674418604651  69.4568452380952 42.8651162790698  71.4285714285714 42.8651162790698  C 73.4002976190476 42.8651162790698  75.0837053571429 42.1674418604651  76.4787946428571 40.7720930232558  Z M 93.3035714285714 17.7767441860465  C 97.7678571428571 23.2651162790698  100 29.246511627907  100 35.7209302325581  C 100 42.1953488372093  97.7678571428571 48.1767441860465  93.3035714285714 53.6651162790698  C 88.8392857142857 59.153488372093  82.7752976190476 63.4883720930233  75.1116071428571 66.6697674418605  C 67.4479166666667 69.8511627906977  59.077380952381 71.4418604651163  50 71.4418604651163  C 45.9077380952381 71.4418604651163  41.9828869047619 71.106976744186  38.2254464285714 70.4372093023256  C 31.7894345238095 76.8744186046512  23.6979166666667 81.1348837209302  13.9508928571429 83.2186046511628  C 12.016369047619 83.5906976744186  10.4166666666667 83.8325581395349  9.15178571428571 83.9441860465116  C 8.70535714285714 83.9813953488372  8.29613095238095 83.8697674418605  7.92410714285714 83.6093023255814  C 7.55208333333333 83.3488372093023  7.31026785714286 83.0139534883721  7.19866071428571 82.6046511627907  C 7.04985119047619 82.046511627907  7.421875 81.3581395348837  8.31473214285714 80.5395348837209  C 8.50074404761905 80.353488372093  8.93787202380953 79.953488372093  9.62611607142857 79.3395348837209  C 10.3143601190476 78.7255813953488  10.7886904761905 78.2883720930233  11.0491071428571 78.0279069767442  C 11.3095238095238 77.7674418604651  11.7466517857143 77.2930232558139  12.3604910714286 76.6046511627907  C 12.9743303571429 75.9162790697674  13.4207589285714 75.3302325581395  13.6997767857143 74.846511627907  C 13.9787946428571 74.3627906976744  14.360119047619 73.6744186046512  14.84375 72.7813953488372  C 15.327380952381 71.8883720930233  15.6994047619048 70.9953488372093  15.9598214285714 70.1023255813953  C 16.2202380952381 69.2093023255814  16.4899553571429 68.1395348837209  16.7689732142857 66.893023255814  C 17.0479910714286 65.646511627907  17.280505952381 64.2976744186046  17.4665178571429 62.846511627907  C 12.0349702380952 59.4976744186047  7.76599702380952 55.4697674418605  4.65959821428571 50.7627906976744  C 1.5531994047619 46.0558139534884  0 41.0418604651163  0 35.7209302325581  C 0 29.246511627907  2.23214285714286 23.2651162790698  6.69642857142857 17.7767441860465  C 11.1607142857143 12.2883720930232  17.2247023809524 7.95348837209302  24.8883928571429 4.77209302325582  C 32.5520833333333 1.59069767441861  40.9226190476191 0  50 0  C 59.077380952381 0  67.4479166666667 1.59069767441861  75.1116071428571 4.77209302325582  C 82.7752976190476 7.95348837209302  88.8392857142857 12.2883720930232  93.3035714285714 17.7767441860465  Z " fill-rule="nonzero" fill="#7f7f7f" stroke="none" transform="matrix(1 0 0 1 854 1620 )" />
  </g>
</svg>