<?xml version="1.0" encoding="utf-8"?>
<svg version="1.1" xmlns:xlink="http://www.w3.org/1999/xlink" width="100px" height="100px" xmlns="http://www.w3.org/2000/svg">
  <g transform="matrix(1 0 0 1 -754 -2245 )">
    <path d="M 61.7838541666667 61.7838541666667  C 65.0390625 58.5286458333333  66.6666666666667 54.6006944444444  66.6666666666667 50  C 66.6666666666667 45.3993055555556  65.0390625 41.4713541666667  61.7838541666667 38.2161458333333  C 58.5286458333333 34.9609375  54.6006944444445 33.3333333333333  50 33.3333333333333  C 45.3993055555556 33.3333333333333  41.4713541666667 34.9609375  38.2161458333333 38.2161458333333  C 34.9609375 41.4713541666667  33.3333333333333 45.3993055555556  33.3333333333333 50  C 33.3333333333333 54.6006944444444  34.9609375 58.5286458333333  38.2161458333333 61.7838541666667  C 41.4713541666667 65.0390625  45.3993055555556 66.6666666666667  50 66.6666666666667  C 54.6006944444445 66.6666666666667  58.5286458333333 65.0390625  61.7838541666667 61.7838541666667  Z M 99.4791666666667 41.3736979166667  C 99.8263888888889 41.8294270833333  100 42.3394097222222  100 42.9036458333333  L 100 57.3567708333333  C 100 57.8776041666667  99.8263888888889 58.3767361111111  99.4791666666667 58.8541666666667  C 99.1319444444445 59.3315972222222  98.6979166666667 59.6137152777778  98.1770833333333 59.7005208333333  L 86.1328125 61.5234375  C 85.3081597222222 63.8671875  84.4618055555556 65.8420138888889  83.59375 67.4479166666667  C 85.1128472222222 69.6180555555556  87.4348958333333 72.6128472222222  90.5598958333333 76.4322916666667  C 90.9939236111111 76.953125  91.2109375 77.4956597222222  91.2109375 78.0598958333333  C 91.2109375 78.6241319444445  91.015625 79.1232638888889  90.625 79.5572916666667  C 89.453125 81.1631944444445  87.3046875 83.5069444444445  84.1796875 86.5885416666667  C 81.0546875 89.6701388888889  79.0147569444445 91.2109375  78.0598958333333 91.2109375  C 77.5390625 91.2109375  76.9748263888889 91.015625  76.3671875 90.625  L 67.3828125 83.59375  C 65.4730902777778 84.5920138888889  63.4982638888889 85.4166666666667  61.4583333333333 86.0677083333333  C 60.7638888888889 91.9704861111111  60.1345486111111 96.0069444444445  59.5703125 98.1770833333333  C 59.2664930555556 99.3923611111111  58.4852430555556 100  57.2265625 100  L 42.7734375 100  C 42.1657986111111 100  41.6341145833333 99.8155381944445  41.1783854166667 99.4466145833333  C 40.72265625 99.0776909722222  40.4730902777778 98.6111111111111  40.4296875 98.046875  L 38.6067708333333 86.0677083333333  C 36.4800347222222 85.3732638888889  34.5269097222222 84.5703125  32.7473958333333 83.6588541666667  L 23.5677083333333 90.625  C 23.1336805555556 91.015625  22.5911458333333 91.2109375  21.9401041666667 91.2109375  C 21.3324652777778 91.2109375  20.7899305555556 90.9722222222222  20.3125 90.4947916666667  C 14.84375 85.546875  11.2630208333333 81.9010416666667  9.5703125 79.5572916666667  C 9.26649305555556 79.1232638888889  9.11458333333333 78.6241319444445  9.11458333333333 78.0598958333333  C 9.11458333333333 77.5390625  9.28819444444445 77.0399305555555  9.63541666666667 76.5625  C 10.2864583333333 75.6510416666667  11.3932291666667 74.2078993055556  12.9557291666667 72.2330729166667  C 14.5182291666667 70.2582465277778  15.6901041666667 68.7282986111111  16.4713541666667 67.6432291666667  C 15.2994791666667 65.4730902777778  14.4097222222222 63.3246527777778  13.8020833333333 61.1979166666667  L 1.88802083333333 59.4401041666667  C 1.32378472222222 59.3532986111111  0.868055555555556 59.08203125  0.520833333333333 58.6263020833333  C 0.173611111111111 58.1705729166667  0 57.6605902777778  0 57.0963541666667  L 0 42.6432291666667  C 0 42.1223958333333  0.173611111111111 41.6232638888889  0.520833333333333 41.1458333333333  C 0.868055555555556 40.6684027777778  1.28038194444444 40.3862847222222  1.7578125 40.2994791666667  L 13.8671875 38.4765625  C 14.4748263888889 36.4800347222222  15.3211805555556 34.4835069444444  16.40625 32.4869791666667  C 14.6701388888889 30.0130208333333  12.3480902777778 27.0182291666667  9.44010416666667 23.5026041666667  C 9.00607638888889 22.9817708333333  8.7890625 22.4609375  8.7890625 21.9401041666667  C 8.7890625 21.5060763888889  8.984375 21.0069444444444  9.375 20.4427083333333  C 10.5034722222222 18.8802083333333  12.6410590277778 16.5473090277778  15.7877604166667 13.4440104166667  C 18.9344618055556 10.3407118055555  20.9852430555556 8.7890625  21.9401041666667 8.7890625  C 22.5043402777778 8.7890625  23.0685763888889 9.00607638888888  23.6328125 9.44010416666666  L 32.6171875 16.40625  C 34.5269097222222 15.4079861111111  36.5017361111111 14.5833333333333  38.5416666666667 13.9322916666667  C 39.2361111111111 8.02951388888888  39.8654513888889 3.99305555555555  40.4296875 1.82291666666666  C 40.7335069444445 0.607638888888884  41.5147569444445 0  42.7734375 0  L 57.2265625 0  C 57.8342013888889 0  58.3658854166667 0.184461805555547  58.8216145833333 0.553385416666663  C 59.27734375 0.922309027777768  59.5269097222222 1.38888888888888  59.5703125 1.953125  L 61.3932291666667 13.9322916666667  C 63.5199652777778 14.6267361111111  65.4730902777778 15.4296875  67.2526041666667 16.3411458333333  L 76.4973958333333 9.375  C 76.8880208333333 8.984375  77.4088541666667 8.7890625  78.0598958333333 8.7890625  C 78.6241319444445 8.7890625  79.1666666666667 9.00607638888888  79.6875 9.44010416666666  C 85.2864583333333 14.6050347222222  88.8671875 18.2942708333333  90.4296875 20.5078125  C 90.7335069444445 20.8550347222222  90.8854166666667 21.3324652777778  90.8854166666667 21.9401041666667  C 90.8854166666667 22.4609375  90.7118055555556 22.9600694444444  90.3645833333333 23.4375  C 89.7135416666667 24.3489583333333  88.6067708333333 25.7921006944444  87.0442708333333 27.7669270833333  C 85.4817708333333 29.7417534722222  84.3098958333333 31.2717013888889  83.5286458333333 32.3567708333333  C 84.6571180555556 34.5269097222222  85.546875 36.6536458333333  86.1979166666667 38.7369791666667  L 98.1119791666667 40.5598958333333  C 98.6762152777778 40.6467013888889  99.1319444444445 40.91796875  99.4791666666667 41.3736979166667  Z " fill-rule="nonzero" fill="#7f7f7f" stroke="none" transform="matrix(1 0 0 1 754 2245 )" />
  </g>
</svg>