<?xml version="1.0" encoding="utf-8"?>
<svg version="1.1" xmlns:xlink="http://www.w3.org/1999/xlink" width="74px" height="46px" xmlns="http://www.w3.org/2000/svg">
  <g transform="matrix(1 0 0 1 -1037 -113 )">
    <path d="M 49 36  L 9 36  L 9 10  L 49 10  L 49 36  Z M 69.8888888888889 5.75  L 69.8888888888889 11.5  C 71.0237268518519 11.5  71.9926215277778 11.94921875  72.7955729166667 12.84765625  C 73.5985243055556 13.74609375  74 14.8302083333333  74 16.1  L 74 29.9  C 74 31.1697916666667  73.5985243055556 32.25390625  72.7955729166667 33.15234375  C 71.9926215277778 34.05078125  71.0237268518519 34.5  69.8888888888889 34.5  L 69.8888888888889 40.25  C 69.8888888888889 41.83125  69.3857060185185 43.1848958333333  68.3793402777778 44.3109375  C 67.3729745370371 45.4369791666667  66.1631944444444 46  64.75 46  L 5.13888888888889 46  C 3.72569444444444 46  2.51591435185185 45.4369791666667  1.50954861111111 44.3109375  C 0.50318287037037 43.1848958333333  0 41.83125  0 40.25  L 0 5.75  C 0 4.16875  0.50318287037037 2.81510416666667  1.50954861111111 1.6890625  C 2.51591435185185 0.563020833333327  3.72569444444444 0  5.13888888888889 0  L 64.75 0  C 66.1631944444444 0  67.3729745370371 0.563020833333327  68.3793402777778 1.6890625  C 69.3857060185185 2.81510416666667  69.8888888888889 4.16875  69.8888888888889 5.75  Z M 65 29.9  L 69 29.9  L 69 16.1  L 65 16.1  L 65 5.75  C 65.7777777777778 5.41458333333333  65.6814236111111 5.1390625  65.4887152777778 4.9234375  C 65.2960069444444 4.7078125  65.0497685185185 4.6  64.75 5  L 5.13888888888889 5  C 4.83912037037037 4.6  4.59288194444444 4.7078125  4.40017361111111 4.9234375  C 4.20746527777778 5.1390625  4.11111111111111 5.41458333333333  5 5.75  L 5 40.25  C 4.11111111111111 40.5854166666667  4.20746527777778 40.8609375  4.40017361111111 41.0765625  C 4.59288194444444 41.2921875  4.83912037037037 41.4  5.13888888888889 41  L 64.75 41  C 65.0497685185185 41.4  65.2960069444444 41.2921875  65.4887152777778 41.0765625  C 65.6814236111111 40.8609375  65.7777777777778 40.5854166666667  65 40.25  L 65 29.9  Z " fill-rule="nonzero" fill="#555555" stroke="none" transform="matrix(1 0 0 1 1037 113 )" />
  </g>
</svg>