<?xml version="1.0" encoding="utf-8"?>
<svg version="1.1" xmlns:xlink="http://www.w3.org/1999/xlink" width="140px" height="130px" xmlns="http://www.w3.org/2000/svg">
  <defs>
    <filter x="1069px" y="2260px" width="140px" height="130px" filterUnits="userSpaceOnUse" id="filter76">
      <feOffset dx="8" dy="8" in="SourceAlpha" result="shadowOffsetInner" />
      <feGaussianBlur stdDeviation="10" in="shadowOffsetInner" result="shadowGaussian" />
      <feComposite in2="shadowGaussian" operator="atop" in="SourceAlpha" result="shadowComposite" />
      <feColorMatrix type="matrix" values="0 0 0 0 0.666666666666667  0 0 0 0 0.666666666666667  0 0 0 0 0.666666666666667  0 0 0 0.349019607843137 0  " in="shadowComposite" />
    </filter>
    <g id="widget77">
      <path d="M 98.9397321428571 29.86875  C 99.6465773809524 30.58125  100 31.425  100 32.4  C 100 33.375  99.6465773809524 34.21875  98.9397321428571 34.93125  L 70.3683035714286 63.73125  C 69.6614583333333 64.44375  68.8244047619048 64.8  67.8571428571429 64.8  C 66.8898809523809 64.8  66.0528273809524 64.44375  65.3459821428571 63.73125  C 64.6391369047619 63.01875  64.2857142857143 62.175  64 61.2  L 64 46  L 51.7857142857143 46  C 48.139880952381 46.8  44.8753720238095 46.9125  41.9921875 47.1375  C 39.1090029761905 47.3625  36.2444196428571 47.765625  33.3984375 48.346875  C 30.5524553571429 48.928125  28.0784970238095 49.725  25.9765625 50.7375  C 23.8746279761905 51.75  21.9122023809524 53.053125  20.0892857142857 54.646875  C 18.2663690476191 56.240625  16.7782738095238 58.134375  15.625 60.328125  C 14.4717261904762 62.521875  13.569568452381 65.11875  12.9185267857143 68.11875  C 12.2674851190476 71.11875  11.9419642857143 74.5125  11.9419642857143 78.3  C 11.9419642857143 80.3625  12.0349702380952 82.66875  12.2209821428571 85.21875  C 12.2209821428571 85.44375  12.2674851190476 85.884375  12.3604910714286 86.540625  C 12.4534970238095 87.196875  12.5 87.69375  12.5 88.03125  C 12.5 88.59375  12.3418898809524 89.0625  12.0256696428571 89.4375  C 11.7094494047619 89.8125  11.2723214285714 90  10.7142857142857 90  C 10.1190476190476 90  9.59821428571429 89.68125  9.15178571428571 89.04375  C 8.89136904761905 88.70625  8.64955357142857 88.29375  8.42633928571429 87.80625  C 8.203125 87.31875  7.95200892857143 86.75625  7.67299107142857 86.11875  C 7.39397321428571 85.48125  7.19866071428571 85.03125  7.08705357142857 84.76875  C 2.36235119047619 74.08125  0 65.625  0 59.4  C 0 51.9375  0.985863095238095 45.69375  2.95758928571429 40.66875  C 8.984375 25.55625  25.2604166666667 18  51.7857142857143 18  L 64 18  L 64 3.6  C 64.2857142857143 2.62499999999999  64.6391369047619 1.78124999999999  65.3459821428571 1.06875  C 66.0528273809524 0.356249999999996  66.8898809523809 0  67.8571428571429 0  C 68.8244047619048 0  69.6614583333333 0.356249999999996  70.3683035714286 1.06875  L 98.9397321428571 29.86875  Z " fill-rule="nonzero" fill="#fa541c" stroke="none" transform="matrix(1 0 0 1 1081 2272 )" />
    </g>
  </defs>
  <g transform="matrix(1 0 0 1 -1069 -2260 )">
    <use xlink:href="#widget77" filter="url(#filter76)" />
    <use xlink:href="#widget77" />
  </g>
</svg>