<?xml version="1.0" encoding="utf-8"?>
<svg version="1.1" xmlns:xlink="http://www.w3.org/1999/xlink" width="46px" height="50px" xmlns="http://www.w3.org/2000/svg">
  <g transform="matrix(1 0 0 1 -1065 -421 )">
    <path d="M 7.09765625 10.9675480769231  C 7.47699652777778 10.5869391025641  7.66666666666667 10.1362179487179  7.66666666666667 9.61538461538462  C 7.66666666666667 9.09455128205128  7.47699652777778 8.64383012820512  7.09765625 8.26322115384616  C 6.71831597222222 7.88261217948718  6.26909722222222 7.69230769230769  5.75 7.69230769230769  C 5.23090277777778 7.69230769230769  4.78168402777778 7.88261217948718  4.40234375 8.26322115384616  C 4.02300347222222 8.64383012820512  3.83333333333333 9.09455128205128  3.83333333333333 9.61538461538462  C 3.83333333333333 10.1362179487179  4.02300347222222 10.5869391025641  4.40234375 10.9675480769231  C 4.78168402777778 11.348157051282  5.23090277777778 11.5384615384615  5.75 11.5384615384615  C 6.26909722222222 11.5384615384615  6.71831597222222 11.348157051282  7.09765625 10.9675480769231  Z M 40.9986979166667 29.6123798076923  C 41.77734375 28.8411458333333  42.1666666666667 27.9447115384615  42.1666666666667 26.9230769230769  C 42.1666666666667 26.2219551282051  41.9520399305556 25.410657051282  41.5227864583333 24.4891826923077  C 41.0935329861111 23.5677083333333  40.5594618055556 23.0969551282051  39.9205729166667 23.0769230769231  C 40.2200520833333 22.7363782051282  40.4696180555556 22.2606169871795  40.6692708333333 21.6496394230769  C 40.8689236111111 21.0386618589744  40.96875 20.4827724358974  40.96875 19.9819711538462  C 40.96875 18.5997596153846  40.4396701388889 17.4078525641026  39.3815104166667 16.40625  C 39.7408854166667 15.7852564102564  39.9205729166667 15.0941506410256  39.9205729166667 14.3329326923077  C 39.9205729166667 13.5917467948718  39.7458767361111 12.8555689102564  39.396484375 12.1243990384615  C 39.0470920138889 11.3932291666667  38.5729166666667 10.8673878205128  37.9739583333333 10.546875  C 38.0737847222222 9.94591346153846  38.1236979166667 9.38501602564102  38.1236979166667 8.86418269230769  C 38.1236979166667 7.16145833333333  37.6345486111111 5.8994391025641  36.65625 5.078125  C 35.6779513888889 4.25681089743589  34.3203125 3.84615384615384  32.5833333333333 3.84615384615384  L 28.75 3.84615384615384  C 26.1345486111111 3.84615384615384  22.7204861111111 4.57732371794872  18.5078125 6.03966346153846  C 18.4079861111111 6.07972756410256  18.1184895833333 6.18489583333333  17.6393229166667 6.35516826923077  C 17.16015625 6.5254407051282  16.8057725694444 6.65064102564102  16.576171875 6.73076923076923  C 16.3465711805556 6.81089743589743  15.9971788194444 6.92608173076923  15.5279947916667 7.07632211538462  C 15.0588107638889 7.2265625  14.6794704861111 7.33673878205128  14.3899739583333 7.40685096153846  C 14.1004774305556 7.47696314102564  13.7710503472222 7.54206730769231  13.4016927083333 7.60216346153846  C 13.0323350694444 7.66225961538462  12.7178819444444 7.69230769230769  12.4583333333333 7.69230769230769  L 12 7.69230769230769  L 12 26.9230769230769  L 12.4583333333333 26.9230769230769  C 12.7777777777778 26.9230769230769  13.1321614583333 27.0132211538462  13.521484375 27.1935096153846  C 13.9108072916667 27.3737980769231  14.3101128472222 27.6442307692308  14.7194010416667 28.0048076923077  C 15.1286892361111 28.3653846153846  15.5130208333333 28.720953525641  15.8723958333333 29.0715144230769  C 16.2317708333333 29.4220753205128  16.6310763888889 29.8627804487179  17.0703125 30.3936298076923  C 17.5095486111111 30.9244791666667  17.8539496527778 31.3501602564103  18.103515625 31.6706730769231  C 18.3530815972222 31.9911858974359  18.6675347222222 32.4018429487179  19.046875 32.9026442307692  C 19.4262152777778 33.4034455128205  19.6558159722222 33.7039262820513  19.7356770833333 33.8040865384615  C 20.8337673611111 35.166266025641  21.6024305555556 36.0777243589744  22.0416666666667 36.5384615384615  C 22.8602430555556 37.3998397435897  23.4542100694445 38.4965945512821  23.8235677083333 39.8287259615385  C 24.1929253472222 41.1608573717949  24.4973958333333 42.4178685897436  24.7369791666667 43.5997596153846  C 24.9765625 44.7816506410256  25.3559027777778 45.6330128205128  25.875 46.1538461538462  C 27.7916666666667 46.1538461538462  29.0694444444445 45.6830929487179  29.7083333333333 44.7415865384615  C 30.3472222222222 43.8000801282051  30.6666666666667 42.3477564102564  30.6666666666667 40.3846153846154  C 30.6666666666667 39.2027243589744  30.1875 37.5951522435897  29.2291666666667 35.5618990384615  C 28.2708333333333 33.5286458333333  27.7916666666667 31.9310897435897  27.7916666666667 30  L 38.3333333333333 30  C 39.3315972222222 30.7692307692308  40.2200520833333 30.3836137820513  40.9986979166667 29.6123798076923  Z M 44.5325520833333 22.0552884615385  C 45.5108506944444 23.5176282051282  46 25.1502403846154  46 26.953125  C 46 29.0164262820513  45.2413194444444 30.8092948717949  43.7239583333333 32.3317307692308  C 42.2065972222222 33.8541666666667  40.4097222222222 34.6153846153846  38.3333333333333 34.6153846153846  L 33.0625 34.6153846153846  C 34.0208333333333 36.5985576923077  34.5 38.5216346153846  34.5 40.3846153846154  C 34.5 42.7483974358974  34.1506076388889 44.6113782051282  33.4518229166667 45.9735576923077  C 32.7530381944445 47.3557692307692  31.7348090277778 48.3723958333333  30.3971354166667 49.0234375  C 29.0594618055556 49.6744791666667  27.5520833333333 50  25.875 50  C 24.8567708333333 50  23.9583333333333 49.6294070512821  23.1796875 48.8882211538462  C 22.5008680555556 48.2271634615385  21.9618055555556 47.4058493589744  21.5625 46.4242788461538  C 21.1631944444444 45.4427083333333  20.9086371527778 44.5362580128205  20.798828125 43.7049278846154  C 20.6890190972222 42.8735977564103  20.5143229166667 42.0272435897436  20.2747395833333 41.1658653846154  C 20.03515625 40.3044871794872  19.7256944444444 39.6634615384615  19.3463541666667 39.2427884615385  C 18.3880208333333 38.2411858974359  17.3198784722222 36.9691506410256  16.1419270833333 35.4266826923077  C 14.1254340277778 32.802483974359  12.7578125 31.25  12.0390625 30.7692307692308  L 3.83333333333333 30.7692307692308  C 2.77517361111111 30.7692307692308  1.87174479166667 30.3936298076923  1.123046875 29.6424278846154  C 0.374348958333333 28.8912259615385  0 27.9847756410256  0 26.9230769230769  L 0 7.69230769230769  C 0 6.63060897435897  0.374348958333333 5.72415865384616  1.123046875 4.97295673076923  C 1.87174479166667 4.22175480769231  2.77517361111111 3.84615384615384  3.83333333333333 3.84615384615384  L 12.4583333333333 3.84615384615384  C 12.8975694444444 3.84615384615384  14.2751736111111 3.44551282051281  16.5911458333333 2.64423076923077  C 19.1467013888889 1.76282051282051  21.3728298611111 1.10176282051281  23.26953125 0.661057692307693  C 25.1662326388889 0.220352564102561  27.1627604166667 0  29.2591145833333 0  L 32.61328125 0  C 35.4084201388889 0  37.6694878472222 0.791266025641024  39.396484375 2.37379807692308  C 41.1234809027778 3.95633012820512  41.9769965277778 6.11979166666666  41.95703125 8.86418269230769  L 41.95703125 9.01442307692308  C 43.1549479166667 10.556891025641  43.75390625 12.3397435897436  43.75390625 14.3629807692308  C 43.75390625 14.8036858974359  43.7239583333333 15.234375  43.6640625 15.6550480769231  C 44.4227430555556 16.9971955128205  44.8020833333333 18.4395032051282  44.8020833333333 19.9819711538462  C 44.8020833333333 20.703125  44.7122395833333 21.3942307692308  44.5325520833333 22.0552884615385  Z " fill-rule="nonzero" fill="#555555" stroke="none" transform="matrix(1 0 0 1 1065 421 )" />
  </g>
</svg>