<?xml version="1.0" encoding="utf-8"?>
<svg version="1.1" xmlns:xlink="http://www.w3.org/1999/xlink" width="46px" height="44px" xmlns="http://www.w3.org/2000/svg">
  <g transform="matrix(1 0 0 1 -869 -415 )">
    <path d="M 6.81375 36.13671875  C 7.17791666666667 35.7834201388889  7.36 35.3489583333333  7.36 34.8333333333333  C 7.36 34.3368055555556  7.17791666666667 33.9071180555556  6.81375 33.5442708333333  C 6.44958333333333 33.1814236111111  6.01833333333333 33  5.52 33  C 5.0025 33  4.56645833333333 33.1814236111111  4.211875 33.5442708333333  C 3.85729166666667 33.9071180555556  3.68 34.3368055555556  3.68 34.8333333333333  C 3.68 35.3489583333333  3.85729166666667 35.7834201388889  4.211875 36.13671875  C 4.56645833333333 36.4900173611111  5.0025 36.6666666666667  5.52 36.6666666666667  C 6.01833333333333 36.6666666666667  6.44958333333333 36.4900173611111  6.81375 36.13671875  Z M 11.41375 18.8776041666667  C 11.7779166666667 19.2404513888889  11.96 19.6701388888889  12 20.1666666666667  L 12 38.5  C 11.96 38.9965277777778  11.7779166666667 39.4262152777778  11.41375 39.7890625  C 11.0495833333333 40.1519097222222  10.6183333333333 40.3333333333333  10.12 40.3333333333333  L 1.84 40.3333333333333  C 1.34166666666667 40.3333333333333  0.910416666666667 40.1519097222222  0.54625 39.7890625  C 0.182083333333333 39.4262152777778  0 38.9965277777778  0 38.5  L 0 20.1666666666667  C 0 19.6701388888889  0.182083333333333 19.2404513888889  0.54625 18.8776041666667  C 0.910416666666667 18.5147569444444  1.34166666666667 18.3333333333333  1.84 18.3333333333333  L 10.12 18.3333333333333  C 10.6183333333333 18.3333333333333  11.0495833333333 18.5147569444444  11.41375 18.8776041666667  Z M 44.36125 16.2994791666667  C 45.45375 17.3880208333333  46 18.6770833333333  46 20.1666666666667  C 46 21.8090277777778  45.4729166666667 23.2317708333333  44.41875 24.4348958333333  C 44.70625 25.2751736111111  44.85 26.0008680555556  44.85 26.6119791666667  C 44.9075 28.0633680555556  44.4954166666667 29.3715277777778  43.61375 30.5364583333333  C 43.9395833333333 31.6059027777778  43.9395833333333 32.7230902777778  43.61375 33.8880208333333  C 43.32625 34.9765625  42.80875 35.8741319444444  42.06125 36.5807291666667  C 42.23375 38.7196180555556  41.7641666666667 40.4479166666667  40.6525 41.765625  C 39.4258333333333 43.2170138888889  37.5379166666667 43.9618055555556  34.98875 44  L 33.95375 44  L 31.76875 44  L 31.28 44  C 30.015 44  28.635 43.8519965277778  27.14 43.5559895833333  C 25.645 43.2599826388889  24.480625 42.9830729166667  23.646875 42.7252604166667  C 22.813125 42.4674479166667  21.6583333333333 42.0902777777778  20.1825 41.59375  C 17.825 40.7725694444444  16.3108333333333 40.3524305555556  15.64 40.3333333333333  C 15.1416666666667 40.3142361111111  14.7104166666667 40.1280381944444  14.34625 39.7747395833333  C 13.9820833333333 39.4214409722222  13.8 38.9965277777778  14 38.5  L 14 20.1380208333333  C 13.8 19.6605902777778  13.9725 19.2452256944444  14.3175 18.8919270833333  C 14.6625 18.5386284722222  15.0745833333333 18.3428819444444  15.55375 18.3046875  C 16.01375 18.2664930555556  16.7420833333333 17.703125  17.73875 16.6145833333333  C 18.7354166666667 15.5260416666667  19.7033333333333 14.3706597222222  20.6425 13.1484375  C 21.9458333333333 11.4869791666667  22.91375 10.3411458333333  23.54625 9.7109375  C 23.89125 9.3671875  24.1883333333333 8.90885416666667  24.4375 8.3359375  C 24.6866666666667 7.76302083333333  24.854375 7.29991319444444  24.940625 6.94661458333333  C 25.026875 6.59331597222222  25.15625 6.015625  25.32875 5.21354166666667  C 25.4629166666667 4.46875  25.5827083333333 3.88628472222222  25.688125 3.46614583333333  C 25.7935416666667 3.04600694444444  25.9804166666667 2.54947916666667  26.24875 1.9765625  C 26.5170833333333 1.40364583333333  26.8429166666667 0.926215277777777  27.22625 0.544270833333332  C 27.5904166666667 0.181423611111109  28.0216666666667 0  28.52 0  C 29.4016666666667 0  30.1922916666667 0.100260416666668  30.891875 0.30078125  C 31.5914583333333 0.501302083333332  32.1664583333333 0.749565972222218  32.616875 1.04557291666667  C 33.0672916666667 1.34157986111111  33.450625 1.72829861111111  33.766875 2.20572916666667  C 34.083125 2.68315972222222  34.313125 3.11284722222222  34.456875 3.49479166666667  C 34.600625 3.87673611111111  34.715625 4.35416666666667  34.801875 4.92708333333333  C 34.888125 5.5  34.9360416666667 5.9296875  34.945625 6.21614583333333  C 34.9552083333333 6.50260416666667  34.96 6.875  34.96 7.33333333333333  C 34.96 8.05902777777778  34.8689583333333 8.78472222222222  34.686875 9.51041666666667  C 34.5047916666667 10.2361111111111  34.3227083333333 10.8090277777778  34.140625 11.2291666666667  C 33.9585416666667 11.6493055555556  33.695 12.1840277777778  33.35 12.8333333333333  C 33.2925 12.9479166666667  33.1966666666667 13.1197916666667  33.0625 13.3489583333333  C 32.9283333333333 13.578125  32.8229166666667 13.7881944444444  32.74625 13.9791666666667  C 32.6695833333333 14.1701388888889  32.5929166666667 14.3993055555556  32.51625 14.6666666666667  L 40.48 14.6666666666667  C 41.975 14.6666666666667  43.26875 15.2109375  44.36125 16.2994791666667  Z " fill-rule="nonzero" fill="#fa541c" stroke="none" transform="matrix(1 0 0 1 869 415 )" />
  </g>
</svg>