<?xml version="1.0" encoding="utf-8"?>
<svg version="1.1" xmlns:xlink="http://www.w3.org/1999/xlink" width="70px" height="64px" xmlns="http://www.w3.org/2000/svg">
  <g transform="matrix(1 0 0 1 -944 -186 )">
    <path d="M 25.3245192307692 54.0909090909091  C 26.3902243589744 55.2424242424242  26.9230769230769 56.6060606060606  26.9230769230769 58.1818181818182  C 26.9230769230769 59.7575757575758  26.3902243589744 61.1212121212121  25.3245192307692 62.2727272727273  C 24.2588141025641 63.4242424242424  22.9967948717949 64  21.5384615384615 64  C 20.0801282051282 64  18.818108974359 63.4242424242424  17.7524038461538 62.2727272727273  C 16.6866987179487 61.1212121212121  16.1538461538462 59.7575757575758  16.1538461538462 58.1818181818182  C 16.1538461538462 56.6060606060606  16.6866987179487 55.2424242424242  17.7524038461538 54.0909090909091  C 18.818108974359 52.9393939393939  20.0801282051282 52.3636363636364  21.5384615384615 52.3636363636364  C 22.9967948717949 52.3636363636364  24.2588141025641 52.9393939393939  25.3245192307692 54.0909090909091  Z M 63.0168269230769 54.0909090909091  C 64.082532051282 55.2424242424242  64.6153846153846 56.6060606060606  64.6153846153846 58.1818181818182  C 64.6153846153846 59.7575757575758  64.082532051282 61.1212121212121  63.0168269230769 62.2727272727273  C 61.9511217948718 63.4242424242424  60.6891025641026 64  59.2307692307692 64  C 57.7724358974359 64  56.5104166666667 63.4242424242424  55.4447115384615 62.2727272727273  C 54.3790064102564 61.1212121212121  53.8461538461538 59.7575757575758  53.8461538461538 58.1818181818182  C 53.8461538461538 56.6060606060606  54.3790064102564 55.2424242424242  55.4447115384615 54.0909090909091  C 56.5104166666667 52.9393939393939  57.7724358974359 52.3636363636364  59.2307692307692 52.3636363636364  C 60.6891025641026 52.3636363636364  61.9511217948718 52.9393939393939  63.0168269230769 54.0909090909091  Z M 69.2007211538461 6.68181818181818  C 69.7335737179487 7.25757575757575  70 7.93939393939393  70 8.72727272727273  L 70 32  C 70 32.7272727272727  69.7686298076923 33.3712121212121  69.3058894230769 33.9318181818182  C 68.8431490384615 34.4924242424242  68.2752403846154 34.8181818181818  67.6021634615385 34.9090909090909  L 23.6838942307692 40.4545454545455  C 24.0484775641026 42.2727272727273  24.2307692307692 43.3333333333333  24.2307692307692 43.6363636363636  C 24.2307692307692 44.1212121212121  23.8942307692308 45.0909090909091  23.2211538461538 46  L 61.9230769230769 46  C 62.6522435897436 46.5454545454545  63.2832532051282 46.8333333333333  63.8161057692308 47.4090909090909  C 64.3489583333333 47.9848484848485  64.6153846153846 48.6666666666667  64.6153846153846 49.4545454545455  C 64.6153846153846 50.2424242424242  64.3489583333333 50.9242424242424  63.8161057692308 51.5  C 63.2832532051282 52.0757575757576  62.6522435897436 52.3636363636364  61.9230769230769 52  L 18.8461538461538 52  C 18.1169871794872 52.3636363636364  17.4859775641026 52.0757575757576  16.953125 51.5  C 16.4202724358974 50.9242424242424  16.1538461538462 50.2424242424242  16.1538461538462 49.4545454545455  C 16.1538461538462 49.1212121212121  16.2660256410256 48.6439393939394  16.4903846153846 48.0227272727273  C 16.7147435897436 47.4015151515151  16.9391025641026 46.8560606060606  17.1634615384615 46.3863636363636  C 17.3878205128205 45.9166666666667  17.6893028846154 45.3106060606061  18.0679086538462 44.5681818181818  C 18.4465144230769 43.8257575757576  18.6638621794872 43.3787878787879  18.7199519230769 43.2272727272727  L 11.2740384615385 5.81818181818182  L 2.69230769230769 5.81818181818182  C 1.96314102564103 5.81818181818182  1.33213141025641 5.53030303030302  0.799278846153846 4.95454545454545  C 0.266426282051282 4.37878787878788  0 3.6969696969697  0 2.90909090909091  C 0 2.12121212121212  0.266426282051282 1.43939393939393  0.799278846153846 0.863636363636367  C 1.33213141025641 0.287878787878782  1.96314102564103 0  2.69230769230769 0  L 13.4615384615385 0  C 13.9102564102564 0  14.3098958333333 0.0984848484848442  14.6604567307692 0.295454545454547  C 15.0110176282051 0.492424242424242  15.2844551282051 0.727272727272727  15.4807692307692 1  C 15.6770833333333 1.27272727272727  15.859375 1.64393939393938  16.0276442307692 2.11363636363637  C 16.1959134615385 2.58333333333333  16.308092948718 2.97727272727273  16.3641826923077 3.29545454545455  C 16.4202724358974 3.61363636363637  16.4973958333333 4.06060606060606  16.5955528846154 4.63636363636363  C 16.6937099358974 5.2121212121212  16.7568108974359 5.6060606060606  16.7848557692308 6  L 67.3076923076923 6  C 68.036858974359 5.81818181818182  68.6678685897436 6.1060606060606  69.2007211538461 6.68181818181818  Z " fill-rule="nonzero" fill="#434343" stroke="none" transform="matrix(1 0 0 1 944 186 )" />
  </g>
</svg>