<?xml version="1.0" encoding="utf-8"?>
<svg version="1.1" xmlns:xlink="http://www.w3.org/1999/xlink" width="73px" height="62px" xmlns="http://www.w3.org/2000/svg">
  <g transform="matrix(1 0 0 1 -1053 -186 )">
    <path d="M 72.2260044642857 20.57625  C 72.7420014880952 21.0670833333333  73 21.6483333333333  73 22.32  C 73 22.9916666666667  72.7420014880952 23.5729166666667  72.2260044642857 24.06375  L 51.3688616071429 43.90375  C 50.8528645833333 44.3945833333333  50.2418154761905 44.64  49.5357142857143 44.64  C 48.8296130952381 44.64  48.2185639880952 44.3945833333333  47.7025669642857 43.90375  C 47.1865699404762 43.4129166666667  46.9285714285714 42.8316666666667  46.9285714285714 42.16  L 46.9285714285714 32.24  L 37.8035714285714 32.24  C 35.1421130952381 32.24  32.759021577381 32.3175  30.654296875 32.4725  C 28.549572172619 32.6275  26.4584263392857 32.9052083333333  24.380859375 33.305625  C 22.3032924107143 33.7060416666667  20.497302827381 34.255  18.962890625 34.9525  C 17.4284784226191 35.65  15.9959077380952 36.5477083333333  14.6651785714286 37.645625  C 13.3344494047619 38.7435416666667  12.2481398809524 40.048125  11.40625 41.559375  C 10.5643601190476 43.070625  9.9057849702381 44.8595833333333  9.43052455357143 46.92625  C 8.95526413690476 48.9929166666667  8.71763392857143 51.3308333333333  8.71763392857143 53.94  C 8.71763392857143 55.3608333333333  8.78552827380953 56.9495833333333  8.92131696428571 58.70625  C 8.92131696428572 58.86125  8.95526413690476 59.1647916666667  9.02315848214286 59.616875  C 9.09105282738095 60.0689583333333  9.125 60.41125  9.125 60.64375  C 9.125 61.03125  9.00957961309524 61.3541666666667  8.77873883928571 61.6125  C 8.54789806547619 61.8708333333333  8.22879464285714 62  7.82142857142857 62  C 7.38690476190476 62  7.00669642857143 61.7804166666667  6.68080357142857 61.34125  C 6.49069940476191 61.10875  6.31417410714286 60.8245833333333  6.15122767857143 60.48875  C 5.98828125 60.1529166666667  5.80496651785714 59.7654166666667  5.60128348214286 59.32625  C 5.39760044642857 58.8870833333333  5.25502232142857 58.5770833333333  5.17354910714286 58.39625  C 1.72451636904762 51.03375  0 45.2083333333333  0 40.92  C 0 35.7791666666667  0.719680059523809 31.4779166666667  2.15904017857143 28.01625  C 6.55859375 17.6054166666667  18.4401041666667 12.4  37.8035714285714 12.4  L 46.9285714285714 12.4  L 46.9285714285714 2.48  C 46.9285714285714 1.80833333333333  47.1865699404762 1.22708333333333  47.7025669642857 0.736249999999998  C 48.2185639880952 0.245416666666664  48.8296130952381 0  49.5357142857143 0  C 50.2418154761905 0  50.8528645833333 0.245416666666664  51.3688616071429 0.736249999999998  L 72.2260044642857 20.57625  Z " fill-rule="nonzero" fill="#434343" stroke="none" transform="matrix(1 0 0 1 1053 186 )" />
  </g>
</svg>