<?xml version="1.0" encoding="utf-8"?>
<svg version="1.1" xmlns:xlink="http://www.w3.org/1999/xlink" width="29px" height="44px" xmlns="http://www.w3.org/2000/svg">
  <g transform="matrix(1 0 0 1 -1103 -1197 )">
    <path d="M 28.5017182130584 20.9859719438878  C 28.8339060710195 21.2798931195725  29 21.6179024716099  29 22  C 29 22.3820975283901  28.8339060710195 22.7201068804275  28.5017182130584 23.0140280561122  L 5.28178694158076 43.5591182364729  C 4.9495990836197 43.8530394121576  4.56758304696449 44  4.13573883161512 44  C 3.70389461626575 44  3.32187857961054 43.8530394121576  2.98969072164948 43.5591182364729  L 0.498281786941581 41.3547094188377  C 0.166093928980527 41.060788243153  0 40.7227788911156  0 40.3406813627254  C 0 39.9585838343353  0.166093928980527 39.6205744822979  0.498281786941581 39.3266533066132  L 20.0807560137457 22  L 0.498281786941581 4.67334669338677  C 0.166093928980527 4.37942551770207  0 4.04141616566466  0 3.65931863727455  C 0 3.27722110888443  0.166093928980527 2.93921175684702  0.498281786941581 2.64529058116232  L 2.98969072164948 0.440881763527055  C 3.32187857961054 0.14696058784235  3.70389461626575 0  4.13573883161512 0  C 4.56758304696449 0  4.9495990836197 0.14696058784235  5.28178694158076 0.440881763527055  L 28.5017182130584 20.9859719438878  Z " fill-rule="nonzero" fill="#000000" stroke="none" transform="matrix(1 0 0 1 1103 1197 )" />
  </g>
</svg>