<?xml version="1.0" encoding="utf-8"?>
<svg version="1.1" xmlns:xlink="http://www.w3.org/1999/xlink" width="126px" height="135px" xmlns="http://www.w3.org/2000/svg">
  <g transform="matrix(1 0 0 1 -114 -1284 )">
    <path d="M 177 1284  C 212.28 1284  240 1313.7  240 1351.5  C 240 1389.3  212.28 1419  177 1419  C 141.72 1419  114 1389.3  114 1351.5  C 114 1313.7  141.72 1284  177 1284  Z " fill-rule="nonzero" fill="#ffffff" stroke="none" />
    <path d="M 177 1284.5  C 212 1284.5  239.5 1313.98  239.5 1351.5  C 239.5 1389.02  212 1418.5  177 1418.5  C 142 1418.5  114.5 1389.02  114.5 1351.5  C 114.5 1313.98  142 1284.5  177 1284.5  Z " stroke-width="1" stroke="#797979" fill="none" />
  </g>
</svg>