<svg t="1624622649216" class="icon" viewBox="0 0 1024 1024" version="1.1" xmlns="http://www.w3.org/2000/svg" p-id="9904" width="200" height="200"><path d="M915.2 450.133333c-12.8-12.8-32-21.333333-49.066667-23.466666-25.6-187.733333-177.066667-328.533333-356.266666-328.533334-183.466667 0-332.8 140.8-358.4 330.666667-38.4 6.4-66.133333 38.4-66.133334 76.8v100.266667c0 42.666667 36.266667 78.933333 78.933334 78.933333H192c42.666667 0 78.933333-36.266667 78.933333-78.933333v-100.266667c0-42.666667-34.133333-78.933333-76.8-78.933333 23.466667-164.266667 155.733333-285.866667 313.6-285.866667 155.733333 0 288 121.6 313.6 285.866667-38.4 4.266667-70.4 38.4-70.4 78.933333v100.266667c0 34.133333 23.466667 64 53.333334 74.666666-36.266667 91.733333-91.733333 140.8-170.666667 155.733334-8.533333-25.6-34.133333-44.8-64-44.8h-91.733333c-38.4 0-68.266667 29.866667-68.266667 68.266666v10.666667c0 38.4 29.866667 68.266667 68.266667 68.266667h91.733333c34.133333 0 61.866667-25.6 68.266667-57.6 100.266667-17.066667 168.533333-81.066667 211.2-194.133334h8.533333c42.666667 0 78.933333-36.266667 78.933333-78.933333v-100.266667c2.133333-23.466667-6.4-42.666667-21.333333-57.6z m-686.933333 55.466667v100.266667c0 19.2-17.066667 36.266667-36.266667 36.266666H164.266667c-19.2 0-36.266667-17.066667-36.266667-36.266666v-100.266667c0-19.2 17.066667-36.266667 36.266667-36.266667H192c21.333333 0 36.266667 17.066667 36.266667 36.266667zM597.333333 870.4c0 14.933333-10.666667 25.6-25.6 25.6h-91.733333c-14.933333 0-25.6-10.666667-25.6-25.6v-10.666667c0-14.933333 10.666667-25.6 25.6-25.6h91.733333c14.933333 0 25.6 10.666667 25.6 25.6v10.666667z m298.666667-264.533333c0 19.2-17.066667 36.266667-36.266667 36.266666H832c-19.2 0-36.266667-17.066667-36.266667-36.266666v-100.266667c0-19.2 17.066667-36.266667 36.266667-36.266667h27.733333c8.533333 0 19.2 4.266667 25.6 10.666667 6.4 6.4 10.666667 14.933333 10.666667 25.6v100.266667z" fill="#595959" p-id="9905"></path></svg>