<?xml version="1.0" encoding="utf-8"?>
<svg version="1.1" xmlns:xlink="http://www.w3.org/1999/xlink" width="116px" height="72px" xmlns="http://www.w3.org/2000/svg">
  <g transform="matrix(1 0 0 1 -1026 -912 )">
    <path d="M 2.888671875 49.978125  C 0.962890625 45.534375  0 40.875  0 36  C 0 31.125  0.962890625 26.465625  2.888671875 22.021875  C 4.814453125 17.578125  7.3916015625 13.753125  10.6201171875 10.546875  C 13.8486328125 7.340625  17.7001953125 4.78125  22.1748046875 2.86875  C 26.6494140625 0.956250000000002  31.3411458333333 0  36.25 0  L 79.75 0  C 84.6588541666667 0  89.3505859375 0.956250000000002  93.8251953125 2.86875  C 98.2998046875 4.78125  102.1513671875 7.340625  105.3798828125 10.546875  C 108.6083984375 13.753125  111.185546875 17.578125  113.111328125 22.021875  C 115.037109375 26.465625  116 31.125  116 36  C 116 40.875  115.037109375 45.534375  113.111328125 49.978125  C 111.185546875 54.421875  108.6083984375 58.246875  105.3798828125 61.453125  C 102.1513671875 64.659375  98.2998046875 67.21875  93.8251953125 69.13125  C 89.3505859375 71.04375  84.6588541666667 72  79.75 72  L 36.25 72  C 31.3411458333333 72  26.6494140625 71.04375  22.1748046875 69.13125  C 17.7001953125 67.21875  13.8486328125 64.659375  10.6201171875 61.453125  C 7.3916015625 58.246875  4.814453125 54.421875  2.888671875 49.978125  Z M 68.5068359375 62.521875  C 72.0751953125 64.040625  75.8229166666667 64.8  79.75 64.8  C 83.6770833333333 64.8  87.4248046875 64.040625  90.9931640625 62.521875  C 94.5615234375 61.003125  97.6484375 58.95  100.25390625 56.3625  C 102.859375 53.775  104.9267578125 50.709375  106.4560546875 47.165625  C 107.9853515625 43.621875  108.75 39.9  108.75 36  C 108.75 32.1  107.9853515625 28.378125  106.4560546875 24.834375  C 104.9267578125 21.290625  102.859375 18.225  100.25390625 15.6375  C 97.6484375 13.05  94.5615234375 10.996875  90.9931640625 9.478125  C 87.4248046875 7.959375  83.6770833333333 7.2  79.75 7.2  C 75.8229166666667 7.2  72.0751953125 7.959375  68.5068359375 9.478125  C 64.9384765625 10.996875  61.8515625 13.05  59.24609375 15.6375  C 56.640625 18.225  54.5732421875 21.290625  53.0439453125 24.834375  C 51.5146484375 28.378125  50.75 32.1  50.75 36  C 50.75 39.9  51.5146484375 43.621875  53.0439453125 47.165625  C 54.5732421875 50.709375  56.640625 53.775  59.24609375 56.3625  C 61.8515625 58.95  64.9384765625 61.003125  68.5068359375 62.521875  Z " fill-rule="nonzero" fill="#fa541c" stroke="none" transform="matrix(1 0 0 1 1026 912 )" />
  </g>
</svg>