<?xml version="1.0" encoding="utf-8"?>
<svg version="1.1" xmlns:xlink="http://www.w3.org/1999/xlink" width="140px" height="163px" xmlns="http://www.w3.org/2000/svg">
  <g transform="matrix(1 0 0 1 -380 -465 )">
    <path d="M 29.6223958333333 65.9458705357143  C 42.1397569444444 68.5533854166667  55.5989583333333 69.8571428571429  70 69.8571428571429  C 84.4010416666667 69.8571428571429  97.8602430555556 68.5533854166667  110.377604166667 65.9458705357143  C 122.894965277778 63.3383556547619  132.769097222222 59.4877232142857  140 54.3939732142857  L 140 69.8571428571429  C 140 74.0412946428571  136.870659722222 77.9222470238095  130.611979166667 81.5  C 124.353298611111 85.0777529761905  115.846354166667 87.9126674107143  105.091145833333 90.0047433035714  C 94.3359375 92.0968191964286  82.6388888888889 93.1428571428571  70 93.1428571428571  C 57.3611111111111 93.1428571428571  45.6640625 92.0968191964286  34.9088541666667 90.0047433035714  C 24.1536458333333 87.9126674107143  15.6467013888889 85.0777529761905  9.38802083333333 81.5  C 3.12934027777778 77.9222470238095  0 74.0412946428571  0 69.8571428571429  L 0 54.3939732142857  C 7.23090277777778 59.4877232142857  17.1050347222222 63.3383556547619  29.6223958333333 65.9458705357143  Z M 29.6223958333333 135.803013392857  C 42.1397569444444 138.41052827381  55.5989583333333 139.714285714286  70 139.714285714286  C 84.4010416666667 139.714285714286  97.8602430555556 138.41052827381  110.377604166667 135.803013392857  C 122.894965277778 133.195498511905  132.769097222222 129.344866071429  140 124.251116071429  L 140 139.714285714286  C 140 143.8984375  136.870659722222 147.779389880952  130.611979166667 151.357142857143  C 124.353298611111 154.934895833333  115.846354166667 157.769810267857  105.091145833333 159.861886160714  C 94.3359375 161.953962053571  82.6388888888889 163  70 163  C 57.3611111111111 163  45.6640625 161.953962053571  34.9088541666667 159.861886160714  C 24.1536458333333 157.769810267857  15.6467013888889 154.934895833333  9.38802083333333 151.357142857143  C 3.12934027777778 147.779389880952  0 143.8984375  0 139.714285714286  L 0 124.251116071429  C 7.23090277777778 129.344866071429  17.1050347222222 133.195498511905  29.6223958333333 135.803013392857  Z M 29.6223958333333 100.874441964286  C 42.1397569444444 103.481956845238  55.5989583333333 104.785714285714  70 104.785714285714  C 84.4010416666667 104.785714285714  97.8602430555556 103.481956845238  110.377604166667 100.874441964286  C 122.894965277778 98.2669270833333  132.769097222222 94.4162946428571  140 89.3225446428571  L 140 104.785714285714  C 140 108.969866071429  136.870659722222 112.850818452381  130.611979166667 116.428571428571  C 124.353298611111 120.006324404762  115.846354166667 122.841238839286  105.091145833333 124.933314732143  C 94.3359375 127.025390625  82.6388888888889 128.071428571429  70 128.071428571429  C 57.3611111111111 128.071428571429  45.6640625 127.025390625  34.9088541666667 124.933314732143  C 24.1536458333333 122.841238839286  15.6467013888889 120.006324404762  9.38802083333333 116.428571428571  C 3.12934027777778 112.850818452381  0 108.969866071429  0 104.785714285714  L 0 89.3225446428571  C 7.23090277777778 94.4162946428571  17.1050347222222 98.2669270833333  29.6223958333333 100.874441964286  Z M 34.9088541666667 3.13811383928571  C 45.6640625 1.04603794642857  57.3611111111111 0  70 0  C 82.6388888888889 0  94.3359375 1.04603794642857  105.091145833333 3.13811383928571  C 115.846354166667 5.23018973214286  124.353298611111 8.06510416666666  130.611979166667 11.6428571428571  C 136.870659722222 15.2206101190476  140 19.1015625  140 23.2857142857143  L 140 34.9285714285714  C 140 39.1127232142857  136.870659722222 42.9936755952381  130.611979166667 46.5714285714286  C 124.353298611111 50.149181547619  115.846354166667 52.9840959821429  105.091145833333 55.076171875  C 94.3359375 57.1682477678571  82.6388888888889 58.2142857142857  70 58.2142857142857  C 57.3611111111111 58.2142857142857  45.6640625 57.1682477678571  34.9088541666667 55.076171875  C 24.1536458333333 52.9840959821429  15.6467013888889 50.149181547619  9.38802083333333 46.5714285714286  C 3.12934027777778 42.9936755952381  0 39.1127232142857  0 34.9285714285714  L 0 23.2857142857143  C 0 19.1015625  3.12934027777778 15.2206101190476  9.38802083333333 11.6428571428571  C 15.6467013888889 8.06510416666666  24.1536458333333 5.23018973214286  34.9088541666667 3.13811383928571  Z " fill-rule="nonzero" fill="#ffffff" stroke="none" transform="matrix(1 0 0 1 380 465 )" />
  </g>
</svg>