<?xml version="1.0" encoding="utf-8"?>
<svg version="1.1" xmlns:xlink="http://www.w3.org/1999/xlink" width="170px" height="156px" xmlns="http://www.w3.org/2000/svg">
  <g transform="matrix(1 0 0 1 -767 -467 )">
    <path d="M 161.326530612245 31.1796875  C 163.91156462585 32.1953125  165.918367346939 33.6510416666667  167.34693877551 35.546875  C 170.068027210884 39.40625  170.680272108844 43.7734375  169.183673469388 48.6484375  L 141.122448979592 140.6640625  C 139.829931972789 144.997395833333  137.227891156463 148.63671875  133.316326530612 151.58203125  C 129.404761904762 154.52734375  125.238095238095 156  120.816326530612 156  L 26.6326530612245 156  C 21.3945578231293 156  16.343537414966 154.188802083333  11.4795918367347 150.56640625  C 6.6156462585034 146.944010416667  3.2312925170068 142.4921875  1.3265306122449 137.2109375  C -0.306122448979592 132.674479166667  -0.374149659863946 128.375  1.12244897959184 124.3125  C 1.12244897959184 124.041666666667  1.22448979591837 123.127604166667  1.42857142857143 121.5703125  C 1.63265306122449 120.013020833333  1.7687074829932 118.760416666667  1.83673469387755 117.8125  C 1.9047619047619 117.270833333333  1.80272108843537 116.54296875  1.53061224489796 115.62890625  C 1.25850340136054 114.71484375  1.15646258503401 114.0546875  1.22448979591837 113.6484375  C 1.36054421768707 112.903645833333  1.63265306122449 112.192708333333  2.04081632653061 111.515625  C 2.44897959183673 110.838541666667  3.01020408163265 110.04296875  3.72448979591837 109.12890625  C 4.43877551020408 108.21484375  5 107.419270833333  5.40816326530612 106.7421875  C 6.97278911564626 104.169270833333  8.50340136054422 101.071614583333  10 97.44921875  C 11.4965986394558 93.8268229166667  12.5170068027211 90.7291666666666  13.0612244897959 88.15625  C 13.265306122449 87.4791666666667  13.2823129251701 86.4635416666666  13.1122448979592 85.109375  C 12.9421768707483 83.7552083333333  12.9251700680272 82.8072916666666  13.0612244897959 82.265625  C 13.265306122449 81.5208333333333  13.843537414966 80.5729166666667  14.7959183673469 79.421875  C 15.7482993197279 78.2708333333333  16.3265306122449 77.4921875  16.530612244898 77.0859375  C 17.9591836734694 74.6484375  19.3877551020408 71.5338541666667  20.8163265306122 67.7421875  C 22.2448979591837 63.9505208333333  23.0952380952381 60.9036458333333  23.3673469387755 58.6015625  C 23.4353741496599 57.9921875  23.3503401360544 56.9088541666667  23.1122448979592 55.3515625  C 22.8741496598639 53.7942708333333  22.891156462585 52.8463541666667  23.1632653061225 52.5078125  C 23.4353741496599 51.6276041666667  24.1836734693878 50.5950520833333  25.4081632653061 49.41015625  C 26.6326530612245 48.2252604166667  27.3809523809524 47.4635416666667  27.6530612244898 47.125  C 28.9455782312925 45.3645833333333  30.391156462585 42.50390625  31.9897959183673 38.54296875  C 33.5884353741497 34.58203125  34.5238095238095 31.3151041666667  34.7959183673469 28.7421875  C 34.8639455782313 28.2005208333333  34.7619047619048 27.3372395833333  34.4897959183673 26.15234375  C 34.2176870748299 24.9674479166667  34.1496598639456 24.0703125  34.2857142857143 23.4609375  C 34.421768707483 22.9192708333333  34.7278911564626 22.3098958333333  35.2040816326531 21.6328125  C 35.6802721088435 20.9557291666667  36.2925170068027 20.1770833333333  37.0408163265306 19.296875  C 37.7891156462585 18.4166666666667  38.3673469387755 17.7057291666667  38.7755102040816 17.1640625  C 39.3197278911565 16.3515625  39.8809523809524 15.3190104166667  40.4591836734694 14.06640625  C 41.0374149659864 12.8138020833333  41.5476190476191 11.62890625  41.9897959183673 10.51171875  C 42.4319727891156 9.39453124999999  42.9761904761905 8.17578124999999  43.6224489795918 6.85546875  C 44.2687074829932 5.53515625000001  44.9319727891156 4.45182291666666  45.6122448979592 3.60546874999999  C 46.2925170068027 2.75911458333331  47.1938775510204 1.96354166666665  48.3163265306122 1.21875  C 49.4387755102041 0.473958333333312  50.6632653061225 0.0846354166666647  51.9897959183673 0.0507812500000058  C 53.3163265306122 0.0169270833333122  54.9319727891156 0.203125000000006  56.8367346938775 0.609375  L 56.734693877551 0.9140625  C 59.3197278911565 0.3046875  61.0544217687075 0  61.9387755102041 0  L 139.591836734694 0  C 144.625850340136 0  148.503401360544 1.89583333333332  151.224489795918 5.68750000000001  C 153.945578231293 9.47916666666666  154.557823129252 13.8802083333333  153.061224489796 18.890625  L 125.102040816327 110.90625  C 122.65306122449 118.963541666667  120.221088435374 124.16015625  117.80612244898 126.49609375  C 115.391156462585 128.83203125  111.020408163265 130  104.69387755102 130  L 16.0204081632653 130  C 14.1836734693878 130  12.891156462585 130.5078125  12.1428571428571 131.5234375  C 11.3945578231293 132.606770833333  11.3605442176871 134.0625  12.0408163265306 135.890625  C 13.6734693877551 140.630208333333  18.5714285714286 143  26.734693877551 143  L 120.918367346939 143  C 122.891156462585 143  124.795918367347 142.475260416667  126.632653061225 141.42578125  C 128.469387755102 140.376302083333  129.659863945578 138.971354166667  130.204081632653 137.2109375  L 160.816326530612 36.96875  C 161.292517006803 35.4791666666667  161.462585034014 33.5494791666667  161.326530612245 31.1796875  Z M 60.9183673469388 29.25  L 58.7755102040816 35.75  C 58.5034013605442 36.6302083333333  58.5714285714286 37.3919270833333  58.9795918367347 38.03515625  C 59.3877551020408 38.6783854166667  60.0680272108844 39  61.0204081632653 39  L 123.061224489796 39  C 123.945578231293 39  124.812925170068 38.6783854166667  125.663265306122 38.03515625  C 126.513605442177 37.3919270833333  127.074829931973 36.6302083333333  127.34693877551 35.75  L 129.489795918367 29.25  C 129.761904761905 28.3697916666667  129.69387755102 27.6080729166667  129.285714285714 26.96484375  C 128.877551020408 26.3216145833333  128.197278911565 26  127.244897959184 26  L 65.2040816326531 26  C 64.3197278911565 26  63.452380952381 26.3216145833333  62.6020408163265 26.96484375  C 61.7517006802721 27.6080729166667  61.1904761904762 28.3697916666667  60.9183673469388 29.25  Z M 52.4489795918367 55.25  L 50.3061224489796 61.75  C 50.0340136054422 62.6302083333333  50.1020408163265 63.3919270833333  50.5102040816327 64.03515625  C 50.9183673469388 64.6783854166667  51.5986394557823 65  52.5510204081633 65  L 114.591836734694 65  C 115.47619047619 65  116.343537414966 64.6783854166667  117.19387755102 64.03515625  C 118.044217687075 63.3919270833333  118.605442176871 62.6302083333333  118.877551020408 61.75  L 121.020408163265 55.25  C 121.292517006803 54.3697916666667  121.224489795918 53.6080729166667  120.816326530612 52.96484375  C 120.408163265306 52.3216145833333  119.727891156463 52  118.775510204082 52  L 56.734693877551 52  C 55.8503401360544 52  54.9829931972789 52.3216145833333  54.1326530612245 52.96484375  C 53.2823129251701 53.6080729166667  52.7210884353742 54.3697916666667  52.4489795918367 55.25  Z " fill-rule="nonzero" fill="#ffffff" stroke="none" transform="matrix(1 0 0 1 767 467 )" />
  </g>
</svg>