<?xml version="1.0" encoding="utf-8"?>
<svg version="1.1" xmlns:xlink="http://www.w3.org/1999/xlink" width="100px" height="68px" xmlns="http://www.w3.org/2000/svg">
  <g transform="matrix(1 0 0 1 -625 -1091 )">
    <path d="M 50 37  L 50 19  L 32 19  L 32 37  L 50 37  Z M 25 49  L 56.25 49  L 56.25 55  L 25 55  L 25 49  Z M 25 13  L 56 13  L 56 43  L 25 43  L 25 13  Z M 62.5 49  L 87.5 49  L 87.5 55  L 62.5 55  L 62.5 49  Z M 62.5 37  L 87.5 37  L 87.5 43  L 62.5 43  L 62.5 37  Z M 62.5 25  L 87.5 25  L 87.5 31  L 62.5 31  L 62.5 25  Z M 62.5 13  L 87.5 13  L 87.5 19  L 62.5 19  L 62.5 13  Z M 11.572265625 60.9005681818182  C 12.1907552083333 60.2888257575758  12.5 59.5643939393939  13 58.7272727272727  L 13 12.3636363636364  L 7 12.3636363636364  L 7 58.7272727272727  C 6.25 59.5643939393939  6.55924479166667 60.2888257575758  7.177734375 60.9005681818182  C 7.79622395833333 61.5123106060606  8.52864583333333 61.8181818181818  9.375 61.8181818181818  C 10.2213541666667 61.8181818181818  10.9537760416667 61.5123106060606  11.572265625 60.9005681818182  Z M 92.822265625 60.9005681818182  C 93.4407552083333 60.2888257575758  93.75 59.5643939393939  93 58.7272727272727  L 93 7  L 19 7  L 19 58.7272727272727  C 18.75 59.7897727272727  18.5709635416667 60.8200757575758  18.212890625 61  L 90.625 61  C 91.4713541666667 61.8181818181818  92.2037760416667 61.5123106060606  92.822265625 60.9005681818182  Z M 12.5 0  L 100 0  L 100 58.7272727272727  C 100 61.3030303030303  99.0885416666667 63.4924242424242  97.265625 65.2954545454545  C 95.4427083333333 67.0984848484848  93.2291666666667 68  90.625 68  L 9.375 68  C 6.77083333333333 68  4.55729166666667 67.0984848484848  2.734375 65.2954545454545  C 0.911458333333333 63.4924242424242  0 61.3030303030303  0 58.7272727272727  L 0 7  L 12.5 7  L 12.5 0  Z " fill-rule="nonzero" fill="#555555" stroke="none" transform="matrix(1 0 0 1 625 1091 )" />
  </g>
</svg>