<?xml version="1.0" encoding="utf-8"?>
<svg version="1.1" xmlns:xlink="http://www.w3.org/1999/xlink" width="100px" height="80px" xmlns="http://www.w3.org/2000/svg">
  <g transform="matrix(1 0 0 1 -289 -1085 )">
    <path d="M 8.33333333333333 0  L 91.6666666666667 0  C 93.9583333333333 0  95.9201388888889 0.815972222222214  97.5520833333333 2.44791666666667  C 99.1840277777778 4.07986111111111  100 6.04166666666667  100 8.33333333333333  L 100 71.6666666666667  C 100 73.9583333333333  99.1840277777778 75.9201388888889  97.5520833333333 77.5520833333333  C 95.9201388888889 79.1840277777778  93.9583333333333 80  91.6666666666667 80  L 8.33333333333333 80  C 6.04166666666667 80  4.07986111111111 79.1840277777778  2.44791666666667 77.5520833333333  C 0.815972222222222 75.9201388888889  0 73.9583333333333  0 71.6666666666667  L 0 8.33333333333333  C 0 6.04166666666667  0.815972222222222 4.07986111111111  2.44791666666667 2.44791666666667  C 4.07986111111111 0.815972222222214  6.04166666666667 0  8.33333333333333 0  Z M 91.6666666666667 7  L 8.33333333333333 7  C 7.88194444444445 6.66666666666667  7.49131944444445 6.83159722222221  7.16145833333333 7.16145833333333  C 6.83159722222222 7.49131944444444  6.66666666666667 7.88194444444444  7 8.33333333333333  L 7 20  L 93 20  L 93 8.33333333333333  C 93.3333333333333 7.88194444444444  93.1684027777778 7.49131944444444  92.8385416666667 7.16145833333333  C 92.5086805555556 6.83159722222221  92.1180555555556 6.66666666666667  91.6666666666667 7  Z M 8.33333333333333 73  L 91.6666666666667 73  C 92.1180555555556 73.3333333333333  92.5086805555556 73.1684027777778  92.8385416666667 72.8385416666667  C 93.1684027777778 72.5086805555556  93.3333333333333 72.1180555555556  93 71.6666666666667  L 93 40  L 7 40  L 7 71.6666666666667  C 6.66666666666667 72.1180555555556  6.83159722222222 72.5086805555556  7.16145833333333 72.8385416666667  C 7.49131944444445 73.1684027777778  7.88194444444445 73.3333333333333  8.33333333333333 73  Z M 26.6666666666667 66  L 13.3333333333333 66  L 13.3333333333333 60  L 26.6666666666667 60  L 26.6666666666667 66  Z M 53.3333333333333 66  L 33.3333333333333 66  L 33.3333333333333 60  L 53.3333333333333 60  L 53.3333333333333 66  Z " fill-rule="nonzero" fill="#555555" stroke="none" transform="matrix(1 0 0 1 289 1085 )" />
  </g>
</svg>