<?xml version="1.0" encoding="utf-8"?>
<svg version="1.1" xmlns:xlink="http://www.w3.org/1999/xlink" width="24px" height="24px" xmlns="http://www.w3.org/2000/svg">
  <g transform="matrix(1 0 0 1 -676 -797 )">
    <path d="M 688 797  C 694.72 797  700 802.28  700 809  C 700 815.72  694.72 821  688 821  C 681.28 821  676 815.72  676 809  C 676 802.28  681.28 797  688 797  Z " fill-rule="nonzero" fill="#7f7f7f" stroke="none" />
    <path d="M 688 797.5  C 694.44 797.5  699.5 802.56  699.5 809  C 699.5 815.44  694.44 820.5  688 820.5  C 681.56 820.5  676.5 815.44  676.5 809  C 676.5 802.56  681.56 797.5  688 797.5  Z " stroke-width="1" stroke="#797979" fill="none" />
  </g>
</svg>