<?xml version="1.0" encoding="utf-8"?>
<svg version="1.1" xmlns:xlink="http://www.w3.org/1999/xlink" width="95px" height="59px" xmlns="http://www.w3.org/2000/svg">
  <g transform="matrix(1 0 0 1 -1035 -2071 )">
    <path d="M 2.36572265625 40.954296875  C 0.78857421875 37.312890625  0 33.4947916666667  0 29.5  C 0 25.5052083333333  0.78857421875 21.687109375  2.36572265625 18.045703125  C 3.94287109375 14.404296875  6.053466796875 11.269921875  8.697509765625 8.642578125  C 11.341552734375 6.015234375  14.495849609375 3.91796875  18.160400390625 2.35078125  C 21.824951171875 0.783593750000001  25.6673177083333 0  29.6875 0  L 65.3125 0  C 69.3326822916667 0  73.175048828125 0.783593750000001  76.839599609375 2.35078125  C 80.504150390625 3.91796875  83.658447265625 6.015234375  86.302490234375 8.642578125  C 88.946533203125 11.269921875  91.05712890625 14.404296875  92.63427734375 18.045703125  C 94.21142578125 21.687109375  95 25.5052083333333  95 29.5  C 95 33.4947916666667  94.21142578125 37.312890625  92.63427734375 40.954296875  C 91.05712890625 44.595703125  88.946533203125 47.730078125  86.302490234375 50.357421875  C 83.658447265625 52.984765625  80.504150390625 55.08203125  76.839599609375 56.64921875  C 73.175048828125 58.21640625  69.3326822916667 59  65.3125 59  L 29.6875 59  C 25.6673177083333 59  21.824951171875 58.21640625  18.160400390625 56.64921875  C 14.495849609375 55.08203125  11.341552734375 52.984765625  8.697509765625 50.357421875  C 6.053466796875 47.730078125  3.94287109375 44.595703125  2.36572265625 40.954296875  Z M 56.104736328125 51.233203125  C 59.027099609375 52.477734375  62.0963541666667 53.1  65.3125 53.1  C 68.5286458333333 53.1  71.597900390625 52.477734375  74.520263671875 51.233203125  C 77.442626953125 49.988671875  79.970703125 48.30625  82.1044921875 46.1859375  C 84.23828125 44.065625  85.931396484375 41.553515625  87.183837890625 38.649609375  C 88.436279296875 35.745703125  89.0625 32.6958333333333  89.0625 29.5  C 89.0625 26.3041666666667  88.436279296875 23.254296875  87.183837890625 20.350390625  C 85.931396484375 17.446484375  84.23828125 14.934375  82.1044921875 12.8140625  C 79.970703125 10.69375  77.442626953125 9.011328125  74.520263671875 7.766796875  C 71.597900390625 6.522265625  68.5286458333333 5.9  65.3125 5.9  C 62.0963541666667 5.9  59.027099609375 6.522265625  56.104736328125 7.766796875  C 53.182373046875 9.011328125  50.654296875 10.69375  48.5205078125 12.8140625  C 46.38671875 14.934375  44.693603515625 17.446484375  43.441162109375 20.350390625  C 42.188720703125 23.254296875  41.5625 26.3041666666667  41.5625 29.5  C 41.5625 32.6958333333333  42.188720703125 35.745703125  43.441162109375 38.649609375  C 44.693603515625 41.553515625  46.38671875 44.065625  48.5205078125 46.1859375  C 50.654296875 48.30625  53.182373046875 49.988671875  56.104736328125 51.233203125  Z " fill-rule="nonzero" fill="#fa541c" stroke="none" transform="matrix(1 0 0 1 1035 2071 )" />
  </g>
</svg>