<?xml version="1.0" encoding="utf-8"?>
<svg version="1.1" xmlns:xlink="http://www.w3.org/1999/xlink" width="170px" height="170px" xmlns="http://www.w3.org/2000/svg">
  <g transform="matrix(1 0 0 1 -188 -416 )">
    <path d="M 273 416  C 320.6 416  358 453.4  358 501  C 358 548.6  320.6 586  273 586  C 225.4 586  188 548.6  188 501  C 188 453.4  225.4 416  273 416  Z " fill-rule="nonzero" fill="#ffffff" stroke="none" />
    <path d="M 273 416.5  C 320.32 416.5  357.5 453.68  357.5 501  C 357.5 548.32  320.32 585.5  273 585.5  C 225.68 585.5  188.5 548.32  188.5 501  C 188.5 453.68  225.68 416.5  273 416.5  Z " stroke-width="1" stroke="#797979" fill="none" />
  </g>
</svg>