<?xml version="1.0" encoding="utf-8"?>
<svg version="1.1" xmlns:xlink="http://www.w3.org/1999/xlink" width="205px" height="205px" xmlns="http://www.w3.org/2000/svg">
  <defs>
    <filter x="934px" y="2067px" width="205px" height="205px" filterUnits="userSpaceOnUse" id="filter271">
      <feOffset dx="0" dy="0" in="SourceAlpha" result="shadowOffsetInner" />
      <feGaussianBlur stdDeviation="5" in="shadowOffsetInner" result="shadowGaussian" />
      <feComposite in2="shadowGaussian" operator="atop" in="SourceAlpha" result="shadowComposite" />
      <feColorMatrix type="matrix" values="0 0 0 0 0  0 0 0 0 0  0 0 0 0 0  0 0 0 0.349019607843137 0  " in="shadowComposite" />
    </filter>
    <g id="widget272">
      <path d="M 1036.5 2077  C 1088.3 2077  1129 2117.7  1129 2169.5  C 1129 2221.3  1088.3 2262  1036.5 2262  C 984.7 2262  944 2221.3  944 2169.5  C 944 2117.7  984.7 2077  1036.5 2077  Z " fill-rule="nonzero" fill="#ffffff" stroke="none" />
      <path d="M 1036.5 2077.5  C 1088.02 2077.5  1128.5 2117.98  1128.5 2169.5  C 1128.5 2221.02  1088.02 2261.5  1036.5 2261.5  C 984.98 2261.5  944.5 2221.02  944.5 2169.5  C 944.5 2117.98  984.98 2077.5  1036.5 2077.5  Z " stroke-width="1" stroke="#fa541c" fill="none" />
    </g>
  </defs>
  <g transform="matrix(1 0 0 1 -934 -2067 )">
    <use xlink:href="#widget272" filter="url(#filter271)" />
    <use xlink:href="#widget272" />
  </g>
</svg>