<?xml version="1.0" encoding="utf-8"?>
<svg version="1.1" xmlns:xlink="http://www.w3.org/1999/xlink" width="62px" height="74px" xmlns="http://www.w3.org/2000/svg">
  <g transform="matrix(1 0 0 1 -199 -780 )">
    <path d="M 61.58828125 53.5006510416667  C 61.8627604166667 55.9255642361111  62 58.5030381944444  62 61.2330729166667  C 62 64.7339409722222  60.9908854166667 67.7369791666667  58.97265625 70.2421875  C 56.9544270833333 72.7473958333333  54.5244791666667 74  51.6828125 74  L 10.3171875 74  C 7.47552083333333 74  5.04557291666667 72.7473958333333  3.02734375 70.2421875  C 1.00911458333333 67.7369791666667  0 64.7339409722222  0 61.2330729166667  C 0 58.5030381944444  0.137239583333334 55.9255642361111  0.41171875 53.5006510416667  C 0.686197916666667 51.0757378472222  1.19479166666667 48.634765625  1.9375 46.177734375  C 2.68020833333333 43.720703125  3.62473958333333 41.6169704861111  4.77109375 39.8665364583333  C 5.91744791666667 38.1161024305556  7.43515625 36.6868489583333  9.32421875 35.5787760416667  C 11.21328125 34.470703125  13.3848958333333 33.9166666666667  15.8390625 33.9166666666667  C 20.0692708333333 38.0277777777778  25.1229166666667 40.0833333333333  31 40.0833333333333  C 36.8770833333333 40.0833333333333  41.9307291666667 38.0277777777778  46.1609375 33.9166666666667  C 48.6151041666667 33.9166666666667  50.78671875 34.470703125  52.67578125 35.5787760416667  C 54.56484375 36.6868489583333  56.0825520833333 38.1161024305556  57.22890625 39.8665364583333  C 58.3752604166667 41.6169704861111  59.3197916666667 43.720703125  60.0625 46.177734375  C 60.8052083333333 48.634765625  61.3138020833333 51.0757378472222  61.58828125 53.5006510416667  Z M 44.15078125 5.419921875  C 47.78359375 9.033203125  49.6 13.3932291666667  49.6 18.5  C 49.6 23.6067708333333  47.78359375 27.966796875  44.15078125 31.580078125  C 40.51796875 35.193359375  36.134375 37  31 37  C 25.865625 37  21.48203125 35.193359375  17.84921875 31.580078125  C 14.21640625 27.966796875  12.4 23.6067708333333  12.4 18.5  C 12.4 13.3932291666667  14.21640625 9.033203125  17.84921875 5.419921875  C 21.48203125 1.806640625  25.865625 0  31 0  C 36.134375 0  40.51796875 1.806640625  44.15078125 5.419921875  Z " fill-rule="nonzero" fill="#ff8e6a" stroke="none" transform="matrix(1 0 0 1 199 780 )" />
  </g>
</svg>