<?xml version="1.0" encoding="utf-8"?>
<svg version="1.1" xmlns:xlink="http://www.w3.org/1999/xlink" width="62px" height="76px" xmlns="http://www.w3.org/2000/svg">
  <g transform="matrix(1 0 0 1 -199 -1068 )">
    <path d="M 18 24.1818181818182  L 18 35  L 44 35  L 44 24.1818181818182  C 44.7777777777778 20.3674242424242  43.4322916666667 17.1107954545455  40.7413194444444 14.4119318181818  C 38.0503472222222 11.7130681818182  34.8032407407407 10.3636363636364  31 10.3636363636364  C 27.1967592592593 10.3636363636364  23.9496527777778 11.7130681818182  21.2586805555556 14.4119318181818  C 18.5677083333333 17.1107954545455  17.2222222222222 20.3674242424242  18 24.1818181818182  Z M 60.4930555555556 36.0568181818182  C 61.4976851851852 37.0643939393939  62 38.2878787878788  62 39.7272727272727  L 62 70.8181818181818  C 62 72.2575757575758  61.4976851851852 73.4810606060606  60.4930555555556 74.4886363636364  C 59.4884259259259 75.4962121212121  58.2685185185185 76  56.8333333333333 76  L 5.16666666666667 76  C 3.73148148148148 76  2.51157407407407 75.4962121212121  1.50694444444444 74.4886363636364  C 0.502314814814815 73.4810606060606  0 72.2575757575758  0 70.8181818181818  L 0 39.7272727272727  C 0 38.2878787878788  0.502314814814815 37.0643939393939  1.50694444444444 36.0568181818182  C 2.51157407407407 35.0492424242424  3.73148148148148 34.5454545454545  5.16666666666667 34.5454545454545  L 7 34.5454545454545  L 7 24.1818181818182  C 6.88888888888889 17.5606060606061  9.25694444444444 11.875  13.9930555555556 7.125  C 18.7291666666667 2.375  24.3981481481481 0  31 0  C 37.6018518518519 0  43.2708333333333 2.375  48.0069444444444 7.125  C 52.7430555555556 11.875  55.1111111111111 17.5606060606061  55 24.1818181818182  L 55 34.5454545454545  L 56.8333333333333 34.5454545454545  C 58.2685185185185 34.5454545454545  59.4884259259259 35.0492424242424  60.4930555555556 36.0568181818182  Z " fill-rule="nonzero" fill="#ff8e6a" stroke="none" transform="matrix(1 0 0 1 199 1068 )" />
  </g>
</svg>