<?xml version="1.0" encoding="utf-8"?>
<svg version="1.1" xmlns:xlink="http://www.w3.org/1999/xlink" width="28px" height="50px" xmlns="http://www.w3.org/2000/svg">
  <g transform="matrix(1 0 0 1 -1046 -338 )">
    <path d="M 0.48109965635739 3.00601202404809  C 0.160366552119126 3.34001336005343  0 3.72411489645958  0 4.15831663326653  C 0 4.59251837007348  0.160366552119126 4.97661990647962  0.48109965635739 5.31062124248497  L 19.3883161512027 25  L 0.48109965635739 44.689378757515  C 0.160366552119126 45.0233800935204  0 45.4074816299265  0 45.8416833667335  C 0 46.2758851035404  0.160366552119126 46.6599866399466  0.48109965635739 46.9939879759519  L 2.88659793814433 49.498997995992  C 3.20733104238259 49.8329993319973  3.57617411225658 50  3.99312714776632 50  C 4.41008018327606 50  4.77892325315005 49.8329993319973  5.09965635738832 49.498997995992  L 27.5189003436426 26.1523046092184  C 27.8396334478809 25.8183032732131  28 25.4342017368069  28 25  C 28 24.5657982631931  27.8396334478809 24.1816967267869  27.5189003436426 23.8476953907816  L 5.09965635738832 0.501002004008017  C 4.77892325315005 0.16700066800267  4.41008018327606 0  3.99312714776632 0  C 3.57617411225658 0  3.20733104238259 0.16700066800267  2.88659793814433 0.501002004008017  L 0.48109965635739 3.00601202404809  Z " fill-rule="nonzero" fill="#434343" stroke="none" transform="matrix(1 0 0 1 1046 338 )" />
  </g>
</svg>