<?xml version="1.0" encoding="utf-8"?>
<svg version="1.1" xmlns:xlink="http://www.w3.org/1999/xlink" width="281px" height="281px" xmlns="http://www.w3.org/2000/svg">
  <g transform="matrix(1 0 0 1 -277 -407 )">
    <path d="M 417.5 412  C 493.38 412  553 471.62  553 547.5  C 553 623.38  493.38 683  417.5 683  C 341.62 683  282 623.38  282 547.5  C 282 471.62  341.62 412  417.5 412  Z " fill-rule="nonzero" fill="#ffffff" stroke="none" />
    <path d="M 417.5 410  C 494.5 410  555 470.5  555 547.5  C 555 624.5  494.5 685  417.5 685  C 340.5 685  280 624.5  280 547.5  C 280 470.5  340.5 410  417.5 410  Z " stroke-width="6" stroke="#fa541c" fill="none" />
  </g>
</svg>