<?xml version="1.0" encoding="utf-8"?>
<svg version="1.1" xmlns:xlink="http://www.w3.org/1999/xlink" width="34px" height="60px" xmlns="http://www.w3.org/2000/svg">
  <g transform="matrix(1 0 0 1 -132 -208 )">
    <path d="M 33.4158075601375 3.60721442885771  C 33.8052691867125 4.00801603206412  34 4.46893787575149  34 4.98997995991984  C 34 5.51102204408817  33.8052691867125 5.97194388777555  33.4158075601375 6.37274549098196  L 10.4570446735395 30  L 33.4158075601375 53.627254509018  C 33.8052691867125 54.0280561122245  34 54.4889779559118  34 55.0100200400802  C 34 55.5310621242485  33.8052691867125 55.9919839679359  33.4158075601375 56.3927855711423  L 30.4948453608247 59.3987975951904  C 30.1053837342497 59.7995991983968  29.6575028636884 60  29.1512027491409 60  C 28.6449026345934 60  28.1970217640321 59.7995991983968  27.807560137457 59.3987975951904  L 0.584192439862543 31.3827655310621  C 0.194730813287514 30.9819639278557  0 30.5210420841683  0 30  C 0 29.4789579158317  0.194730813287514 29.0180360721443  0.584192439862543 28.6172344689379  L 27.807560137457 0.60120240480962  C 28.1970217640321 0.200400801603204  28.6449026345934 0  29.1512027491409 0  C 29.6575028636884 0  30.1053837342497 0.200400801603204  30.4948453608247 0.60120240480962  L 33.4158075601375 3.60721442885771  Z " fill-rule="nonzero" fill="#555555" stroke="none" transform="matrix(1 0 0 1 132 208 )" />
  </g>
</svg>