<?xml version="1.0" encoding="utf-8"?>
<svg version="1.1" xmlns:xlink="http://www.w3.org/1999/xlink" width="93px" height="78px" xmlns="http://www.w3.org/2000/svg">
  <g transform="matrix(1 0 0 1 -929 -208 )">
    <path d="M 33.6454326923077 65.9232954545455  C 35.0612980769231 67.3267045454545  35.7692307692308 68.9886363636364  35.7692307692308 70.9090909090909  C 35.7692307692308 72.8295454545455  35.0612980769231 74.4914772727273  33.6454326923077 75.8948863636364  C 32.2295673076923 77.2982954545455  30.5528846153846 78  28.6153846153846 78  C 26.6778846153846 78  25.0012019230769 77.2982954545455  23.5853365384615 75.8948863636364  C 22.1694711538462 74.4914772727273  21.4615384615385 72.8295454545455  21.4615384615385 70.9090909090909  C 21.4615384615385 68.9886363636364  22.1694711538462 67.3267045454545  23.5853365384615 65.9232954545455  C 25.0012019230769 64.5198863636364  26.6778846153846 63.8181818181818  28.6153846153846 63.8181818181818  C 30.5528846153846 63.8181818181818  32.2295673076923 64.5198863636364  33.6454326923077 65.9232954545455  Z M 83.7223557692308 65.9232954545455  C 85.1382211538461 67.3267045454545  85.8461538461539 68.9886363636364  85.8461538461539 70.9090909090909  C 85.8461538461539 72.8295454545455  85.1382211538461 74.4914772727273  83.7223557692308 75.8948863636364  C 82.3064903846154 77.2982954545455  80.6298076923077 78  78.6923076923077 78  C 76.7548076923077 78  75.078125 77.2982954545455  73.6622596153846 75.8948863636364  C 72.2463942307692 74.4914772727273  71.5384615384615 72.8295454545455  71.5384615384615 70.9090909090909  C 71.5384615384615 68.9886363636364  72.2463942307692 67.3267045454545  73.6622596153846 65.9232954545455  C 75.078125 64.5198863636364  76.7548076923077 63.8181818181818  78.6923076923077 63.8181818181818  C 80.6298076923077 63.8181818181818  82.3064903846154 64.5198863636364  83.7223557692308 65.9232954545455  Z M 91.9381009615385 8.14346590909091  C 92.6460336538462 8.84517045454545  93 9.67613636363635  93 10.6363636363636  L 93 39  C 93 39.8863636363636  92.6926081730769 40.6711647727273  92.0778245192308 41.3544034090909  C 91.4630408653846 42.0376420454545  90.7085336538461 42.4346590909091  89.8143028846154 42.5454545454545  L 31.4657451923077 49.3039772727273  C 31.9501201923077 51.5198863636364  32.1923076923077 52.8125  32.1923076923077 53.1818181818182  C 32.1923076923077 53.7727272727273  31.7451923076923 54.9545454545455  30.8509615384615 56  L 82.2692307692308 56  C 83.2379807692308 56.7272727272727  84.0763221153846 57.078125  84.7842548076923 57.7798295454545  C 85.4921875 58.4815340909091  85.8461538461539 59.3125  85.8461538461539 60.2727272727273  C 85.8461538461539 61.2329545454545  85.4921875 62.0639204545455  84.7842548076923 62.765625  C 84.0763221153846 63.4673295454545  83.2379807692308 63.8181818181818  82.2692307692308 63  L 25.0384615384615 63  C 24.0697115384615 63.8181818181818  23.2313701923077 63.4673295454545  22.5234375 62.765625  C 21.8155048076923 62.0639204545455  21.4615384615385 61.2329545454545  21.4615384615385 60.2727272727273  C 21.4615384615385 59.8664772727273  21.6105769230769 59.2848011363636  21.9086538461538 58.5276988636364  C 22.2067307692308 57.7705965909091  22.5048076923077 57.1058238636364  22.8028846153846 56.5333806818182  C 23.1009615384615 55.9609375  23.5015024038462 55.2223011363636  24.0045072115385 54.3174715909091  C 24.5075120192308 53.4126420454545  24.7962740384615 52.8678977272727  24.8707932692308 52.6832386363636  L 14.9783653846154 7  L 3.57692307692308 7  C 2.60817307692308 7.09090909090909  1.76983173076923 6.74005681818181  1.06189903846154 6.03835227272727  C 0.353966346153846 5.33664772727272  0 4.50568181818182  0 3.54545454545454  C 0 2.58522727272727  0.353966346153846 1.75426136363635  1.06189903846154 1.05255681818182  C 1.76983173076923 0.350852272727265  2.60817307692308 0  3.57692307692308 0  L 17.8846153846154 0  C 18.4807692307692 0  19.01171875 0.120028409090904  19.4774639423077 0.360085227272729  C 19.9432091346154 0.600142045454545  20.3064903846154 0.886363636363636  20.5673076923077 1.21875  C 20.828125 1.55113636363636  21.0703125 2.00355113636362  21.2938701923077 2.57599431818182  C 21.5174278846154 3.14843749999999  21.6664663461539 3.62855113636364  21.7409855769231 4.01633522727273  C 21.8155048076923 4.40411931818182  21.91796875 4.94886363636363  22.0483774038462 5.65056818181818  C 22.1787860576923 6.35227272727272  22.2626201923077 6.83238636363636  22.2998798076923 7  L 89.4230769230769 7  C 90.3918269230769 7.09090909090909  91.2301682692308 7.44176136363636  91.9381009615385 8.14346590909091  Z " fill-rule="nonzero" fill="#fa541c" stroke="none" transform="matrix(1 0 0 1 929 208 )" />
  </g>
</svg>